<svg width="182" height="80" viewBox="0 0 182 80" fill="none" xmlns="http://www.w3.org/2000/svg">
<g filter="url(#filter0_dd_13_731)">
<rect width="170" height="54" transform="translate(6)" fill="#090C13"/>
<path d="M76.2393 23.1193C75.6712 23.1193 75.1626 23.0128 74.7138 22.7997C74.2649 22.5838 73.9084 22.2884 73.6442 21.9134C73.3828 21.5384 73.2436 21.1094 73.2266 20.6264H74.7607C74.7891 20.9844 74.9439 21.277 75.2251 21.5043C75.5064 21.7287 75.8445 21.8409 76.2393 21.8409C76.549 21.8409 76.8246 21.7699 77.0661 21.6278C77.3075 21.4858 77.4979 21.2884 77.6371 21.0355C77.7763 20.7827 77.8445 20.4943 77.8416 20.1705C77.8445 19.8409 77.7749 19.5483 77.6328 19.2926C77.4908 19.0369 77.2962 18.8366 77.049 18.6918C76.8018 18.544 76.5178 18.4702 76.1967 18.4702C75.9354 18.4673 75.6783 18.5156 75.4254 18.6151C75.1726 18.7145 74.9723 18.8452 74.8246 19.0071L73.397 18.7727L73.853 14.2727H78.9155V15.5938H75.1612L74.9098 17.9077H74.9609C75.1229 17.7173 75.3516 17.5597 75.647 17.4347C75.9425 17.3068 76.2663 17.2429 76.6186 17.2429C77.147 17.2429 77.6186 17.3679 78.0334 17.6179C78.4482 17.8651 78.7749 18.206 79.0135 18.6406C79.2521 19.0753 79.3714 19.5724 79.3714 20.1321C79.3714 20.7088 79.2379 21.223 78.9709 21.6747C78.7067 22.1236 78.3388 22.4773 77.8672 22.7358C77.3984 22.9915 76.8558 23.1193 76.2393 23.1193ZM84.0249 23.1662C83.3232 23.1662 82.7209 22.9886 82.218 22.6335C81.718 22.2756 81.3331 21.7599 81.0632 21.0866C80.7962 20.4105 80.6626 19.5966 80.6626 18.6449C80.6655 17.6932 80.8004 16.8835 81.0675 16.2159C81.3374 15.5455 81.7223 15.0341 82.2223 14.6818C82.7251 14.3295 83.326 14.1534 84.0249 14.1534C84.7237 14.1534 85.3246 14.3295 85.8274 14.6818C86.3303 15.0341 86.7152 15.5455 86.9822 16.2159C87.2521 16.8864 87.3871 17.696 87.3871 18.6449C87.3871 19.5994 87.2521 20.4148 86.9822 21.0909C86.7152 21.7642 86.3303 22.2784 85.8274 22.6335C85.3274 22.9886 84.7266 23.1662 84.0249 23.1662ZM84.0249 21.8324C84.5703 21.8324 85.0007 21.5639 85.3161 21.027C85.6342 20.4872 85.7933 19.6932 85.7933 18.6449C85.7933 17.9517 85.7209 17.3693 85.576 16.8977C85.4311 16.4261 85.2266 16.071 84.9624 15.8324C84.6982 15.5909 84.3857 15.4702 84.0249 15.4702C83.4822 15.4702 83.0533 15.7401 82.7379 16.2798C82.4226 16.8168 82.2635 17.6051 82.2607 18.6449C82.2578 19.3409 82.3274 19.9261 82.4695 20.4006C82.6143 20.875 82.8189 21.233 83.0831 21.4744C83.3473 21.7131 83.6612 21.8324 84.0249 21.8324ZM91.8647 23V14.2727H93.4457V18.2827H93.5522L96.957 14.2727H98.8874L95.5124 18.1889L98.9173 23H97.0167L94.413 19.2585L93.4457 20.4006V23H91.8647ZM99.9858 14.2727H101.92L104.511 20.5966H104.614L107.205 14.2727H109.139V23H107.622V17.0043H107.541L105.129 22.9744H103.996L101.584 16.9915H101.503V23H99.9858V14.2727Z" fill="white"/>
<path d="M25.6506 39V30.2727H30.8835V31.2102H26.7074V34.1591H30.4915V35.0966H26.7074V39H25.6506ZM32.4869 39V32.4545H33.4585V33.4432H33.5266C33.646 33.1193 33.8619 32.8565 34.1744 32.6548C34.4869 32.4531 34.8391 32.3523 35.2312 32.3523C35.305 32.3523 35.3974 32.3537 35.5082 32.3565C35.619 32.3594 35.7028 32.3636 35.7596 32.3693V33.392C35.7255 33.3835 35.6474 33.3707 35.5252 33.3537C35.4059 33.3338 35.2795 33.3239 35.146 33.3239C34.8278 33.3239 34.5437 33.3906 34.2937 33.5241C34.0465 33.6548 33.8505 33.8366 33.7056 34.0696C33.5636 34.2997 33.4925 34.5625 33.4925 34.858V39H32.4869ZM39.4116 39.1364C38.8207 39.1364 38.3022 38.9957 37.8562 38.7145C37.413 38.4332 37.0664 38.0398 36.8164 37.5341C36.5692 37.0284 36.4457 36.4375 36.4457 35.7614C36.4457 35.0795 36.5692 34.4844 36.8164 33.9759C37.0664 33.4673 37.413 33.0724 37.8562 32.7912C38.3022 32.5099 38.8207 32.3693 39.4116 32.3693C40.0025 32.3693 40.5195 32.5099 40.9627 32.7912C41.4087 33.0724 41.7553 33.4673 42.0025 33.9759C42.2525 34.4844 42.3775 35.0795 42.3775 35.7614C42.3775 36.4375 42.2525 37.0284 42.0025 37.5341C41.7553 38.0398 41.4087 38.4332 40.9627 38.7145C40.5195 38.9957 40.0025 39.1364 39.4116 39.1364ZM39.4116 38.233C39.8604 38.233 40.2298 38.1179 40.5195 37.8878C40.8093 37.6577 41.0238 37.3551 41.163 36.9801C41.3022 36.6051 41.3718 36.1989 41.3718 35.7614C41.3718 35.3239 41.3022 34.9162 41.163 34.5384C41.0238 34.1605 40.8093 33.8551 40.5195 33.6222C40.2298 33.3892 39.8604 33.2727 39.4116 33.2727C38.9627 33.2727 38.5934 33.3892 38.3036 33.6222C38.0138 33.8551 37.7994 34.1605 37.6602 34.5384C37.521 34.9162 37.4513 35.3239 37.4513 35.7614C37.4513 36.1989 37.521 36.6051 37.6602 36.9801C37.7994 37.3551 38.0138 37.6577 38.3036 37.8878C38.5934 38.1179 38.9627 38.233 39.4116 38.233ZM43.9126 39V32.4545H44.8842V33.4773H44.9695C45.1058 33.1278 45.326 32.8565 45.63 32.6634C45.9339 32.4673 46.299 32.3693 46.7251 32.3693C47.157 32.3693 47.5163 32.4673 47.8033 32.6634C48.093 32.8565 48.3189 33.1278 48.4808 33.4773H48.549C48.7166 33.1392 48.968 32.8707 49.3033 32.6719C49.6385 32.4702 50.0405 32.3693 50.5092 32.3693C51.0945 32.3693 51.5732 32.5526 51.9453 32.919C52.3175 33.2827 52.5036 33.8494 52.5036 34.6193V39H51.4979V34.6193C51.4979 34.1364 51.3658 33.7912 51.1016 33.5838C50.8374 33.3764 50.5263 33.2727 50.1683 33.2727C49.7081 33.2727 49.3516 33.4119 49.0987 33.6903C48.8459 33.9659 48.7195 34.3153 48.7195 34.7386V39H47.6967V34.517C47.6967 34.1449 47.576 33.8452 47.3345 33.6179C47.093 33.3878 46.782 33.2727 46.4013 33.2727C46.1399 33.2727 45.8956 33.3423 45.6683 33.4815C45.4439 33.6207 45.2621 33.8139 45.1229 34.0611C44.9865 34.3054 44.9183 34.5881 44.9183 34.9091V39H43.9126ZM60.5639 32.4545V33.3068H57.1719V32.4545H60.5639ZM58.1605 30.8864H59.1662V37.125C59.1662 37.4091 59.2074 37.6222 59.2898 37.7642C59.375 37.9034 59.483 37.9972 59.6136 38.0455C59.7472 38.0909 59.8878 38.1136 60.0355 38.1136C60.1463 38.1136 60.2372 38.108 60.3082 38.0966C60.3793 38.0824 60.4361 38.071 60.4787 38.0625L60.6832 38.9659C60.6151 38.9915 60.5199 39.017 60.3977 39.0426C60.2756 39.071 60.1207 39.0852 59.9332 39.0852C59.6491 39.0852 59.3707 39.0241 59.098 38.902C58.8281 38.7798 58.6037 38.5938 58.4247 38.3438C58.2486 38.0938 58.1605 37.7784 58.1605 37.3977V30.8864ZM63.223 35.0625V39H62.2173V30.2727H63.223V33.4773H63.3082C63.4616 33.1392 63.6918 32.8707 63.9986 32.6719C64.3082 32.4702 64.7202 32.3693 65.2344 32.3693C65.6804 32.3693 66.071 32.4588 66.4062 32.6378C66.7415 32.8139 67.0014 33.0852 67.1861 33.4517C67.3736 33.8153 67.4673 34.2784 67.4673 34.8409V39H66.4616V34.9091C66.4616 34.3892 66.3267 33.9872 66.0568 33.7031C65.7898 33.4162 65.419 33.2727 64.9446 33.2727C64.6151 33.2727 64.3196 33.3423 64.0582 33.4815C63.7997 33.6207 63.5952 33.8239 63.4446 34.0909C63.2969 34.358 63.223 34.6818 63.223 35.0625ZM72.0515 39.1364C71.4208 39.1364 70.8768 38.9972 70.4194 38.7188C69.9648 38.4375 69.614 38.0455 69.3668 37.5426C69.1225 37.0369 69.0004 36.4489 69.0004 35.7784C69.0004 35.108 69.1225 34.517 69.3668 34.0057C69.614 33.4915 69.9577 33.0909 70.3981 32.804C70.8413 32.5142 71.3583 32.3693 71.9492 32.3693C72.2901 32.3693 72.6268 32.4261 72.9592 32.5398C73.2915 32.6534 73.5941 32.8381 73.8668 33.0938C74.1396 33.3466 74.3569 33.6818 74.5188 34.0994C74.6808 34.517 74.7617 35.0312 74.7617 35.642V36.0682H69.7163V35.1989H73.739C73.739 34.8295 73.6651 34.5 73.5174 34.2102C73.3725 33.9205 73.1651 33.6918 72.8952 33.5241C72.6282 33.3565 72.3129 33.2727 71.9492 33.2727C71.5487 33.2727 71.2021 33.3722 70.9094 33.571C70.6197 33.767 70.3967 34.0227 70.2404 34.3381C70.0842 34.6534 70.006 34.9915 70.006 35.3523V35.9318C70.006 36.4261 70.0913 36.8452 70.2617 37.1889C70.435 37.5298 70.6751 37.7898 70.9819 37.9688C71.2887 38.1449 71.6452 38.233 72.0515 38.233C72.3157 38.233 72.5543 38.196 72.7674 38.1222C72.9833 38.0455 73.1694 37.9318 73.3256 37.7812C73.4819 37.6278 73.6026 37.4375 73.6879 37.2102L74.6594 37.483C74.5572 37.8125 74.3853 38.1023 74.1438 38.3523C73.9023 38.5994 73.604 38.7926 73.2489 38.9318C72.8938 39.0682 72.4947 39.1364 72.0515 39.1364ZM82.3256 39.1364C81.712 39.1364 81.1836 38.9915 80.7404 38.7017C80.2972 38.4119 79.9563 38.0128 79.7177 37.5043C79.479 36.9957 79.3597 36.4148 79.3597 35.7614C79.3597 35.0966 79.4819 34.5099 79.7262 34.0014C79.9734 33.4901 80.3171 33.0909 80.7575 32.804C81.2006 32.5142 81.7177 32.3693 82.3086 32.3693C82.7688 32.3693 83.1836 32.4545 83.5529 32.625C83.9222 32.7955 84.2248 33.0341 84.4606 33.3409C84.6964 33.6477 84.8427 34.0057 84.8995 34.4148H83.8938C83.8171 34.1165 83.6467 33.8523 83.3825 33.6222C83.1211 33.3892 82.7688 33.2727 82.3256 33.2727C81.9336 33.2727 81.5898 33.375 81.2944 33.5795C81.0018 33.7812 80.7731 34.0668 80.6083 34.4361C80.4464 34.8026 80.3654 35.233 80.3654 35.7273C80.3654 36.233 80.445 36.6733 80.604 37.0483C80.766 37.4233 80.9933 37.7145 81.2859 37.9219C81.5813 38.1293 81.9279 38.233 82.3256 38.233C82.587 38.233 82.8242 38.1875 83.0373 38.0966C83.2504 38.0057 83.4308 37.875 83.5785 37.7045C83.7262 37.5341 83.8313 37.3295 83.8938 37.0909H84.8995C84.8427 37.4773 84.7021 37.8253 84.4776 38.1349C84.256 38.4418 83.962 38.6861 83.5955 38.8679C83.2319 39.0469 82.8086 39.1364 82.3256 39.1364ZM89.0288 39.1364C88.4379 39.1364 87.9194 38.9957 87.4734 38.7145C87.0302 38.4332 86.6836 38.0398 86.4336 37.5341C86.1864 37.0284 86.0629 36.4375 86.0629 35.7614C86.0629 35.0795 86.1864 34.4844 86.4336 33.9759C86.6836 33.4673 87.0302 33.0724 87.4734 32.7912C87.9194 32.5099 88.4379 32.3693 89.0288 32.3693C89.6197 32.3693 90.1367 32.5099 90.5799 32.7912C91.0259 33.0724 91.3725 33.4673 91.6197 33.9759C91.8697 34.4844 91.9947 35.0795 91.9947 35.7614C91.9947 36.4375 91.8697 37.0284 91.6197 37.5341C91.3725 38.0398 91.0259 38.4332 90.5799 38.7145C90.1367 38.9957 89.6197 39.1364 89.0288 39.1364ZM89.0288 38.233C89.4776 38.233 89.8469 38.1179 90.1367 37.8878C90.4265 37.6577 90.641 37.3551 90.7802 36.9801C90.9194 36.6051 90.989 36.1989 90.989 35.7614C90.989 35.3239 90.9194 34.9162 90.7802 34.5384C90.641 34.1605 90.4265 33.8551 90.1367 33.6222C89.8469 33.3892 89.4776 33.2727 89.0288 33.2727C88.5799 33.2727 88.2106 33.3892 87.9208 33.6222C87.631 33.8551 87.4165 34.1605 87.2773 34.5384C87.1381 34.9162 87.0685 35.3239 87.0685 35.7614C87.0685 36.1989 87.1381 36.6051 87.2773 36.9801C87.4165 37.3551 87.631 37.6577 87.9208 37.8878C88.2106 38.1179 88.5799 38.233 89.0288 38.233ZM95.456 39.1534C95.0412 39.1534 94.6648 39.0753 94.3267 38.919C93.9886 38.7599 93.7202 38.5312 93.5213 38.233C93.3224 37.9318 93.223 37.5682 93.223 37.142C93.223 36.767 93.2969 36.4631 93.4446 36.2301C93.5923 35.9943 93.7898 35.8097 94.0369 35.6761C94.2841 35.5426 94.5568 35.4432 94.8551 35.3778C95.1563 35.3097 95.4588 35.2557 95.7628 35.2159C96.1605 35.1648 96.483 35.1264 96.7301 35.1009C96.9801 35.0724 97.1619 35.0256 97.2756 34.9602C97.392 34.8949 97.4503 34.7812 97.4503 34.6193V34.5852C97.4503 34.1648 97.3352 33.8381 97.1051 33.6051C96.8778 33.3722 96.5327 33.2557 96.0696 33.2557C95.5895 33.2557 95.2131 33.3608 94.9403 33.571C94.6676 33.7812 94.4759 34.0057 94.3651 34.2443L93.4105 33.9034C93.581 33.5057 93.8082 33.196 94.0923 32.9744C94.3793 32.75 94.6918 32.5937 95.0298 32.5057C95.3707 32.4148 95.706 32.3693 96.0355 32.3693C96.2457 32.3693 96.4872 32.3949 96.7599 32.446C97.0355 32.4943 97.3011 32.5952 97.5568 32.7486C97.8153 32.902 98.0298 33.1335 98.2003 33.4432C98.3707 33.7528 98.456 34.1676 98.456 34.6875V39H97.4503V38.1136H97.3991C97.331 38.2557 97.2173 38.4077 97.0582 38.5696C96.8991 38.7315 96.6875 38.8693 96.4233 38.983C96.1591 39.0966 95.8366 39.1534 95.456 39.1534ZM95.6094 38.25C96.0071 38.25 96.3423 38.1719 96.6151 38.0156C96.8906 37.8594 97.098 37.6577 97.2372 37.4105C97.3793 37.1634 97.4503 36.9034 97.4503 36.6307V35.7102C97.4077 35.7614 97.3139 35.8082 97.169 35.8509C97.027 35.8906 96.8622 35.9261 96.6747 35.9574C96.4901 35.9858 96.3097 36.0114 96.1335 36.0341C95.9602 36.054 95.8196 36.071 95.7116 36.0852C95.4503 36.1193 95.206 36.1747 94.9787 36.2514C94.7543 36.3253 94.5724 36.4375 94.4332 36.5881C94.2969 36.7358 94.2287 36.9375 94.2287 37.1932C94.2287 37.5426 94.358 37.8068 94.6165 37.9858C94.8778 38.1619 95.2088 38.25 95.6094 38.25ZM104.928 33.9205L104.025 34.1761C103.968 34.0256 103.884 33.8793 103.773 33.7372C103.665 33.5923 103.517 33.473 103.33 33.3793C103.142 33.2855 102.902 33.2386 102.61 33.2386C102.209 33.2386 101.875 33.331 101.608 33.5156C101.344 33.6974 101.212 33.929 101.212 34.2102C101.212 34.4602 101.303 34.6577 101.485 34.8026C101.667 34.9474 101.951 35.0682 102.337 35.1648L103.309 35.4034C103.894 35.5455 104.33 35.7628 104.617 36.0554C104.904 36.3452 105.047 36.7187 105.047 37.1761C105.047 37.5511 104.939 37.8864 104.723 38.1818C104.51 38.4773 104.212 38.7102 103.828 38.8807C103.445 39.0511 102.999 39.1364 102.49 39.1364C101.823 39.1364 101.27 38.9915 100.833 38.7017C100.395 38.4119 100.118 37.9886 100.002 37.4318L100.956 37.1932C101.047 37.5455 101.219 37.8097 101.472 37.9858C101.728 38.1619 102.061 38.25 102.473 38.25C102.942 38.25 103.314 38.1506 103.59 37.9517C103.868 37.75 104.007 37.5085 104.007 37.2273C104.007 37 103.928 36.8097 103.769 36.6562C103.61 36.5 103.365 36.3835 103.036 36.3068L101.945 36.0511C101.346 35.9091 100.905 35.6889 100.624 35.3906C100.346 35.0895 100.206 34.7131 100.206 34.2614C100.206 33.892 100.31 33.5653 100.517 33.2812C100.728 32.9972 101.013 32.7741 101.374 32.6122C101.738 32.4503 102.15 32.3693 102.61 32.3693C103.257 32.3693 103.766 32.5114 104.135 32.7955C104.507 33.0795 104.772 33.4545 104.928 33.9205ZM109.408 32.4545V33.3068H106.016V32.4545H109.408ZM107.004 30.8864H108.01V37.125C108.01 37.4091 108.051 37.6222 108.134 37.7642C108.219 37.9034 108.327 37.9972 108.457 38.0455C108.591 38.0909 108.732 38.1136 108.879 38.1136C108.99 38.1136 109.081 38.108 109.152 38.0966C109.223 38.0824 109.28 38.071 109.322 38.0625L109.527 38.9659C109.459 38.9915 109.364 39.017 109.241 39.0426C109.119 39.071 108.964 39.0852 108.777 39.0852C108.493 39.0852 108.214 39.0241 107.942 38.902C107.672 38.7798 107.447 38.5938 107.268 38.3438C107.092 38.0938 107.004 37.7784 107.004 37.3977V30.8864Z" fill="#B9BCBE"/>
<rect width="54" height="54" transform="translate(122)" fill="#EA6F25"/>
<path fill-rule="evenodd" clip-rule="evenodd" d="M140.421 13.9868C136.178 13.9868 132.421 16.6849 132.421 21.8359C132.421 22.9151 132.987 24.4931 133.269 25.1472L140.421 39.9868V25.1655C140.388 25.1664 140.354 25.1669 140.321 25.1669C138.333 25.1669 136.721 23.5372 136.721 21.5269C136.721 19.5165 138.333 17.8868 140.321 17.8868C140.354 17.8868 140.388 17.8873 140.421 17.8882V13.9868ZM140.421 25.1655C142.363 25.1119 143.921 23.5034 143.921 21.5269C143.921 19.5504 142.363 17.9418 140.421 17.8882V13.9868C144.663 13.9868 148.421 16.6849 148.421 21.8359C148.421 22.9151 147.855 24.4931 147.572 25.1472L140.421 39.9868V25.1655Z" fill="white"/>
<path fill-rule="evenodd" clip-rule="evenodd" d="M159.983 22C157.016 22 154.387 23.8666 154.387 27.43C154.387 28.1766 154.783 29.2683 154.981 29.7208L159.983 39.9869V29.7332C159.96 29.7338 159.937 29.7341 159.913 29.7341C158.522 29.7341 157.395 28.6067 157.395 27.2159C157.395 25.8252 158.522 24.6978 159.913 24.6978C159.937 24.6978 159.96 24.6981 159.983 24.6987V22ZM159.983 29.7332C161.342 29.6961 162.431 28.5833 162.431 27.2159C162.431 25.8486 161.342 24.7358 159.983 24.6987V22C162.951 22 165.579 23.8666 165.579 27.43C165.579 28.1766 165.183 29.2683 164.986 29.7208L159.983 39.9869V29.7332Z" fill="white"/>
<line x1="140.32" y1="39.5133" x2="160.32" y2="39.4993" stroke="white" stroke-dasharray="1 1"/>
</g>
<defs>
<filter id="filter0_dd_13_731" x="0" y="0" width="182" height="80" filterUnits="userSpaceOnUse" color-interpolation-filters="sRGB">
<feFlood flood-opacity="0" result="BackgroundImageFix"/>
<feColorMatrix in="SourceAlpha" type="matrix" values="0 0 0 0 0 0 0 0 0 0 0 0 0 0 0 0 0 0 127 0" result="hardAlpha"/>
<feMorphology radius="12" operator="erode" in="SourceAlpha" result="effect1_dropShadow_13_731"/>
<feOffset dy="20"/>
<feGaussianBlur stdDeviation="9"/>
<feComposite in2="hardAlpha" operator="out"/>
<feColorMatrix type="matrix" values="0 0 0 0 0.0352941 0 0 0 0 0.0470588 0 0 0 0 0.0745098 0 0 0 0.5 0"/>
<feBlend mode="normal" in2="BackgroundImageFix" result="effect1_dropShadow_13_731"/>
<feColorMatrix in="SourceAlpha" type="matrix" values="0 0 0 0 0 0 0 0 0 0 0 0 0 0 0 0 0 0 127 0" result="hardAlpha"/>
<feMorphology radius="24" operator="erode" in="SourceAlpha" result="effect2_dropShadow_13_731"/>
<feOffset dy="24"/>
<feGaussianBlur stdDeviation="6"/>
<feComposite in2="hardAlpha" operator="out"/>
<feColorMatrix type="matrix" values="0 0 0 0 0.0352941 0 0 0 0 0.0470588 0 0 0 0 0.0745098 0 0 0 1 0"/>
<feBlend mode="normal" in2="effect1_dropShadow_13_731" result="effect2_dropShadow_13_731"/>
<feBlend mode="normal" in="SourceGraphic" in2="effect2_dropShadow_13_731" result="shape"/>
</filter>
</defs>
</svg>
