<svg width="262" height="95" viewBox="0 0 262 95" fill="none" xmlns="http://www.w3.org/2000/svg">
<g filter="url(#filter0_dd_13_760)">
<rect width="250" height="69" transform="translate(6)" fill="#090C13"/>
<rect width="54" height="69" transform="translate(6)" fill="#EA6F25"/>
<path d="M30.0267 23.7462L29.0538 24.9092L19.8004 23.0305L19 24.634L33.0353 31.9975L27.6254 38.5696L22.2639 38.1704L21.6428 39.3472L25.8451 41.3567L25.0516 42.9464C24.817 43.4281 24.7756 43.7057 24.9274 43.7791L24.9343 43.7722C25.0125 43.9191 25.2862 43.8593 25.7554 43.5933L27.3011 42.7193L29.5713 46.7727L30.7099 46.0845L29.9715 40.7718L36.2232 34.9773L44.4553 48.5L46.0079 47.5916L43.5583 38.5076L44.6692 37.4616C45.0602 37.0992 45.1615 36.7367 44.9729 36.3743L43.9792 34.9704C43.7077 34.7364 43.372 34.7616 42.9718 35.0461L42.6957 35.2663L41.3433 30.2357L45.1247 26.5196C46.9464 24.7258 47.4408 22.8126 46.6082 20.7802L46.6013 20.7871C44.5174 20.0759 42.6313 20.6862 40.9431 22.6176L37.4515 26.609L32.3452 25.5699L32.5454 25.2809C32.8121 24.8634 32.819 24.5284 32.5661 24.2761L31.0963 23.3746C30.7237 23.214 30.3672 23.3379 30.0267 23.7462Z" fill="white"/>
<path d="M77.6037 17.1719C77.5639 16.7997 77.3963 16.5099 77.1009 16.3026C76.8082 16.0952 76.4276 15.9915 75.9588 15.9915C75.6293 15.9915 75.3466 16.0412 75.1108 16.1406C74.875 16.2401 74.6946 16.375 74.5696 16.5455C74.4446 16.7159 74.3807 16.9105 74.3778 17.1293C74.3778 17.3111 74.419 17.4687 74.5014 17.6023C74.5866 17.7358 74.7017 17.8494 74.8466 17.9432C74.9915 18.0341 75.152 18.1108 75.3281 18.1733C75.5043 18.2358 75.6818 18.2884 75.8608 18.331L76.679 18.5355C77.0085 18.6122 77.3253 18.7159 77.6293 18.8466C77.9361 18.9773 78.2102 19.142 78.4517 19.3409C78.696 19.5398 78.8892 19.7798 79.0312 20.0611C79.1733 20.3423 79.2443 20.6719 79.2443 21.0497C79.2443 21.5611 79.1136 22.0114 78.8523 22.4006C78.5909 22.7869 78.2131 23.0895 77.7188 23.3082C77.2273 23.5241 76.6321 23.6321 75.9332 23.6321C75.2543 23.6321 74.6648 23.527 74.1648 23.3168C73.6676 23.1065 73.2784 22.7997 72.9972 22.3963C72.7188 21.9929 72.5682 21.5014 72.5455 20.9219H74.1009C74.1236 21.2259 74.2173 21.4787 74.3821 21.6804C74.5469 21.8821 74.7614 22.0327 75.0256 22.1321C75.2926 22.2315 75.5909 22.2812 75.9205 22.2812C76.2642 22.2812 76.5653 22.2301 76.8239 22.1278C77.0852 22.0227 77.2898 21.8778 77.4375 21.6932C77.5852 21.5057 77.6605 21.2869 77.6634 21.0369C77.6605 20.8097 77.5938 20.6222 77.4631 20.4744C77.3324 20.3239 77.1491 20.1989 76.9134 20.0994C76.6804 19.9972 76.4077 19.9062 76.0952 19.8267L75.1023 19.571C74.3835 19.3864 73.8153 19.1065 73.3977 18.7315C72.983 18.3537 72.7756 17.8523 72.7756 17.2273C72.7756 16.7131 72.9148 16.2628 73.1932 15.8764C73.4744 15.4901 73.8565 15.1903 74.3395 14.9773C74.8224 14.7614 75.3693 14.6534 75.9801 14.6534C76.5994 14.6534 77.142 14.7614 77.608 14.9773C78.0767 15.1903 78.4446 15.4872 78.7116 15.8679C78.9787 16.2457 79.1165 16.6804 79.125 17.1719H77.6037ZM80.6538 23.5V14.7727H86.3299V16.098H82.2347V18.4673H86.0359V19.7926H82.2347V22.1747H86.364V23.5H80.6538ZM87.9428 23.5V14.7727H91.2156C91.886 14.7727 92.4485 14.8892 92.9031 15.1222C93.3604 15.3551 93.7056 15.6818 93.9386 16.1023C94.1744 16.5199 94.2923 17.0071 94.2923 17.5639C94.2923 18.1236 94.1729 18.6094 93.9343 19.0213C93.6985 19.4304 93.3505 19.7472 92.8903 19.9716C92.43 20.1932 91.8647 20.304 91.1942 20.304H88.8633V18.9915H90.9812C91.3732 18.9915 91.6942 18.9375 91.9442 18.8295C92.1942 18.7187 92.3789 18.5582 92.4982 18.348C92.6204 18.1349 92.6815 17.8736 92.6815 17.5639C92.6815 17.2543 92.6204 16.9901 92.4982 16.7713C92.3761 16.5497 92.19 16.3821 91.94 16.2685C91.69 16.152 91.3675 16.0938 90.9727 16.0938H89.5238V23.5H87.9428ZM92.4513 19.5455L94.6119 23.5H92.8477L90.7255 19.5455H92.4513ZM96.6925 14.7727L98.9638 21.642H99.0533L101.32 14.7727H103.059L99.9822 23.5H98.0305L94.9581 14.7727H96.6925ZM104.208 23.5V14.7727H109.885V16.098H105.789V18.4673H109.591V19.7926H105.789V22.1747H109.919V23.5H104.208ZM114.455 23.5H111.498V14.7727H114.515C115.381 14.7727 116.125 14.9474 116.748 15.2969C117.373 15.6435 117.853 16.142 118.188 16.7926C118.523 17.4432 118.691 18.2216 118.691 19.1278C118.691 20.0369 118.522 20.8182 118.184 21.4716C117.848 22.125 117.364 22.6264 116.73 22.9759C116.1 23.3253 115.341 23.5 114.455 23.5ZM113.078 22.1321H114.378C114.986 22.1321 115.493 22.0213 115.9 21.7997C116.306 21.5753 116.611 21.2415 116.816 20.7983C117.02 20.3523 117.123 19.7955 117.123 19.1278C117.123 18.4602 117.02 17.9062 116.816 17.4659C116.611 17.0227 116.309 16.6918 115.908 16.473C115.51 16.2514 115.016 16.1406 114.425 16.1406H113.078V22.1321ZM123.169 23.5V14.7727H126.51C127.141 14.7727 127.665 14.8722 128.083 15.071C128.503 15.267 128.817 15.5355 129.025 15.8764C129.235 16.2173 129.34 16.6037 129.34 17.0355C129.34 17.3906 129.272 17.6946 129.135 17.9474C128.999 18.1974 128.816 18.4006 128.586 18.5568C128.355 18.7131 128.098 18.8253 127.814 18.8935V18.9787C128.124 18.9957 128.421 19.0909 128.705 19.2642C128.992 19.4347 129.226 19.6761 129.408 19.9886C129.59 20.3011 129.681 20.679 129.681 21.1222C129.681 21.5739 129.571 21.9801 129.353 22.3409C129.134 22.6989 128.804 22.9815 128.364 23.1889C127.924 23.3963 127.37 23.5 126.702 23.5H123.169ZM124.75 22.179H126.451C127.025 22.179 127.438 22.0696 127.691 21.8509C127.946 21.6293 128.074 21.3452 128.074 20.9986C128.074 20.7401 128.01 20.5071 127.882 20.2997C127.755 20.0895 127.573 19.9247 127.337 19.8054C127.101 19.6832 126.82 19.6222 126.493 19.6222H124.75V22.179ZM124.75 18.4844H126.314C126.587 18.4844 126.833 18.4347 127.051 18.3352C127.27 18.233 127.442 18.0895 127.567 17.9048C127.695 17.7173 127.759 17.4957 127.759 17.2401C127.759 16.902 127.64 16.6236 127.401 16.4048C127.165 16.1861 126.814 16.0767 126.348 16.0767H124.75V18.4844ZM130.46 14.7727H132.245L134.38 18.6335H134.465L136.6 14.7727H138.386L135.211 20.2443V23.5H133.634V20.2443L130.46 14.7727ZM142.098 16.098V14.7727H149.061V16.098H146.364V23.5H144.796V16.098H142.098ZM150.404 23.5V14.7727H151.985V18.4673H156.029V14.7727H157.614V23.5H156.029V19.7926H151.985V23.5H150.404ZM159.333 23.5V14.7727H162.606C163.277 14.7727 163.839 14.8892 164.294 15.1222C164.751 15.3551 165.096 15.6818 165.329 16.1023C165.565 16.5199 165.683 17.0071 165.683 17.5639C165.683 18.1236 165.564 18.6094 165.325 19.0213C165.089 19.4304 164.741 19.7472 164.281 19.9716C163.821 20.1932 163.255 20.304 162.585 20.304H160.254V18.9915H162.372C162.764 18.9915 163.085 18.9375 163.335 18.8295C163.585 18.7187 163.77 18.5582 163.889 18.348C164.011 18.1349 164.072 17.8736 164.072 17.5639C164.072 17.2543 164.011 16.9901 163.889 16.7713C163.767 16.5497 163.581 16.3821 163.331 16.2685C163.081 16.152 162.758 16.0938 162.363 16.0938H160.914V23.5H159.333ZM163.842 19.5455L166.002 23.5H164.238L162.116 19.5455H163.842ZM167.138 23.5V14.7727H172.814V16.098H168.719V18.4673H172.52V19.7926H168.719V22.1747H172.848V23.5H167.138ZM174.427 23.5V14.7727H180.103V16.098H176.008V18.4673H179.809V19.7926H176.008V22.1747H180.137V23.5H174.427ZM191.865 14.7727V23.5H190.458L186.346 17.5554H186.274V23.5H184.693V14.7727H186.108L190.216 20.7216H190.292V14.7727H191.865ZM193.587 23.5V14.7727H199.263V16.098H195.168V18.4673H198.969V19.7926H195.168V22.1747H199.298V23.5H193.587ZM201.997 23.5H200.31L203.382 14.7727H205.334L208.411 23.5H206.723L204.392 16.5625H204.324L201.997 23.5ZM202.053 20.0781H206.655V21.348H202.053V20.0781ZM209.56 23.5V14.7727H212.833C213.503 14.7727 214.066 14.8892 214.52 15.1222C214.978 15.3551 215.323 15.6818 215.556 16.1023C215.792 16.5199 215.909 17.0071 215.909 17.5639C215.909 18.1236 215.79 18.6094 215.551 19.0213C215.316 19.4304 214.968 19.7472 214.507 19.9716C214.047 20.1932 213.482 20.304 212.811 20.304H210.48V18.9915H212.598C212.99 18.9915 213.311 18.9375 213.561 18.8295C213.811 18.7187 213.996 18.5582 214.115 18.348C214.238 18.1349 214.299 17.8736 214.299 17.5639C214.299 17.2543 214.238 16.9901 214.115 16.7713C213.993 16.5497 213.807 16.3821 213.557 16.2685C213.307 16.152 212.985 16.0938 212.59 16.0938H211.141V23.5H209.56ZM214.069 19.5455L216.229 23.5H214.465L212.343 19.5455H214.069ZM217.365 23.5V14.7727H220.706C221.336 14.7727 221.86 14.8722 222.278 15.071C222.699 15.267 223.012 15.5355 223.22 15.8764C223.43 16.2173 223.535 16.6037 223.535 17.0355C223.535 17.3906 223.467 17.6946 223.331 17.9474C223.194 18.1974 223.011 18.4006 222.781 18.5568C222.551 18.7131 222.294 18.8253 222.01 18.8935V18.9787C222.319 18.9957 222.616 19.0909 222.9 19.2642C223.187 19.4347 223.422 19.6761 223.603 19.9886C223.785 20.3011 223.876 20.679 223.876 21.1222C223.876 21.5739 223.767 21.9801 223.548 22.3409C223.329 22.6989 223 22.9815 222.559 23.1889C222.119 23.3963 221.565 23.5 220.897 23.5H217.365ZM218.946 22.179H220.646C221.22 22.179 221.633 22.0696 221.886 21.8509C222.142 21.6293 222.27 21.3452 222.27 20.9986C222.27 20.7401 222.206 20.5071 222.078 20.2997C221.95 20.0895 221.768 19.9247 221.532 19.8054C221.297 19.6832 221.015 19.6222 220.689 19.6222H218.946V22.179ZM218.946 18.4844H220.51C220.782 18.4844 221.028 18.4347 221.247 18.3352C221.466 18.233 221.637 18.0895 221.762 17.9048C221.89 17.7173 221.954 17.4957 221.954 17.2401C221.954 16.902 221.835 16.6236 221.596 16.4048C221.36 16.1861 221.01 16.0767 220.544 16.0767H218.946V18.4844ZM224.655 14.7727H226.44L228.575 18.6335H228.661L230.795 14.7727H232.581L229.406 20.2443V23.5H227.83V20.2443L224.655 14.7727ZM74.4418 28.7727V37.5H72.8608V28.7727H74.4418ZM83.3256 28.7727V37.5H81.9194L77.8072 31.5554H77.7347V37.5H76.1538V28.7727H77.5685L81.6765 34.7216H81.7532V28.7727H83.3256ZM84.6648 30.098V28.7727H91.6278V30.098H88.9304V37.5H87.3622V30.098H84.6648ZM92.9702 37.5V28.7727H98.6463V30.098H94.5511V32.4673H98.3523V33.7926H94.5511V36.1747H98.6804V37.5H92.9702ZM100.259 37.5V28.7727H103.532C104.202 28.7727 104.765 28.8892 105.219 29.1222C105.677 29.3551 106.022 29.6818 106.255 30.1023C106.491 30.5199 106.609 31.0071 106.609 31.5639C106.609 32.1236 106.489 32.6094 106.251 33.0213C106.015 33.4304 105.667 33.7472 105.207 33.9716C104.746 34.1932 104.181 34.304 103.511 34.304H101.18V32.9915H103.298C103.69 32.9915 104.011 32.9375 104.261 32.8295C104.511 32.7187 104.695 32.5582 104.815 32.348C104.937 32.1349 104.998 31.8736 104.998 31.5639C104.998 31.2543 104.937 30.9901 104.815 30.7713C104.692 30.5497 104.506 30.3821 104.256 30.2685C104.006 30.152 103.684 30.0938 103.289 30.0938H101.84V37.5H100.259ZM104.768 33.5455L106.928 37.5H105.164L103.042 33.5455H104.768ZM115.236 28.7727V37.5H113.83L109.717 31.5554H109.645V37.5H108.064V28.7727H109.479L113.587 34.7216H113.663V28.7727H115.236ZM118.079 37.5H116.392L119.464 28.7727H121.416L124.493 37.5H122.805L120.474 30.5625H120.406L118.079 37.5ZM118.135 34.0781H122.737V35.348H118.135V34.0781ZM124.204 30.098V28.7727H131.167V30.098H128.469V37.5H126.901V30.098H124.204ZM134.09 28.7727V37.5H132.509V28.7727H134.09ZM143.6 33.1364C143.6 34.0767 143.424 34.8821 143.072 35.5526C142.723 36.2202 142.245 36.7315 141.64 37.0866C141.038 37.4418 140.355 37.6193 139.591 37.6193C138.826 37.6193 138.142 37.4418 137.537 37.0866C136.934 36.7287 136.457 36.2159 136.105 35.5483C135.755 34.8778 135.581 34.0739 135.581 33.1364C135.581 32.196 135.755 31.392 136.105 30.7244C136.457 30.054 136.934 29.5412 137.537 29.1861C138.142 28.831 138.826 28.6534 139.591 28.6534C140.355 28.6534 141.038 28.831 141.64 29.1861C142.245 29.5412 142.723 30.054 143.072 30.7244C143.424 31.392 143.6 32.196 143.6 33.1364ZM142.011 33.1364C142.011 32.4744 141.907 31.9162 141.7 31.4616C141.495 31.0043 141.211 30.6591 140.848 30.4261C140.484 30.1903 140.065 30.0724 139.591 30.0724C139.116 30.0724 138.697 30.1903 138.333 30.4261C137.97 30.6591 137.684 31.0043 137.477 31.4616C137.272 31.9162 137.17 32.4744 137.17 33.1364C137.17 33.7983 137.272 34.358 137.477 34.8153C137.684 35.2699 137.97 35.6151 138.333 35.8509C138.697 36.0838 139.116 36.2003 139.591 36.2003C140.065 36.2003 140.484 36.0838 140.848 35.8509C141.211 35.6151 141.495 35.2699 141.7 34.8153C141.907 34.358 142.011 33.7983 142.011 33.1364ZM152.267 28.7727V37.5H150.861L146.749 31.5554H146.676V37.5H145.095V28.7727H146.51L150.618 34.7216H150.695V28.7727H152.267ZM155.11 37.5H153.423L156.495 28.7727H158.447L161.524 37.5H159.836L157.505 30.5625H157.437L155.11 37.5ZM155.166 34.0781H159.768V35.348H155.166V34.0781ZM162.673 37.5V28.7727H164.254V36.1747H168.098V37.5H162.673ZM173.567 37.5H171.88L174.952 28.7727H176.904L179.981 37.5H178.293L175.962 30.5625H175.894L173.567 37.5ZM173.623 34.0781H178.225V35.348H173.623V34.0781ZM182.711 28.7727V37.5H181.13V28.7727H182.711ZM184.423 37.5V28.7727H187.696C188.366 28.7727 188.929 28.8892 189.384 29.1222C189.841 29.3551 190.186 29.6818 190.419 30.1023C190.655 30.5199 190.773 31.0071 190.773 31.5639C190.773 32.1236 190.653 32.6094 190.415 33.0213C190.179 33.4304 189.831 33.7472 189.371 33.9716C188.911 34.1932 188.345 34.304 187.675 34.304H185.344V32.9915H187.462C187.854 32.9915 188.175 32.9375 188.425 32.8295C188.675 32.7187 188.859 32.5582 188.979 32.348C189.101 32.1349 189.162 31.8736 189.162 31.5639C189.162 31.2543 189.101 30.9901 188.979 30.7713C188.857 30.5497 188.67 30.3821 188.42 30.2685C188.17 30.152 187.848 30.0938 187.453 30.0938H186.004V37.5H184.423ZM188.932 33.5455L191.092 37.5H189.328L187.206 33.5455H188.932ZM192.228 37.5V28.7727H195.501C196.171 28.7727 196.734 28.8977 197.188 29.1477C197.646 29.3977 197.991 29.7415 198.224 30.179C198.46 30.6136 198.577 31.108 198.577 31.6619C198.577 32.2216 198.46 32.7187 198.224 33.1534C197.988 33.5881 197.64 33.9304 197.18 34.1804C196.719 34.4276 196.153 34.5511 195.479 34.5511H193.31V33.2514H195.266C195.658 33.2514 195.979 33.1832 196.229 33.0469C196.479 32.9105 196.664 32.723 196.783 32.4844C196.906 32.2457 196.967 31.9716 196.967 31.6619C196.967 31.3523 196.906 31.0795 196.783 30.8438C196.664 30.608 196.478 30.4247 196.225 30.294C195.975 30.1605 195.653 30.0938 195.258 30.0938H193.809V37.5H192.228ZM207.749 33.1364C207.749 34.0767 207.573 34.8821 207.221 35.5526C206.871 36.2202 206.394 36.7315 205.789 37.0866C205.186 37.4418 204.503 37.6193 203.739 37.6193C202.975 37.6193 202.29 37.4418 201.685 37.0866C201.083 36.7287 200.605 36.2159 200.253 35.5483C199.904 34.8778 199.729 34.0739 199.729 33.1364C199.729 32.196 199.904 31.392 200.253 30.7244C200.605 30.054 201.083 29.5412 201.685 29.1861C202.29 28.831 202.975 28.6534 203.739 28.6534C204.503 28.6534 205.186 28.831 205.789 29.1861C206.394 29.5412 206.871 30.054 207.221 30.7244C207.573 31.392 207.749 32.196 207.749 33.1364ZM206.159 33.1364C206.159 32.4744 206.056 31.9162 205.848 31.4616C205.644 31.0043 205.36 30.6591 204.996 30.4261C204.632 30.1903 204.213 30.0724 203.739 30.0724C203.265 30.0724 202.846 30.1903 202.482 30.4261C202.118 30.6591 201.833 31.0043 201.625 31.4616C201.421 31.9162 201.319 32.4744 201.319 33.1364C201.319 33.7983 201.421 34.358 201.625 34.8153C201.833 35.2699 202.118 35.6151 202.482 35.8509C202.846 36.0838 203.265 36.2003 203.739 36.2003C204.213 36.2003 204.632 36.0838 204.996 35.8509C205.36 35.6151 205.644 35.2699 205.848 34.8153C206.056 34.358 206.159 33.7983 206.159 33.1364ZM209.244 37.5V28.7727H212.516C213.187 28.7727 213.749 28.8892 214.204 29.1222C214.661 29.3551 215.006 29.6818 215.239 30.1023C215.475 30.5199 215.593 31.0071 215.593 31.5639C215.593 32.1236 215.474 32.6094 215.235 33.0213C214.999 33.4304 214.651 33.7472 214.191 33.9716C213.731 34.1932 213.165 34.304 212.495 34.304H210.164V32.9915H212.282C212.674 32.9915 212.995 32.9375 213.245 32.8295C213.495 32.7187 213.68 32.5582 213.799 32.348C213.921 32.1349 213.982 31.8736 213.982 31.5639C213.982 31.2543 213.921 30.9901 213.799 30.7713C213.677 30.5497 213.491 30.3821 213.241 30.2685C212.991 30.152 212.668 30.0938 212.273 30.0938H210.825V37.5H209.244ZM213.752 33.5455L215.913 37.5H214.148L212.026 33.5455H213.752ZM216.665 30.098V28.7727H223.628V30.098H220.93V37.5H219.362V30.098H216.665ZM229.713 31.1719C229.673 30.7997 229.506 30.5099 229.21 30.3026C228.918 30.0952 228.537 29.9915 228.068 29.9915C227.739 29.9915 227.456 30.0412 227.22 30.1406C226.984 30.2401 226.804 30.375 226.679 30.5455C226.554 30.7159 226.49 30.9105 226.487 31.1293C226.487 31.3111 226.528 31.4687 226.611 31.6023C226.696 31.7358 226.811 31.8494 226.956 31.9432C227.101 32.0341 227.261 32.1108 227.438 32.1733C227.614 32.2358 227.791 32.2884 227.97 32.331L228.788 32.5355C229.118 32.6122 229.435 32.7159 229.739 32.8466C230.045 32.9773 230.32 33.142 230.561 33.3409C230.805 33.5398 230.999 33.7798 231.141 34.0611C231.283 34.3423 231.354 34.6719 231.354 35.0497C231.354 35.5611 231.223 36.0114 230.962 36.4006C230.7 36.7869 230.322 37.0895 229.828 37.3082C229.337 37.5241 228.741 37.6321 228.043 37.6321C227.364 37.6321 226.774 37.527 226.274 37.3168C225.777 37.1065 225.388 36.7997 225.107 36.3963C224.828 35.9929 224.678 35.5014 224.655 34.9219H226.21C226.233 35.2259 226.327 35.4787 226.491 35.6804C226.656 35.8821 226.871 36.0327 227.135 36.1321C227.402 36.2315 227.7 36.2812 228.03 36.2812C228.374 36.2812 228.675 36.2301 228.933 36.1278C229.195 36.0227 229.399 35.8778 229.547 35.6932C229.695 35.5057 229.77 35.2869 229.773 35.0369C229.77 34.8097 229.703 34.6222 229.572 34.4744C229.442 34.3239 229.259 34.1989 229.023 34.0994C228.79 33.9972 228.517 33.9062 228.205 33.8267L227.212 33.571C226.493 33.3864 225.925 33.1065 225.507 32.7315C225.092 32.3537 224.885 31.8523 224.885 31.2273C224.885 30.7131 225.024 30.2628 225.303 29.8764C225.584 29.4901 225.966 29.1903 226.449 28.9773C226.932 28.7614 227.479 28.6534 228.089 28.6534C228.709 28.6534 229.251 28.7614 229.717 28.9773C230.186 29.1903 230.554 29.4872 230.821 29.8679C231.088 30.2457 231.226 30.6804 231.234 31.1719H229.713Z" fill="white"/>
<path d="M79.9773 44.7727V53.5H78.9545L74.1989 46.6477H74.1136V53.5H73.0568V44.7727H74.0795L78.8523 51.642H78.9375V44.7727H79.9773ZM84.6999 53.6364C84.0692 53.6364 83.5252 53.4972 83.0678 53.2188C82.6133 52.9375 82.2624 52.5455 82.0153 52.0426C81.771 51.5369 81.6488 50.9489 81.6488 50.2784C81.6488 49.608 81.771 49.017 82.0153 48.5057C82.2624 47.9915 82.6062 47.5909 83.0465 47.304C83.4897 47.0142 84.0067 46.8693 84.5977 46.8693C84.9386 46.8693 85.2752 46.9261 85.6076 47.0398C85.94 47.1534 86.2425 47.3381 86.5153 47.5938C86.788 47.8466 87.0053 48.1818 87.1673 48.5994C87.3292 49.017 87.4102 49.5312 87.4102 50.142V50.5682H82.3647V49.6989H86.3874C86.3874 49.3295 86.3136 49 86.1658 48.7102C86.021 48.4205 85.8136 48.1918 85.5437 48.0241C85.2766 47.8565 84.9613 47.7727 84.5977 47.7727C84.1971 47.7727 83.8505 47.8722 83.5579 48.071C83.2681 48.267 83.0451 48.5227 82.8888 48.8381C82.7326 49.1534 82.6545 49.4915 82.6545 49.8523V50.4318C82.6545 50.9261 82.7397 51.3452 82.9102 51.6889C83.0835 52.0298 83.3235 52.2898 83.6303 52.4688C83.9371 52.6449 84.2937 52.733 84.6999 52.733C84.9641 52.733 85.2028 52.696 85.4158 52.6222C85.6317 52.5455 85.8178 52.4318 85.9741 52.2812C86.1303 52.1278 86.2511 51.9375 86.3363 51.7102L87.3079 51.983C87.2056 52.3125 87.0337 52.6023 86.7923 52.8523C86.5508 53.0994 86.2525 53.2926 85.8974 53.4318C85.5423 53.5682 85.1431 53.6364 84.6999 53.6364ZM91.5991 53.6364C91.0082 53.6364 90.4897 53.4957 90.0437 53.2145C89.6005 52.9332 89.2539 52.5398 89.0039 52.0341C88.7567 51.5284 88.6332 50.9375 88.6332 50.2614C88.6332 49.5795 88.7567 48.9844 89.0039 48.4759C89.2539 47.9673 89.6005 47.5724 90.0437 47.2912C90.4897 47.0099 91.0082 46.8693 91.5991 46.8693C92.19 46.8693 92.707 47.0099 93.1502 47.2912C93.5962 47.5724 93.9428 47.9673 94.19 48.4759C94.44 48.9844 94.565 49.5795 94.565 50.2614C94.565 50.9375 94.44 51.5284 94.19 52.0341C93.9428 52.5398 93.5962 52.9332 93.1502 53.2145C92.707 53.4957 92.19 53.6364 91.5991 53.6364ZM91.5991 52.733C92.0479 52.733 92.4173 52.6179 92.707 52.3878C92.9968 52.1577 93.2113 51.8551 93.3505 51.4801C93.4897 51.1051 93.5593 50.6989 93.5593 50.2614C93.5593 49.8239 93.4897 49.4162 93.3505 49.0384C93.2113 48.6605 92.9968 48.3551 92.707 48.1222C92.4173 47.8892 92.0479 47.7727 91.5991 47.7727C91.1502 47.7727 90.7809 47.8892 90.4911 48.1222C90.2013 48.3551 89.9869 48.6605 89.8477 49.0384C89.7085 49.4162 89.6388 49.8239 89.6388 50.2614C89.6388 50.6989 89.7085 51.1051 89.8477 51.4801C89.9869 51.8551 90.2013 52.1577 90.4911 52.3878C90.7809 52.6179 91.1502 52.733 91.5991 52.733ZM96.1001 53.5V46.9545H97.0717V47.9773H97.157C97.2933 47.6278 97.5135 47.3565 97.8175 47.1634C98.1214 46.9673 98.4865 46.8693 98.9126 46.8693C99.3445 46.8693 99.7038 46.9673 99.9908 47.1634C100.281 47.3565 100.506 47.6278 100.668 47.9773H100.737C100.904 47.6392 101.156 47.3707 101.491 47.1719C101.826 46.9702 102.228 46.8693 102.697 46.8693C103.282 46.8693 103.761 47.0526 104.133 47.419C104.505 47.7827 104.691 48.3494 104.691 49.1193V53.5H103.685V49.1193C103.685 48.6364 103.553 48.2912 103.289 48.0838C103.025 47.8764 102.714 47.7727 102.356 47.7727C101.896 47.7727 101.539 47.9119 101.286 48.1903C101.033 48.4659 100.907 48.8153 100.907 49.2386V53.5H99.8842V49.017C99.8842 48.6449 99.7635 48.3452 99.522 48.1179C99.2805 47.8878 98.9695 47.7727 98.5888 47.7727C98.3274 47.7727 98.0831 47.8423 97.8558 47.9815C97.6314 48.1207 97.4496 48.3139 97.3104 48.5611C97.174 48.8054 97.1058 49.0881 97.1058 49.4091V53.5H96.1001ZM119.74 44.3636L116.928 54.8125H116.007L118.82 44.3636H119.74ZM130.716 45.7102V44.7727H137.262V45.7102H134.517V53.5H133.461V45.7102H130.716ZM139.792 53.6534C139.377 53.6534 139.001 53.5753 138.663 53.419C138.325 53.2599 138.056 53.0312 137.857 52.733C137.658 52.4318 137.559 52.0682 137.559 51.642C137.559 51.267 137.633 50.9631 137.781 50.7301C137.928 50.4943 138.126 50.3097 138.373 50.1761C138.62 50.0426 138.893 49.9432 139.191 49.8778C139.492 49.8097 139.795 49.7557 140.099 49.7159C140.496 49.6648 140.819 49.6264 141.066 49.6009C141.316 49.5724 141.498 49.5256 141.612 49.4602C141.728 49.3949 141.786 49.2812 141.786 49.1193V49.0852C141.786 48.6648 141.671 48.3381 141.441 48.1051C141.214 47.8722 140.869 47.7557 140.406 47.7557C139.925 47.7557 139.549 47.8608 139.276 48.071C139.004 48.2812 138.812 48.5057 138.701 48.7443L137.746 48.4034C137.917 48.0057 138.144 47.696 138.428 47.4744C138.715 47.25 139.028 47.0937 139.366 47.0057C139.707 46.9148 140.042 46.8693 140.371 46.8693C140.582 46.8693 140.823 46.8949 141.096 46.946C141.371 46.9943 141.637 47.0952 141.893 47.2486C142.151 47.402 142.366 47.6335 142.536 47.9432C142.707 48.2528 142.792 48.6676 142.792 49.1875V53.5H141.786V52.6136H141.735C141.667 52.7557 141.553 52.9077 141.394 53.0696C141.235 53.2315 141.023 53.3693 140.759 53.483C140.495 53.5966 140.173 53.6534 139.792 53.6534ZM139.945 52.75C140.343 52.75 140.678 52.6719 140.951 52.5156C141.227 52.3594 141.434 52.1577 141.573 51.9105C141.715 51.6634 141.786 51.4034 141.786 51.1307V50.2102C141.744 50.2614 141.65 50.3082 141.505 50.3509C141.363 50.3906 141.198 50.4261 141.011 50.4574C140.826 50.4858 140.646 50.5114 140.469 50.5341C140.296 50.554 140.156 50.571 140.048 50.5852C139.786 50.6193 139.542 50.6747 139.315 50.7514C139.09 50.8253 138.908 50.9375 138.769 51.0881C138.633 51.2358 138.565 51.4375 138.565 51.6932C138.565 52.0426 138.694 52.3068 138.952 52.4858C139.214 52.6619 139.545 52.75 139.945 52.75ZM144.764 53.5V44.7727H145.77V47.9943H145.855C145.929 47.8807 146.031 47.7358 146.162 47.5597C146.295 47.3807 146.485 47.2216 146.733 47.0824C146.983 46.9403 147.321 46.8693 147.747 46.8693C148.298 46.8693 148.784 47.0071 149.204 47.2827C149.625 47.5582 149.953 47.9489 150.189 48.4545C150.424 48.9602 150.542 49.5568 150.542 50.2443C150.542 50.9375 150.424 51.5384 150.189 52.0469C149.953 52.5526 149.626 52.9446 149.208 53.223C148.791 53.4986 148.309 53.6364 147.764 53.6364C147.343 53.6364 147.007 53.5668 146.754 53.4276C146.501 53.2855 146.306 53.125 146.17 52.946C146.034 52.7642 145.929 52.6136 145.855 52.4943H145.735V53.5H144.764ZM145.752 50.2273C145.752 50.7216 145.825 51.1577 145.97 51.5355C146.115 51.9105 146.326 52.2045 146.605 52.4176C146.883 52.6278 147.224 52.733 147.627 52.733C148.048 52.733 148.399 52.6222 148.68 52.4006C148.964 52.1761 149.177 51.875 149.319 51.4972C149.464 51.1165 149.537 50.6932 149.537 50.2273C149.537 49.767 149.466 49.3523 149.324 48.983C149.184 48.6108 148.973 48.3168 148.689 48.1009C148.407 47.8821 148.054 47.7727 147.627 47.7727C147.218 47.7727 146.875 47.8764 146.596 48.0838C146.318 48.2884 146.108 48.5753 145.966 48.9446C145.824 49.3111 145.752 49.7386 145.752 50.2273ZM156.206 50.8239V46.9545H157.211V53.5H156.206V52.392H156.137C155.984 52.7244 155.745 53.0071 155.422 53.2401C155.098 53.4702 154.689 53.5852 154.194 53.5852C153.785 53.5852 153.422 53.4957 153.103 53.3168C152.785 53.1349 152.535 52.8622 152.353 52.4986C152.172 52.1321 152.081 51.6705 152.081 51.1136V46.9545H153.086V51.0455C153.086 51.5227 153.22 51.9034 153.487 52.1875C153.757 52.4716 154.1 52.6136 154.518 52.6136C154.768 52.6136 155.022 52.5497 155.281 52.4219C155.542 52.294 155.761 52.098 155.937 51.8338C156.116 51.5696 156.206 51.233 156.206 50.8239ZM159.991 51.1136L159.974 49.8693H160.178L163.042 46.9545H164.286L161.235 50.0398H161.15L159.991 51.1136ZM159.053 53.5V44.7727H160.059V53.5H159.053ZM163.212 53.5L160.656 50.2614L161.371 49.5625L164.491 53.5H163.212ZM178.791 44.3636L175.978 54.8125H175.058L177.87 44.3636H178.791ZM190.602 53.5H189.494L192.699 44.7727H193.79L196.994 53.5H195.886L193.278 46.1534H193.21L190.602 53.5ZM191.011 50.0909H195.477V51.0284H191.011V50.0909ZM202.683 55.9545V52.4943H202.598C202.524 52.6136 202.419 52.7642 202.283 52.946C202.146 53.125 201.952 53.2855 201.699 53.4276C201.446 53.5668 201.109 53.6364 200.689 53.6364C200.143 53.6364 199.662 53.4986 199.244 53.223C198.827 52.9446 198.5 52.5526 198.264 52.0469C198.028 51.5384 197.911 50.9375 197.911 50.2443C197.911 49.5568 198.028 48.9602 198.264 48.4545C198.5 47.9489 198.828 47.5582 199.249 47.2827C199.669 47.0071 200.155 46.8693 200.706 46.8693C201.132 46.8693 201.469 46.9403 201.716 47.0824C201.966 47.2216 202.156 47.3807 202.287 47.5597C202.42 47.7358 202.524 47.8807 202.598 47.9943H202.717V46.9545H203.689V55.9545H202.683ZM200.825 52.733C201.229 52.733 201.57 52.6278 201.848 52.4176C202.126 52.2045 202.338 51.9105 202.483 51.5355C202.628 51.1577 202.7 50.7216 202.7 50.2273C202.7 49.7386 202.629 49.3111 202.487 48.9446C202.345 48.5753 202.135 48.2884 201.857 48.0838C201.578 47.8764 201.234 47.7727 200.825 47.7727C200.399 47.7727 200.044 47.8821 199.76 48.1009C199.479 48.3168 199.267 48.6108 199.125 48.983C198.986 49.3523 198.916 49.767 198.916 50.2273C198.916 50.6932 198.987 51.1165 199.129 51.4972C199.274 51.875 199.487 52.1761 199.768 52.4006C200.053 52.6222 200.405 52.733 200.825 52.733ZM209.655 50.8239V46.9545H210.661V53.5H209.655V52.392H209.587C209.433 52.7244 209.195 53.0071 208.871 53.2401C208.547 53.4702 208.138 53.5852 207.643 53.5852C207.234 53.5852 206.871 53.4957 206.553 53.3168C206.234 53.1349 205.984 52.8622 205.803 52.4986C205.621 52.1321 205.53 51.6705 205.53 51.1136V46.9545H206.536V51.0455C206.536 51.5227 206.669 51.9034 206.936 52.1875C207.206 52.4716 207.55 52.6136 207.967 52.6136C208.217 52.6136 208.472 52.5497 208.73 52.4219C208.991 52.294 209.21 52.098 209.386 51.8338C209.565 51.5696 209.655 51.233 209.655 50.8239ZM214.429 53.6534C214.014 53.6534 213.637 53.5753 213.299 53.419C212.961 53.2599 212.693 53.0312 212.494 52.733C212.295 52.4318 212.196 52.0682 212.196 51.642C212.196 51.267 212.27 50.9631 212.417 50.7301C212.565 50.4943 212.762 50.3097 213.01 50.1761C213.257 50.0426 213.529 49.9432 213.828 49.8778C214.129 49.8097 214.431 49.7557 214.735 49.7159C215.133 49.6648 215.456 49.6264 215.703 49.6009C215.953 49.5724 216.135 49.5256 216.248 49.4602C216.365 49.3949 216.423 49.2812 216.423 49.1193V49.0852C216.423 48.6648 216.308 48.3381 216.078 48.1051C215.85 47.8722 215.505 47.7557 215.042 47.7557C214.562 47.7557 214.186 47.8608 213.913 48.071C213.64 48.2812 213.449 48.5057 213.338 48.7443L212.383 48.4034C212.554 48.0057 212.781 47.696 213.065 47.4744C213.352 47.25 213.664 47.0937 214.002 47.0057C214.343 46.9148 214.679 46.8693 215.008 46.8693C215.218 46.8693 215.46 46.8949 215.733 46.946C216.008 46.9943 216.274 47.0952 216.529 47.2486C216.788 47.402 217.002 47.6335 217.173 47.9432C217.343 48.2528 217.429 48.6676 217.429 49.1875V53.5H216.423V52.6136H216.372C216.304 52.7557 216.19 52.9077 216.031 53.0696C215.872 53.2315 215.66 53.3693 215.396 53.483C215.132 53.5966 214.809 53.6534 214.429 53.6534ZM214.582 52.75C214.98 52.75 215.315 52.6719 215.588 52.5156C215.863 52.3594 216.071 52.1577 216.21 51.9105C216.352 51.6634 216.423 51.4034 216.423 51.1307V50.2102C216.38 50.2614 216.287 50.3082 216.142 50.3509C216 50.3906 215.835 50.4261 215.647 50.4574C215.463 50.4858 215.282 50.5114 215.106 50.5341C214.933 50.554 214.792 50.571 214.684 50.5852C214.423 50.6193 214.179 50.6747 213.951 50.7514C213.727 50.8253 213.545 50.9375 213.406 51.0881C213.27 51.2358 213.201 51.4375 213.201 51.6932C213.201 52.0426 213.331 52.3068 213.589 52.4858C213.85 52.6619 214.181 52.75 214.582 52.75ZM219.401 53.5V44.7727H220.406V47.9943H220.491C220.565 47.8807 220.668 47.7358 220.798 47.5597C220.932 47.3807 221.122 47.2216 221.369 47.0824C221.619 46.9403 221.957 46.8693 222.384 46.8693C222.935 46.8693 223.42 47.0071 223.841 47.2827C224.261 47.5582 224.589 47.9489 224.825 48.4545C225.061 48.9602 225.179 49.5568 225.179 50.2443C225.179 50.9375 225.061 51.5384 224.825 52.0469C224.589 52.5526 224.263 52.9446 223.845 53.223C223.428 53.4986 222.946 53.6364 222.401 53.6364C221.98 53.6364 221.643 53.5668 221.391 53.4276C221.138 53.2855 220.943 53.125 220.807 52.946C220.67 52.7642 220.565 52.6136 220.491 52.4943H220.372V53.5H219.401ZM220.389 50.2273C220.389 50.7216 220.462 51.1577 220.607 51.5355C220.751 51.9105 220.963 52.2045 221.241 52.4176C221.52 52.6278 221.861 52.733 222.264 52.733C222.685 52.733 223.036 52.6222 223.317 52.4006C223.601 52.1761 223.814 51.875 223.956 51.4972C224.101 51.1165 224.173 50.6932 224.173 50.2273C224.173 49.767 224.102 49.3523 223.96 48.983C223.821 48.6108 223.609 48.3168 223.325 48.1009C223.044 47.8821 222.69 47.7727 222.264 47.7727C221.855 47.7727 221.511 47.8764 221.233 48.0838C220.955 48.2884 220.744 48.5753 220.602 48.9446C220.46 49.3111 220.389 49.7386 220.389 50.2273ZM228.643 53.6534C228.229 53.6534 227.852 53.5753 227.514 53.419C227.176 53.2599 226.908 53.0312 226.709 52.733C226.51 52.4318 226.411 52.0682 226.411 51.642C226.411 51.267 226.484 50.9631 226.632 50.7301C226.78 50.4943 226.977 50.3097 227.224 50.1761C227.472 50.0426 227.744 49.9432 228.043 49.8778C228.344 49.8097 228.646 49.7557 228.95 49.7159C229.348 49.6648 229.67 49.6264 229.918 49.6009C230.168 49.5724 230.349 49.5256 230.463 49.4602C230.58 49.3949 230.638 49.2812 230.638 49.1193V49.0852C230.638 48.6648 230.523 48.3381 230.293 48.1051C230.065 47.8722 229.72 47.7557 229.257 47.7557C228.777 47.7557 228.401 47.8608 228.128 48.071C227.855 48.2812 227.663 48.5057 227.553 48.7443L226.598 48.4034C226.768 48.0057 226.996 47.696 227.28 47.4744C227.567 47.25 227.879 47.0937 228.217 47.0057C228.558 46.9148 228.893 46.8693 229.223 46.8693C229.433 46.8693 229.675 46.8949 229.947 46.946C230.223 46.9943 230.489 47.0952 230.744 47.2486C231.003 47.402 231.217 47.6335 231.388 47.9432C231.558 48.2528 231.643 48.6676 231.643 49.1875V53.5H230.638V52.6136H230.587C230.518 52.7557 230.405 52.9077 230.246 53.0696C230.087 53.2315 229.875 53.3693 229.611 53.483C229.347 53.5966 229.024 53.6534 228.643 53.6534ZM228.797 52.75C229.195 52.75 229.53 52.6719 229.803 52.5156C230.078 52.3594 230.286 52.1577 230.425 51.9105C230.567 51.6634 230.638 51.4034 230.638 51.1307V50.2102C230.595 50.2614 230.501 50.3082 230.357 50.3509C230.214 50.3906 230.05 50.4261 229.862 50.4574C229.678 50.4858 229.497 50.5114 229.321 50.5341C229.148 50.554 229.007 50.571 228.899 50.5852C228.638 50.6193 228.393 50.6747 228.166 50.7514C227.942 50.8253 227.76 50.9375 227.621 51.0881C227.484 51.2358 227.416 51.4375 227.416 51.6932C227.416 52.0426 227.545 52.3068 227.804 52.4858C228.065 52.6619 228.396 52.75 228.797 52.75Z" fill="#B9BCBE"/>
</g>
<defs>
<filter id="filter0_dd_13_760" x="0" y="0" width="262" height="95" filterUnits="userSpaceOnUse" color-interpolation-filters="sRGB">
<feFlood flood-opacity="0" result="BackgroundImageFix"/>
<feColorMatrix in="SourceAlpha" type="matrix" values="0 0 0 0 0 0 0 0 0 0 0 0 0 0 0 0 0 0 127 0" result="hardAlpha"/>
<feMorphology radius="12" operator="erode" in="SourceAlpha" result="effect1_dropShadow_13_760"/>
<feOffset dy="20"/>
<feGaussianBlur stdDeviation="9"/>
<feComposite in2="hardAlpha" operator="out"/>
<feColorMatrix type="matrix" values="0 0 0 0 0.0352941 0 0 0 0 0.0470588 0 0 0 0 0.0745098 0 0 0 0.5 0"/>
<feBlend mode="normal" in2="BackgroundImageFix" result="effect1_dropShadow_13_760"/>
<feColorMatrix in="SourceAlpha" type="matrix" values="0 0 0 0 0 0 0 0 0 0 0 0 0 0 0 0 0 0 127 0" result="hardAlpha"/>
<feMorphology radius="24" operator="erode" in="SourceAlpha" result="effect2_dropShadow_13_760"/>
<feOffset dy="24"/>
<feGaussianBlur stdDeviation="6"/>
<feComposite in2="hardAlpha" operator="out"/>
<feColorMatrix type="matrix" values="0 0 0 0 0.0352941 0 0 0 0 0.0470588 0 0 0 0 0.0745098 0 0 0 1 0"/>
<feBlend mode="normal" in2="effect1_dropShadow_13_760" result="effect2_dropShadow_13_760"/>
<feBlend mode="normal" in="SourceGraphic" in2="effect2_dropShadow_13_760" result="shape"/>
</filter>
</defs>
</svg>
