<svg width="120" height="36" viewBox="0 0 120 36" fill="none" xmlns="http://www.w3.org/2000/svg">
<g clip-path="url(#clip0_13_762)">
<path d="M26.3487 16H24.6612L27.7337 7.27273H29.6854L32.7621 16H31.0746L28.7436 9.0625H28.6754L26.3487 16ZM26.4041 12.5781H31.0064V13.848H26.4041V12.5781ZM36.7528 13.0682H38.1847L39.0327 14.1676L39.6378 14.8835L41.0909 16.75H39.5568L38.5682 15.4972L38.1463 14.9006L36.7528 13.0682ZM41.2997 11.6364C41.2997 12.5767 41.1236 13.3821 40.7713 14.0526C40.4219 14.7202 39.9446 15.2315 39.3395 15.5866C38.7372 15.9418 38.054 16.1193 37.2898 16.1193C36.5256 16.1193 35.8409 15.9418 35.2358 15.5866C34.6335 15.2287 34.1563 14.7159 33.804 14.0483C33.4545 13.3778 33.2798 12.5739 33.2798 11.6364C33.2798 10.696 33.4545 9.89205 33.804 9.22443C34.1563 8.55398 34.6335 8.04119 35.2358 7.68608C35.8409 7.33097 36.5256 7.15341 37.2898 7.15341C38.054 7.15341 38.7372 7.33097 39.3395 7.68608C39.9446 8.04119 40.4219 8.55398 40.7713 9.22443C41.1236 9.89205 41.2997 10.696 41.2997 11.6364ZM39.7102 11.6364C39.7102 10.9744 39.6065 10.4162 39.3991 9.96165C39.1946 9.50426 38.9105 9.15909 38.5469 8.92614C38.1832 8.69034 37.7642 8.57244 37.2898 8.57244C36.8153 8.57244 36.3963 8.69034 36.0327 8.92614C35.669 9.15909 35.3835 9.50426 35.1761 9.96165C34.9716 10.4162 34.8693 10.9744 34.8693 11.6364C34.8693 12.2983 34.9716 12.858 35.1761 13.3153C35.3835 13.7699 35.669 14.1151 36.0327 14.3509C36.3963 14.5838 36.8153 14.7003 37.2898 14.7003C37.7642 14.7003 38.1832 14.5838 38.5469 14.3509C38.9105 14.1151 39.1946 13.7699 39.3991 13.3153C39.6065 12.858 39.7102 12.2983 39.7102 11.6364ZM48.3075 7.27273H49.8885V12.9744C49.8885 13.5994 49.7408 14.1491 49.4453 14.6236C49.1527 15.098 48.7408 15.4687 48.2095 15.7358C47.6783 16 47.0575 16.1321 46.3473 16.1321C45.6342 16.1321 45.0121 16 44.4808 15.7358C43.9496 15.4687 43.5376 15.098 43.245 14.6236C42.9524 14.1491 42.8061 13.5994 42.8061 12.9744V7.27273H44.3871V12.8423C44.3871 13.206 44.4666 13.5298 44.6257 13.8139C44.7876 14.098 45.0149 14.321 45.3075 14.483C45.6001 14.642 45.9467 14.7216 46.3473 14.7216C46.7479 14.7216 47.0945 14.642 47.3871 14.483C47.6825 14.321 47.9098 14.098 48.0689 13.8139C48.228 13.5298 48.3075 13.206 48.3075 12.8423V7.27273ZM52.7276 16H51.0401L54.1126 7.27273H56.0643L59.141 16H57.4535L55.1225 9.0625H55.0543L52.7276 16ZM52.783 12.5781H57.3853V13.848H52.783V12.5781ZM60.2905 16V7.27273H63.6314C64.2621 7.27273 64.7862 7.37216 65.2038 7.57102C65.6243 7.76705 65.9382 8.03551 66.1456 8.37642C66.3558 8.71733 66.4609 9.10369 66.4609 9.53551C66.4609 9.89062 66.3928 10.1946 66.2564 10.4474C66.12 10.6974 65.9368 10.9006 65.7067 11.0568C65.4766 11.2131 65.2195 11.3253 64.9354 11.3935V11.4787C65.245 11.4957 65.5419 11.5909 65.826 11.7642C66.1129 11.9347 66.3473 12.1761 66.5291 12.4886C66.7109 12.8011 66.8018 13.179 66.8018 13.6222C66.8018 14.0739 66.6925 14.4801 66.4737 14.8409C66.255 15.1989 65.9254 15.4815 65.4851 15.6889C65.0447 15.8963 64.4908 16 63.8232 16H60.2905ZM61.8714 14.679H63.5717C64.1456 14.679 64.5589 14.5696 64.8118 14.3509C65.0675 14.1293 65.1953 13.8452 65.1953 13.4986C65.1953 13.2401 65.1314 13.0071 65.0036 12.7997C64.8757 12.5895 64.6939 12.4247 64.4581 12.3054C64.2223 12.1832 63.9411 12.1222 63.6143 12.1222H61.8714V14.679ZM61.8714 10.9844H63.4354C63.7081 10.9844 63.9538 10.9347 64.1726 10.8352C64.3913 10.733 64.5632 10.5895 64.6882 10.4048C64.8161 10.2173 64.88 9.99574 64.88 9.74006C64.88 9.40199 64.7607 9.12358 64.522 8.90483C64.2862 8.68608 63.9354 8.5767 63.4695 8.5767H61.8714V10.9844ZM69.2979 16H67.6104L70.6829 7.27273H72.6346L75.7113 16H74.0238L71.6928 9.0625H71.6246L69.2979 16ZM69.3533 12.5781H73.9556V13.848H69.3533V12.5781ZM25.4581 28H23.7706L26.843 19.2727H28.7947L31.8714 28H30.1839L27.853 21.0625H27.7848L25.4581 28ZM25.5135 24.5781H30.1158V25.848H25.5135V24.5781ZM34.6019 19.2727V28H33.021V19.2727H34.6019ZM36.3139 28V19.2727H39.5866C40.2571 19.2727 40.8196 19.3892 41.2741 19.6222C41.7315 19.8551 42.0767 20.1818 42.3097 20.6023C42.5455 21.0199 42.6634 21.5071 42.6634 22.0639C42.6634 22.6236 42.544 23.1094 42.3054 23.5213C42.0696 23.9304 41.7216 24.2472 41.2614 24.4716C40.8011 24.6932 40.2358 24.804 39.5653 24.804H37.2344V23.4915H39.3523C39.7443 23.4915 40.0653 23.4375 40.3153 23.3295C40.5653 23.2187 40.75 23.0582 40.8693 22.848C40.9915 22.6349 41.0526 22.3736 41.0526 22.0639C41.0526 21.7543 40.9915 21.4901 40.8693 21.2713C40.7472 21.0497 40.5611 20.8821 40.3111 20.7685C40.0611 20.652 39.7386 20.5938 39.3438 20.5938H37.8949V28H36.3139ZM40.8224 24.0455L42.983 28H41.2188L39.0966 24.0455H40.8224ZM44.1186 28V19.2727H47.3913C48.0618 19.2727 48.6243 19.3977 49.0788 19.6477C49.5362 19.8977 49.8814 20.2415 50.1143 20.679C50.3501 21.1136 50.468 21.608 50.468 22.1619C50.468 22.7216 50.3501 23.2187 50.1143 23.6534C49.8786 24.0881 49.5305 24.4304 49.0703 24.6804C48.6101 24.9276 48.0433 25.0511 47.37 25.0511H45.201V23.7514H47.157C47.549 23.7514 47.87 23.6832 48.12 23.5469C48.37 23.4105 48.5547 23.223 48.674 22.9844C48.7962 22.7457 48.8572 22.4716 48.8572 22.1619C48.8572 21.8523 48.7962 21.5795 48.674 21.3438C48.5547 21.108 48.3686 20.9247 48.1158 20.794C47.8658 20.6605 47.5433 20.5938 47.1484 20.5938H45.6996V28H44.1186ZM59.6396 23.6364C59.6396 24.5767 59.4634 25.3821 59.1112 26.0526C58.7617 26.7202 58.2844 27.2315 57.6793 27.5866C57.0771 27.9418 56.3938 28.1193 55.6296 28.1193C54.8654 28.1193 54.1808 27.9418 53.5756 27.5866C52.9734 27.2287 52.4961 26.7159 52.1438 26.0483C51.7944 25.3778 51.6197 24.5739 51.6197 23.6364C51.6197 22.696 51.7944 21.892 52.1438 21.2244C52.4961 20.554 52.9734 20.0412 53.5756 19.6861C54.1808 19.331 54.8654 19.1534 55.6296 19.1534C56.3938 19.1534 57.0771 19.331 57.6793 19.6861C58.2844 20.0412 58.7617 20.554 59.1112 21.2244C59.4634 21.892 59.6396 22.696 59.6396 23.6364ZM58.0501 23.6364C58.0501 22.9744 57.9464 22.4162 57.739 21.9616C57.5344 21.5043 57.2504 21.1591 56.8867 20.9261C56.5231 20.6903 56.104 20.5724 55.6296 20.5724C55.1552 20.5724 54.7362 20.6903 54.3725 20.9261C54.0089 21.1591 53.7234 21.5043 53.516 21.9616C53.3114 22.4162 53.2092 22.9744 53.2092 23.6364C53.2092 24.2983 53.3114 24.858 53.516 25.3153C53.7234 25.7699 54.0089 26.1151 54.3725 26.3509C54.7362 26.5838 55.1552 26.7003 55.6296 26.7003C56.104 26.7003 56.5231 26.5838 56.8867 26.3509C57.2504 26.1151 57.5344 25.7699 57.739 25.3153C57.9464 24.858 58.0501 24.2983 58.0501 23.6364ZM61.1342 28V19.2727H64.407C65.0774 19.2727 65.6399 19.3892 66.0945 19.6222C66.5518 19.8551 66.897 20.1818 67.13 20.6023C67.3658 21.0199 67.4837 21.5071 67.4837 22.0639C67.4837 22.6236 67.3643 23.1094 67.1257 23.5213C66.8899 23.9304 66.5419 24.2472 66.0817 24.4716C65.6214 24.6932 65.0561 24.804 64.3857 24.804H62.0547V23.4915H64.1726C64.5646 23.4915 64.8857 23.4375 65.1357 23.3295C65.3857 23.2187 65.5703 23.0582 65.6896 22.848C65.8118 22.6349 65.8729 22.3736 65.8729 22.0639C65.8729 21.7543 65.8118 21.4901 65.6896 21.2713C65.5675 21.0497 65.3814 20.8821 65.1314 20.7685C64.8814 20.652 64.5589 20.5938 64.1641 20.5938H62.7152V28H61.1342ZM65.6428 24.0455L67.8033 28H66.0391L63.9169 24.0455H65.6428ZM68.5554 20.598V19.2727H75.5185V20.598H72.821V28H71.2528V20.598H68.5554Z" fill="white"/>
<rect x="84" width="36" height="36" rx="18" fill="#EA6F25"/>
<path d="M100.089 11.0869L99.4631 11.8345L93.5146 10.6268L93 11.6576L102.023 16.3912L98.5449 20.6162L95.0982 20.3596L94.699 21.1161L97.4004 22.4079L96.8903 23.4298C96.7395 23.7395 96.7129 23.918 96.8105 23.9651L96.8149 23.9607C96.8652 24.0551 97.0411 24.0167 97.3428 23.8457L98.3364 23.2838L99.7958 25.8896L100.528 25.4472L100.053 22.0318L104.072 18.3068L109.364 27L110.362 26.416L108.787 20.5763L109.502 19.9039C109.753 19.6709 109.818 19.4379 109.697 19.2049L109.058 18.3024C108.884 18.152 108.668 18.1682 108.41 18.3511L108.233 18.4926L107.364 15.2587L109.794 12.8697C110.966 11.7166 111.283 10.4867 110.748 9.18011L110.744 9.18453C109.404 8.72736 108.192 9.11968 107.106 10.3613L104.862 12.9272L101.579 12.2592L101.708 12.0734C101.879 11.805 101.884 11.5897 101.721 11.4275L100.776 10.848C100.537 10.7447 100.307 10.8243 100.089 11.0869Z" fill="white"/>
</g>
<defs>
<clipPath id="clip0_13_762">
<rect width="120" height="36" rx="18" fill="white"/>
</clipPath>
</defs>
</svg>
