<svg width="202" height="80" viewBox="0 0 202 80" fill="none" xmlns="http://www.w3.org/2000/svg">
<g filter="url(#filter0_dd_13_830)">
<rect width="190" height="54" transform="translate(6)" fill="#090C13"/>
<rect width="54" height="54" transform="translate(6)" fill="#EA6F25"/>
<path d="M45.9879 20.5018C45.9153 20.4324 45.8371 20.371 45.7633 20.3032H38.6489V20.3206C38.6501 21.4252 39.0892 22.4843 39.8697 23.2653C40.6502 24.0464 41.7085 24.4858 42.8123 24.487H49.8781C48.5926 23.0945 47.1386 21.6006 45.9879 20.5018Z" fill="white"/>
<path d="M13.7271 33.7069C13.7271 33.8033 13.7654 33.8958 13.8335 33.964C13.9017 34.0322 13.9942 34.0705 14.0906 34.0705H48.8846C49.6291 34.0813 50.3616 33.8827 50.9986 33.4973C51.6357 33.1119 52.1516 32.5552 52.4875 31.8907H13.7271V33.7069Z" fill="white"/>
<path d="M51.8832 26.748C51.6749 26.4993 51.439 26.2266 51.1901 25.9431H42.8123C41.3229 25.9414 39.895 25.3484 38.8418 24.2944C37.7887 23.2404 37.1963 21.8113 37.1945 20.3206V20.0847C37.195 19.7567 37.3254 19.4422 37.5572 19.2103C37.7889 18.9785 38.1031 18.848 38.4309 18.8477H43.8819C42.1237 17.6708 40.0623 17.0295 37.9473 17.0015H14.0906C13.9942 17.0015 13.9017 17.0398 13.8335 17.108C13.7654 17.1763 13.7271 17.2688 13.7271 17.3653V18.8477H21.9355C22.2691 18.8481 22.589 18.9809 22.8249 19.217C23.0607 19.4531 23.1934 19.7732 23.1938 20.1071V24.4915C23.1934 24.8254 23.0607 25.1455 22.8248 25.3816C22.5889 25.6176 22.2691 25.7505 21.9355 25.7509H13.7271V30.4352H52.9546C53.0466 29.7797 52.9987 29.1122 52.814 28.4766C52.6293 27.841 52.3121 27.2519 51.8832 26.748ZM35.9419 24.4915C35.9415 24.8254 35.8088 25.1455 35.5729 25.3816C35.337 25.6176 35.0172 25.7505 34.6836 25.7509H26.2509C25.9173 25.7505 25.5975 25.6176 25.3616 25.3816C25.1257 25.1455 24.993 24.8254 24.9926 24.4915V20.1071C24.993 19.7732 25.1257 19.4531 25.3616 19.217C25.5975 18.9809 25.9173 18.8481 26.2509 18.8477H34.6836C35.0172 18.8481 35.337 18.9809 35.5729 19.217C35.8088 19.4531 35.9415 19.7732 35.9419 20.1071V24.4915Z" fill="white"/>
<path d="M34.4874 20.3032H26.4468V24.2938H34.4874V20.3032Z" fill="white"/>
<path d="M21.7395 20.3032H13.7271V24.2938H21.7395V20.3032Z" fill="white"/>
<path d="M44.9972 36.9985H13.7272C13.5343 36.9985 13.3493 36.9219 13.213 36.7855C13.0766 36.6492 13 36.4642 13 36.2714C13 36.0785 13.0766 35.8935 13.213 35.7572C13.3493 35.6208 13.5343 35.5442 13.7272 35.5442H44.9972C45.1901 35.5442 45.375 35.6208 45.5114 35.7572C45.6478 35.8935 45.7244 36.0785 45.7244 36.2714C45.7244 36.4642 45.6478 36.6492 45.5114 36.7855C45.375 36.9219 45.1901 36.9985 44.9972 36.9985Z" fill="white"/>
<path d="M72.8608 23V14.2727H74.4418V17.9673H78.4858V14.2727H80.071V23H78.4858V19.2926H74.4418V23H72.8608ZM83.3714 14.2727V23H81.7905V14.2727H83.3714ZM90.93 17.0597C90.859 16.8295 90.761 16.6236 90.636 16.4418C90.5138 16.2571 90.3661 16.0994 90.1928 15.9688C90.0224 15.8381 89.8263 15.7401 89.6048 15.6747C89.3832 15.6065 89.1417 15.5724 88.8803 15.5724C88.4116 15.5724 87.994 15.6903 87.6275 15.9261C87.261 16.1619 86.9727 16.5085 86.7624 16.9659C86.555 17.4205 86.4513 17.9744 86.4513 18.6278C86.4513 19.2869 86.555 19.8452 86.7624 20.3026C86.9698 20.7599 87.2582 21.108 87.6275 21.3466C87.9968 21.5824 88.4258 21.7003 88.9144 21.7003C89.3576 21.7003 89.7411 21.6151 90.065 21.4446C90.3917 21.2741 90.6431 21.0327 90.8192 20.7202C90.9954 20.4048 91.0835 20.0355 91.0835 19.6122L91.4414 19.6676H89.0721V18.4318H92.6133V19.4801C92.6133 20.2273 92.4542 20.8736 92.136 21.419C91.8178 21.9645 91.3803 22.3849 90.8235 22.6804C90.2667 22.973 89.6275 23.1193 88.9059 23.1193C88.1019 23.1193 87.396 22.9389 86.788 22.5781C86.1829 22.2145 85.7099 21.6989 85.369 21.0312C85.0309 20.3608 84.8619 19.5653 84.8619 18.6449C84.8619 17.9403 84.9613 17.3111 85.1602 16.7571C85.3619 16.2031 85.6431 15.733 86.0039 15.3466C86.3647 14.9574 86.788 14.6619 87.2738 14.4602C87.7596 14.2557 88.288 14.1534 88.859 14.1534C89.342 14.1534 89.7923 14.2244 90.2099 14.3665C90.6275 14.5057 90.9982 14.7045 91.3221 14.9631C91.6488 15.2216 91.9173 15.5284 92.1275 15.8835C92.3377 16.2386 92.4755 16.6307 92.5408 17.0597H90.93ZM94.142 23V14.2727H95.723V17.9673H99.767V14.2727H101.352V23H99.767V19.2926H95.723V23H94.142ZM106.971 18.0014V19.2713H103.042V18.0014H106.971ZM113.404 16.6719C113.365 16.2997 113.197 16.0099 112.902 15.8026C112.609 15.5952 112.228 15.4915 111.76 15.4915C111.43 15.4915 111.147 15.5412 110.912 15.6406C110.676 15.7401 110.495 15.875 110.37 16.0455C110.245 16.2159 110.181 16.4105 110.179 16.6293C110.179 16.8111 110.22 16.9687 110.302 17.1023C110.387 17.2358 110.502 17.3494 110.647 17.4432C110.792 17.5341 110.953 17.6108 111.129 17.6733C111.305 17.7358 111.483 17.7884 111.662 17.831L112.48 18.0355C112.809 18.1122 113.126 18.2159 113.43 18.3466C113.737 18.4773 114.011 18.642 114.252 18.8409C114.497 19.0398 114.69 19.2798 114.832 19.5611C114.974 19.8423 115.045 20.1719 115.045 20.5497C115.045 21.0611 114.914 21.5114 114.653 21.9006C114.392 22.2869 114.014 22.5895 113.52 22.8082C113.028 23.0241 112.433 23.1321 111.734 23.1321C111.055 23.1321 110.466 23.027 109.966 22.8168C109.468 22.6065 109.079 22.2997 108.798 21.8963C108.52 21.4929 108.369 21.0014 108.346 20.4219H109.902C109.924 20.7259 110.018 20.9787 110.183 21.1804C110.348 21.3821 110.562 21.5327 110.826 21.6321C111.093 21.7315 111.392 21.7812 111.721 21.7812C112.065 21.7812 112.366 21.7301 112.625 21.6278C112.886 21.5227 113.091 21.3778 113.238 21.1932C113.386 21.0057 113.461 20.7869 113.464 20.5369C113.461 20.3097 113.395 20.1222 113.264 19.9744C113.133 19.8239 112.95 19.6989 112.714 19.5994C112.481 19.4972 112.208 19.4062 111.896 19.3267L110.903 19.071C110.184 18.8864 109.616 18.6065 109.199 18.2315C108.784 17.8537 108.576 17.3523 108.576 16.7273C108.576 16.2131 108.716 15.7628 108.994 15.3764C109.275 14.9901 109.657 14.6903 110.14 14.4773C110.623 14.2614 111.17 14.1534 111.781 14.1534C112.4 14.1534 112.943 14.2614 113.409 14.4773C113.877 14.6903 114.245 14.9872 114.512 15.3679C114.779 15.7457 114.917 16.1804 114.926 16.6719H113.404ZM116.455 23V14.2727H119.727C120.398 14.2727 120.96 14.3977 121.415 14.6477C121.872 14.8977 122.217 15.2415 122.45 15.679C122.686 16.1136 122.804 16.608 122.804 17.1619C122.804 17.7216 122.686 18.2187 122.45 18.6534C122.214 19.0881 121.866 19.4304 121.406 19.6804C120.946 19.9276 120.379 20.0511 119.706 20.0511H117.537V18.7514H119.493C119.885 18.7514 120.206 18.6832 120.456 18.5469C120.706 18.4105 120.891 18.223 121.01 17.9844C121.132 17.7457 121.193 17.4716 121.193 17.1619C121.193 16.8523 121.132 16.5795 121.01 16.3438C120.891 16.108 120.705 15.9247 120.452 15.794C120.202 15.6605 119.879 15.5938 119.484 15.5938H118.036V23H116.455ZM124.177 23V14.2727H129.853V15.598H125.758V17.9673H129.559V19.2926H125.758V21.6747H129.887V23H124.177ZM131.466 23V14.2727H137.142V15.598H133.047V17.9673H136.848V19.2926H133.047V21.6747H137.176V23H131.466ZM141.713 23H138.755V14.2727H141.772C142.639 14.2727 143.383 14.4474 144.005 14.7969C144.63 15.1435 145.11 15.642 145.446 16.2926C145.781 16.9432 145.949 17.7216 145.949 18.6278C145.949 19.5369 145.779 20.3182 145.441 20.9716C145.106 21.625 144.622 22.1264 143.988 22.4759C143.358 22.8253 142.599 23 141.713 23ZM140.336 21.6321H141.636C142.244 21.6321 142.751 21.5213 143.157 21.2997C143.564 21.0753 143.869 20.7415 144.074 20.2983C144.278 19.8523 144.38 19.2955 144.38 18.6278C144.38 17.9602 144.278 17.4062 144.074 16.9659C143.869 16.5227 143.566 16.1918 143.166 15.973C142.768 15.7514 142.274 15.6406 141.683 15.6406H140.336V21.6321ZM150.427 23V14.2727H153.7C154.37 14.2727 154.933 14.3892 155.387 14.6222C155.845 14.8551 156.19 15.1818 156.423 15.6023C156.659 16.0199 156.777 16.5071 156.777 17.0639C156.777 17.6236 156.657 18.1094 156.419 18.5213C156.183 18.9304 155.835 19.2472 155.375 19.4716C154.914 19.6932 154.349 19.804 153.679 19.804H151.348V18.4915H153.466C153.858 18.4915 154.179 18.4375 154.429 18.3295C154.679 18.2187 154.863 18.0582 154.983 17.848C155.105 17.6349 155.166 17.3736 155.166 17.0639C155.166 16.7543 155.105 16.4901 154.983 16.2713C154.86 16.0497 154.674 15.8821 154.424 15.7685C154.174 15.652 153.852 15.5938 153.457 15.5938H152.008V23H150.427ZM154.936 19.0455L157.096 23H155.332L153.21 19.0455H154.936ZM159.353 23H157.665L160.738 14.2727H162.689L165.766 23H164.078L161.748 16.0625H161.679L159.353 23ZM159.408 19.5781H164.01V20.848H159.408V19.5781ZM168.496 14.2727V23H166.915V14.2727H168.496ZM170.208 23V14.2727H171.789V21.6747H175.633V23H170.208Z" fill="white"/>
<path d="M80.4205 34.6364C80.4205 35.5568 80.2543 36.3523 79.9219 37.0227C79.5895 37.6932 79.1335 38.2102 78.554 38.5739C77.9744 38.9375 77.3125 39.1193 76.5682 39.1193C75.8239 39.1193 75.1619 38.9375 74.5824 38.5739C74.0028 38.2102 73.5469 37.6932 73.2145 37.0227C72.8821 36.3523 72.7159 35.5568 72.7159 34.6364C72.7159 33.7159 72.8821 32.9205 73.2145 32.25C73.5469 31.5795 74.0028 31.0625 74.5824 30.6989C75.1619 30.3352 75.8239 30.1534 76.5682 30.1534C77.3125 30.1534 77.9744 30.3352 78.554 30.6989C79.1335 31.0625 79.5895 31.5795 79.9219 32.25C80.2543 32.9205 80.4205 33.7159 80.4205 34.6364ZM79.3977 34.6364C79.3977 33.8807 79.2713 33.2429 79.0185 32.723C78.7685 32.2031 78.429 31.8097 78 31.5426C77.5739 31.2756 77.0966 31.142 76.5682 31.142C76.0398 31.142 75.5611 31.2756 75.1321 31.5426C74.706 31.8097 74.3665 32.2031 74.1136 32.723C73.8636 33.2429 73.7386 33.8807 73.7386 34.6364C73.7386 35.392 73.8636 36.0298 74.1136 36.5497C74.3665 37.0696 74.706 37.4631 75.1321 37.7301C75.5611 37.9972 76.0398 38.1307 76.5682 38.1307C77.0966 38.1307 77.5739 37.9972 78 37.7301C78.429 37.4631 78.7685 37.0696 79.0185 36.5497C79.2713 36.0298 79.3977 35.392 79.3977 34.6364ZM83.0668 35.0625V39H82.0611V32.4545H83.0327V33.4773H83.1179C83.2713 33.1449 83.5043 32.8778 83.8168 32.6761C84.1293 32.4716 84.5327 32.3693 85.027 32.3693C85.4702 32.3693 85.858 32.4602 86.1903 32.642C86.5227 32.821 86.7813 33.0938 86.9659 33.4602C87.1506 33.8239 87.2429 34.2841 87.2429 34.8409V39H86.2372V34.9091C86.2372 34.3949 86.1037 33.9943 85.8366 33.7074C85.5696 33.4176 85.2031 33.2727 84.7372 33.2727C84.4162 33.2727 84.1293 33.3423 83.8764 33.4815C83.6264 33.6207 83.429 33.8239 83.2841 34.0909C83.1392 34.358 83.0668 34.6818 83.0668 35.0625ZM93.4613 35.0625V39H92.4556V32.4545H93.4272V33.4773H93.5124C93.6658 33.1449 93.8988 32.8778 94.2113 32.6761C94.5238 32.4716 94.9272 32.3693 95.4215 32.3693C95.8647 32.3693 96.2525 32.4602 96.5849 32.642C96.9173 32.821 97.1758 33.0938 97.3604 33.4602C97.5451 33.8239 97.6374 34.2841 97.6374 34.8409V39H96.6317V34.9091C96.6317 34.3949 96.4982 33.9943 96.2312 33.7074C95.9641 33.4176 95.5977 33.2727 95.1317 33.2727C94.8107 33.2727 94.5238 33.3423 94.271 33.4815C94.021 33.6207 93.8235 33.8239 93.6786 34.0909C93.5337 34.358 93.4613 34.6818 93.4613 35.0625ZM102.219 39.1364C101.589 39.1364 101.045 38.9972 100.587 38.7188C100.133 38.4375 99.782 38.0455 99.5348 37.5426C99.2905 37.0369 99.1683 36.4489 99.1683 35.7784C99.1683 35.108 99.2905 34.517 99.5348 34.0057C99.782 33.4915 100.126 33.0909 100.566 32.804C101.009 32.5142 101.526 32.3693 102.117 32.3693C102.458 32.3693 102.795 32.4261 103.127 32.5398C103.46 32.6534 103.762 32.8381 104.035 33.0938C104.308 33.3466 104.525 33.6818 104.687 34.0994C104.849 34.517 104.93 35.0312 104.93 35.642V36.0682H99.8842V35.1989H103.907C103.907 34.8295 103.833 34.5 103.685 34.2102C103.54 33.9205 103.333 33.6918 103.063 33.5241C102.796 33.3565 102.481 33.2727 102.117 33.2727C101.717 33.2727 101.37 33.3722 101.077 33.571C100.788 33.767 100.565 34.0227 100.408 34.3381C100.252 34.6534 100.174 34.9915 100.174 35.3523V35.9318C100.174 36.4261 100.259 36.8452 100.43 37.1889C100.603 37.5298 100.843 37.7898 101.15 37.9688C101.457 38.1449 101.813 38.233 102.219 38.233C102.484 38.233 102.722 38.196 102.935 38.1222C103.151 38.0455 103.337 37.9318 103.494 37.7812C103.65 37.6278 103.771 37.4375 103.856 37.2102L104.827 37.483C104.725 37.8125 104.553 38.1023 104.312 38.3523C104.07 38.5994 103.772 38.7926 103.417 38.9318C103.062 39.0682 102.663 39.1364 102.219 39.1364ZM109.119 39.1364C108.528 39.1364 108.009 38.9957 107.563 38.7145C107.12 38.4332 106.773 38.0398 106.523 37.5341C106.276 37.0284 106.153 36.4375 106.153 35.7614C106.153 35.0795 106.276 34.4844 106.523 33.9759C106.773 33.4673 107.12 33.0724 107.563 32.7912C108.009 32.5099 108.528 32.3693 109.119 32.3693C109.71 32.3693 110.227 32.5099 110.67 32.7912C111.116 33.0724 111.462 33.4673 111.71 33.9759C111.96 34.4844 112.085 35.0795 112.085 35.7614C112.085 36.4375 111.96 37.0284 111.71 37.5341C111.462 38.0398 111.116 38.4332 110.67 38.7145C110.227 38.9957 109.71 39.1364 109.119 39.1364ZM109.119 38.233C109.567 38.233 109.937 38.1179 110.227 37.8878C110.516 37.6577 110.731 37.3551 110.87 36.9801C111.009 36.6051 111.079 36.1989 111.079 35.7614C111.079 35.3239 111.009 34.9162 110.87 34.5384C110.731 34.1605 110.516 33.8551 110.227 33.6222C109.937 33.3892 109.567 33.2727 109.119 33.2727C108.67 33.2727 108.3 33.3892 108.011 33.6222C107.721 33.8551 107.506 34.1605 107.367 34.5384C107.228 34.9162 107.158 35.3239 107.158 35.7614C107.158 36.1989 107.228 36.6051 107.367 36.9801C107.506 37.3551 107.721 37.6577 108.011 37.8878C108.3 38.1179 108.67 38.233 109.119 38.233ZM113.62 39V32.4545H114.591V33.4773H114.676C114.813 33.1278 115.033 32.8565 115.337 32.6634C115.641 32.4673 116.006 32.3693 116.432 32.3693C116.864 32.3693 117.223 32.4673 117.51 32.6634C117.8 32.8565 118.026 33.1278 118.188 33.4773H118.256C118.424 33.1392 118.675 32.8707 119.01 32.6719C119.346 32.4702 119.748 32.3693 120.216 32.3693C120.801 32.3693 121.28 32.5526 121.652 32.919C122.025 33.2827 122.211 33.8494 122.211 34.6193V39H121.205V34.6193C121.205 34.1364 121.073 33.7912 120.809 33.5838C120.544 33.3764 120.233 33.2727 119.875 33.2727C119.415 33.2727 119.059 33.4119 118.806 33.6903C118.553 33.9659 118.426 34.3153 118.426 34.7386V39H117.404V34.517C117.404 34.1449 117.283 33.8452 117.042 33.6179C116.8 33.3878 116.489 33.2727 116.108 33.2727C115.847 33.2727 115.603 33.3423 115.375 33.4815C115.151 33.6207 114.969 33.8139 114.83 34.0611C114.694 34.3054 114.625 34.5881 114.625 34.9091V39H113.62ZM124.919 30.2727V33.2727H123.981V30.2727H124.919ZM131.346 33.9205L130.442 34.1761C130.386 34.0256 130.302 33.8793 130.191 33.7372C130.083 33.5923 129.935 33.473 129.748 33.3793C129.56 33.2855 129.32 33.2386 129.028 33.2386C128.627 33.2386 128.293 33.331 128.026 33.5156C127.762 33.6974 127.63 33.929 127.63 34.2102C127.63 34.4602 127.721 34.6577 127.903 34.8026C128.085 34.9474 128.369 35.0682 128.755 35.1648L129.727 35.4034C130.312 35.5455 130.748 35.7628 131.035 36.0554C131.322 36.3452 131.465 36.7187 131.465 37.1761C131.465 37.5511 131.357 37.8864 131.141 38.1818C130.928 38.4773 130.63 38.7102 130.246 38.8807C129.863 39.0511 129.417 39.1364 128.908 39.1364C128.241 39.1364 127.688 38.9915 127.251 38.7017C126.813 38.4119 126.536 37.9886 126.42 37.4318L127.374 37.1932C127.465 37.5455 127.637 37.8097 127.89 37.9858C128.146 38.1619 128.479 38.25 128.891 38.25C129.36 38.25 129.732 38.1506 130.008 37.9517C130.286 37.75 130.425 37.5085 130.425 37.2273C130.425 37 130.346 36.8097 130.187 36.6562C130.028 36.5 129.783 36.3835 129.454 36.3068L128.363 36.0511C127.763 35.9091 127.323 35.6889 127.042 35.3906C126.763 35.0895 126.624 34.7131 126.624 34.2614C126.624 33.892 126.728 33.5653 126.935 33.2812C127.146 32.9972 127.431 32.7741 127.792 32.6122C128.156 32.4503 128.567 32.3693 129.028 32.3693C129.675 32.3693 130.184 32.5114 130.553 32.7955C130.925 33.0795 131.19 33.4545 131.346 33.9205ZM139.201 32.4545V33.3068H135.809V32.4545H139.201ZM136.797 30.8864H137.803V37.125C137.803 37.4091 137.844 37.6222 137.926 37.7642C138.012 37.9034 138.12 37.9972 138.25 38.0455C138.384 38.0909 138.525 38.1136 138.672 38.1136C138.783 38.1136 138.874 38.108 138.945 38.0966C139.016 38.0824 139.073 38.071 139.115 38.0625L139.32 38.9659C139.252 38.9915 139.157 39.017 139.034 39.0426C138.912 39.071 138.757 39.0852 138.57 39.0852C138.286 39.0852 138.007 39.0241 137.735 38.902C137.465 38.7798 137.24 38.5938 137.061 38.3438C136.885 38.0938 136.797 37.7784 136.797 37.3977V30.8864ZM141.86 35.0625V39H140.854V30.2727H141.86V33.4773H141.945C142.098 33.1392 142.328 32.8707 142.635 32.6719C142.945 32.4702 143.357 32.3693 143.871 32.3693C144.317 32.3693 144.708 32.4588 145.043 32.6378C145.378 32.8139 145.638 33.0852 145.823 33.4517C146.01 33.8153 146.104 34.2784 146.104 34.8409V39H145.098V34.9091C145.098 34.3892 144.963 33.9872 144.694 33.7031C144.426 33.4162 144.056 33.2727 143.581 33.2727C143.252 33.2727 142.956 33.3423 142.695 33.4815C142.436 33.6207 142.232 33.8239 142.081 34.0909C141.934 34.358 141.86 34.6818 141.86 35.0625ZM150.688 39.1364C150.058 39.1364 149.513 38.9972 149.056 38.7188C148.602 38.4375 148.251 38.0455 148.004 37.5426C147.759 37.0369 147.637 36.4489 147.637 35.7784C147.637 35.108 147.759 34.517 148.004 34.0057C148.251 33.4915 148.594 33.0909 149.035 32.804C149.478 32.5142 149.995 32.3693 150.586 32.3693C150.927 32.3693 151.263 32.4261 151.596 32.5398C151.928 32.6534 152.231 32.8381 152.504 33.0938C152.776 33.3466 152.994 33.6818 153.156 34.0994C153.317 34.517 153.398 35.0312 153.398 35.642V36.0682H148.353V35.1989H152.376C152.376 34.8295 152.302 34.5 152.154 34.2102C152.009 33.9205 151.802 33.6918 151.532 33.5241C151.265 33.3565 150.95 33.2727 150.586 33.2727C150.185 33.2727 149.839 33.3722 149.546 33.571C149.256 33.767 149.033 34.0227 148.877 34.3381C148.721 34.6534 148.643 34.9915 148.643 35.3523V35.9318C148.643 36.4261 148.728 36.8452 148.898 37.1889C149.072 37.5298 149.312 37.7898 149.619 37.9688C149.925 38.1449 150.282 38.233 150.688 38.233C150.952 38.233 151.191 38.196 151.404 38.1222C151.62 38.0455 151.806 37.9318 151.962 37.7812C152.119 37.6278 152.239 37.4375 152.325 37.2102L153.296 37.483C153.194 37.8125 153.022 38.1023 152.781 38.3523C152.539 38.5994 152.241 38.7926 151.886 38.9318C151.531 39.0682 151.131 39.1364 150.688 39.1364ZM159.309 30.2727V39H158.303V30.2727H159.309ZM161.151 39V32.4545H162.157V39H161.151ZM161.662 31.3636C161.466 31.3636 161.297 31.2969 161.155 31.1634C161.016 31.0298 160.946 30.8693 160.946 30.6818C160.946 30.4943 161.016 30.3338 161.155 30.2003C161.297 30.0668 161.466 30 161.662 30C161.858 30 162.026 30.0668 162.165 30.2003C162.307 30.3338 162.378 30.4943 162.378 30.6818C162.378 30.8693 162.307 31.0298 162.165 31.1634C162.026 31.2969 161.858 31.3636 161.662 31.3636ZM165.004 35.0625V39H163.999V32.4545H164.97V33.4773H165.055C165.209 33.1449 165.442 32.8778 165.754 32.6761C166.067 32.4716 166.47 32.3693 166.964 32.3693C167.408 32.3693 167.795 32.4602 168.128 32.642C168.46 32.821 168.719 33.0938 168.903 33.4602C169.088 33.8239 169.18 34.2841 169.18 34.8409V39H168.175V34.9091C168.175 34.3949 168.041 33.9943 167.774 33.7074C167.507 33.4176 167.141 33.2727 166.675 33.2727C166.354 33.2727 166.067 33.3423 165.814 33.4815C165.564 33.6207 165.366 33.8239 165.222 34.0909C165.077 34.358 165.004 34.6818 165.004 35.0625ZM173.762 39.1364C173.132 39.1364 172.588 38.9972 172.13 38.7188C171.676 38.4375 171.325 38.0455 171.078 37.5426C170.833 37.0369 170.711 36.4489 170.711 35.7784C170.711 35.108 170.833 34.517 171.078 34.0057C171.325 33.4915 171.669 33.0909 172.109 32.804C172.552 32.5142 173.069 32.3693 173.66 32.3693C174.001 32.3693 174.338 32.4261 174.67 32.5398C175.002 32.6534 175.305 32.8381 175.578 33.0938C175.85 33.3466 176.068 33.6818 176.23 34.0994C176.392 34.517 176.473 35.0312 176.473 35.642V36.0682H171.427V35.1989H175.45C175.45 34.8295 175.376 34.5 175.228 34.2102C175.083 33.9205 174.876 33.6918 174.606 33.5241C174.339 33.3565 174.024 33.2727 173.66 33.2727C173.26 33.2727 172.913 33.3722 172.62 33.571C172.331 33.767 172.108 34.0227 171.951 34.3381C171.795 34.6534 171.717 34.9915 171.717 35.3523V35.9318C171.717 36.4261 171.802 36.8452 171.973 37.1889C172.146 37.5298 172.386 37.7898 172.693 37.9688C173 38.1449 173.356 38.233 173.762 38.233C174.027 38.233 174.265 38.196 174.478 38.1222C174.694 38.0455 174.88 37.9318 175.037 37.7812C175.193 37.6278 175.314 37.4375 175.399 37.2102L176.37 37.483C176.268 37.8125 176.096 38.1023 175.855 38.3523C175.613 38.5994 175.315 38.7926 174.96 38.9318C174.605 39.0682 174.206 39.1364 173.762 39.1364Z" fill="#B9BCBE"/>
</g>
<defs>
<filter id="filter0_dd_13_830" x="0" y="0" width="202" height="80" filterUnits="userSpaceOnUse" color-interpolation-filters="sRGB">
<feFlood flood-opacity="0" result="BackgroundImageFix"/>
<feColorMatrix in="SourceAlpha" type="matrix" values="0 0 0 0 0 0 0 0 0 0 0 0 0 0 0 0 0 0 127 0" result="hardAlpha"/>
<feMorphology radius="12" operator="erode" in="SourceAlpha" result="effect1_dropShadow_13_830"/>
<feOffset dy="20"/>
<feGaussianBlur stdDeviation="9"/>
<feComposite in2="hardAlpha" operator="out"/>
<feColorMatrix type="matrix" values="0 0 0 0 0.0352941 0 0 0 0 0.0470588 0 0 0 0 0.0745098 0 0 0 0.5 0"/>
<feBlend mode="normal" in2="BackgroundImageFix" result="effect1_dropShadow_13_830"/>
<feColorMatrix in="SourceAlpha" type="matrix" values="0 0 0 0 0 0 0 0 0 0 0 0 0 0 0 0 0 0 127 0" result="hardAlpha"/>
<feMorphology radius="24" operator="erode" in="SourceAlpha" result="effect2_dropShadow_13_830"/>
<feOffset dy="24"/>
<feGaussianBlur stdDeviation="6"/>
<feComposite in2="hardAlpha" operator="out"/>
<feColorMatrix type="matrix" values="0 0 0 0 0.0352941 0 0 0 0 0.0470588 0 0 0 0 0.0745098 0 0 0 1 0"/>
<feBlend mode="normal" in2="effect1_dropShadow_13_830" result="effect2_dropShadow_13_830"/>
<feBlend mode="normal" in="SourceGraphic" in2="effect2_dropShadow_13_830" result="shape"/>
</filter>
</defs>
</svg>
