<svg width="189" height="69" viewBox="0 0 189 69" fill="none" xmlns="http://www.w3.org/2000/svg">
<g clip-path="url(#clip0_315_1884)">
<path d="M173.297 0.0537109H15.8359C7.55167 0.0537109 0.835938 6.76944 0.835938 15.0537V53.014C0.835938 61.2983 7.55167 68.014 15.8359 68.014H173.297C181.581 68.014 188.297 61.2983 188.297 53.014V15.0537C188.297 6.76944 181.581 0.0537109 173.297 0.0537109Z" fill="white"/>
<path d="M38.296 45V26.824H31.128V22.6H50.648V26.824H43.48V45H38.296ZM52.7103 45V27.784H57.4783V32.648L56.8063 31.24C57.3183 30.024 58.1396 29.1067 59.2703 28.488C60.4009 27.848 61.7769 27.528 63.3983 27.528V32.136C63.1849 32.1147 62.9929 32.104 62.8223 32.104C62.6516 32.0827 62.4703 32.072 62.2783 32.072C60.9129 32.072 59.8036 32.4667 58.9503 33.256C58.1183 34.024 57.7023 35.2293 57.7023 36.872V45H52.7103ZM74.4335 45.256C72.5988 45.256 70.9668 44.872 69.5375 44.104C68.1295 43.336 67.0095 42.2907 66.1775 40.968C65.3668 39.624 64.9615 38.0987 64.9615 36.392C64.9615 34.664 65.3668 33.1387 66.1775 31.816C67.0095 30.472 68.1295 29.4267 69.5375 28.68C70.9668 27.912 72.5988 27.528 74.4335 27.528C76.2468 27.528 77.8682 27.912 79.2975 28.68C80.7268 29.4267 81.8468 30.4613 82.6575 31.784C83.4682 33.1067 83.8735 34.6427 83.8735 36.392C83.8735 38.0987 83.4682 39.624 82.6575 40.968C81.8468 42.2907 80.7268 43.336 79.2975 44.104C77.8682 44.872 76.2468 45.256 74.4335 45.256ZM74.4335 41.16C75.2655 41.16 76.0122 40.968 76.6735 40.584C77.3348 40.2 77.8575 39.656 78.2415 38.952C78.6255 38.2267 78.8175 37.3733 78.8175 36.392C78.8175 35.3893 78.6255 34.536 78.2415 33.832C77.8575 33.128 77.3348 32.584 76.6735 32.2C76.0122 31.816 75.2655 31.624 74.4335 31.624C73.6015 31.624 72.8548 31.816 72.1935 32.2C71.5322 32.584 70.9988 33.128 70.5935 33.832C70.2095 34.536 70.0175 35.3893 70.0175 36.392C70.0175 37.3733 70.2095 38.2267 70.5935 38.952C70.9988 39.656 71.5322 40.2 72.1935 40.584C72.8548 40.968 73.6015 41.16 74.4335 41.16ZM85.9303 51.464C85.1623 51.464 84.4262 51.3787 83.7222 51.208C83.0182 51.0587 82.4209 50.824 81.9302 50.504L83.2742 46.888C83.8502 47.2933 84.5543 47.496 85.3863 47.496C86.0049 47.496 86.4956 47.2827 86.8583 46.856C87.2423 46.4507 87.4343 45.832 87.4343 45V27.784H92.4263V44.968C92.4263 46.952 91.8609 48.5307 90.7303 49.704C89.5996 50.8773 87.9996 51.464 85.9303 51.464ZM89.9303 25.384C89.0129 25.384 88.2663 25.1173 87.6903 24.584C87.1143 24.0507 86.8263 23.3893 86.8263 22.6C86.8263 21.8107 87.1143 21.1493 87.6903 20.616C88.2663 20.0827 89.0129 19.816 89.9303 19.816C90.8476 19.816 91.5943 20.072 92.1703 20.584C92.7463 21.0747 93.0343 21.7147 93.0343 22.504C93.0343 23.336 92.7463 24.0293 92.1703 24.584C91.6156 25.1173 90.8689 25.384 89.9303 25.384ZM105.567 45.256C103.604 45.256 101.876 44.872 100.383 44.104C98.9108 43.336 97.7694 42.2907 96.9588 40.968C96.1481 39.624 95.7428 38.0987 95.7428 36.392C95.7428 34.664 96.1374 33.1387 96.9268 31.816C97.7374 30.472 98.8361 29.4267 100.223 28.68C101.609 27.912 103.177 27.528 104.927 27.528C106.612 27.528 108.127 27.8907 109.471 28.616C110.836 29.32 111.913 30.344 112.703 31.688C113.492 33.0107 113.887 34.6 113.887 36.456C113.887 36.648 113.876 36.872 113.855 37.128C113.833 37.3627 113.812 37.5867 113.791 37.8H99.8068V34.888H111.167L109.247 35.752C109.247 34.856 109.065 34.0773 108.703 33.416C108.34 32.7547 107.839 32.2427 107.199 31.88C106.559 31.496 105.812 31.304 104.959 31.304C104.105 31.304 103.348 31.496 102.687 31.88C102.047 32.2427 101.545 32.7653 101.183 33.448C100.82 34.1093 100.639 34.8987 100.639 35.816V36.584C100.639 37.5227 100.841 38.3547 101.247 39.08C101.673 39.784 102.26 40.328 103.007 40.712C103.775 41.0747 104.671 41.256 105.695 41.256C106.612 41.256 107.412 41.1173 108.095 40.84C108.799 40.5627 109.439 40.1467 110.015 39.592L112.671 42.472C111.881 43.368 110.889 44.0613 109.695 44.552C108.5 45.0213 107.124 45.256 105.567 45.256ZM127.674 27.528C129.04 27.528 130.256 27.8053 131.322 28.36C132.41 28.8933 133.264 29.7253 133.882 30.856C134.501 31.9653 134.81 33.3947 134.81 35.144V45H129.818V35.912C129.818 34.5253 129.509 33.5013 128.89 32.84C128.293 32.1787 127.44 31.848 126.33 31.848C125.541 31.848 124.826 32.0187 124.186 32.36C123.568 32.68 123.077 33.1813 122.714 33.864C122.373 34.5467 122.202 35.4213 122.202 36.488V45H117.21V27.784H121.978V32.552L121.082 31.112C121.701 29.96 122.586 29.0747 123.738 28.456C124.89 27.8373 126.202 27.528 127.674 27.528ZM149.895 45V41.64L149.575 40.904V34.888C149.575 33.8213 149.245 32.9893 148.583 32.392C147.943 31.7947 146.951 31.496 145.607 31.496C144.69 31.496 143.783 31.6453 142.887 31.944C142.013 32.2213 141.266 32.6053 140.647 33.096L138.855 29.608C139.794 28.9467 140.925 28.4347 142.247 28.072C143.57 27.7093 144.914 27.528 146.279 27.528C148.903 27.528 150.941 28.1467 152.391 29.384C153.842 30.6213 154.567 32.552 154.567 35.176V45H149.895ZM144.647 45.256C143.303 45.256 142.151 45.032 141.191 44.584C140.231 44.1147 139.495 43.4853 138.983 42.696C138.471 41.9067 138.215 41.0213 138.215 40.04C138.215 39.016 138.461 38.12 138.951 37.352C139.463 36.584 140.263 35.9867 141.351 35.56C142.439 35.112 143.858 34.888 145.607 34.888H150.183V37.8H146.151C144.978 37.8 144.167 37.992 143.719 38.376C143.293 38.76 143.079 39.24 143.079 39.816C143.079 40.456 143.325 40.968 143.815 41.352C144.327 41.7147 145.021 41.896 145.895 41.896C146.727 41.896 147.474 41.704 148.135 41.32C148.797 40.9147 149.277 40.328 149.575 39.56L150.343 41.864C149.981 42.9733 149.319 43.816 148.359 44.392C147.399 44.968 146.162 45.256 144.647 45.256Z" fill="black"/>
</g>
<defs>
<clipPath id="clip0_315_1884">
<rect width="189" height="69" fill="white"/>
</clipPath>
</defs>
</svg>
