<svg  viewBox="0 0 1440 810" id="floor--svg" version="1.0" xmlns="http://www.w3.org/2000/svg" preserveAspectRatio="xMidYMid slice">

    <polygon data-type="flyby" data-flyby="3" data-side="inside" class="s3d-svg__build js-s3d-svg__build" points="567,514,552,358,625,325,695,315,774,315,858,340,888,355,867,512,577,509"></polygon>
    <polygon data-id="zone_sport_jogging"  class="s3d-svg__build js-s3d-svg__build" data-type="infrastructure" points="917.109375,678,936.109375,513,938.109375,506,940.109375,506,942.109375,493,949.109375,492,950.109375,489,956.109375,489,957.109375,486,970.109375,486,971.109375,484,991.109375,484,991.109375,490,1008.109375,488,1021.109375,492,1022.109375,498,1034.109375,502,1034.109375,496,1039.109375,494,1045.109375,491,1055.109375,490,1055.109375,493,1070.109375,494,1070.109375,492,1084.109375,491,1090.109375,498,1091.109375,514,1109.109375,513,1109.109375,495,1117.109375,494,1116.109375,492,1127.109375,492,1128.109375,495,1146.109375,494,1145.109375,491,1155.109375,490,1156.109375,494,1162.109375,494,1166.109375,514,1182.109375,512,1185.109375,487,1241.109375,481,1244.109375,502,1267.109375,503,1272.109375,464,1286.109375,464,1290.109375,461,1310.109375,464,1304.109375,506,1314.109375,509,1317.109375,510,1321.109375,478,1334.109375,473,1339.109375,481,1345.109375,478,1357.109375,490,1356.109375,500,1358.109375,505,1367.109375,506,1378.109375,521,1375.109375,544,1389.109375,557,1401.109375,583,1441.109375,695,1454.109375,735,1243.109375,711,1075.109375,712,936.109375,702,923.109375,688,916.109375,684"></polygon>
</svg>