<svg width="42" height="42" viewBox="0 0 42 42" fill="none" xmlns="http://www.w3.org/2000/svg">
<circle cx="21" cy="21" r="21" fill="black"/>
<path d="M32.9989 9.52813C32.9981 9.47751 32.9888 9.42931 32.9749 9.38298C32.9733 9.37762 32.9741 9.372 32.9723 9.36637C32.9709 9.36209 32.9677 9.35914 32.9664 9.35486C32.9496 9.30799 32.9275 9.26407 32.8989 9.22416C32.8939 9.2172 32.888 9.21131 32.8829 9.20461C32.8555 9.16979 32.8243 9.13873 32.7891 9.11168C32.7835 9.10739 32.7787 9.10231 32.7728 9.09829C32.7339 9.0707 32.6907 9.04955 32.6451 9.03294C32.6352 9.02946 32.6253 9.02651 32.6152 9.02357C32.5677 9.00991 32.5184 9 32.4664 9H9.53333C9.48133 9 9.432 9.00991 9.38453 9.02384C9.3744 9.02678 9.36453 9.02946 9.35466 9.03294C9.3088 9.04955 9.26586 9.0707 9.22693 9.09829C9.22106 9.10231 9.21626 9.10739 9.21066 9.11168C9.17573 9.13846 9.14453 9.16979 9.11733 9.20434C9.112 9.21131 9.10587 9.2172 9.1008 9.22443C9.07227 9.26407 9.05013 9.30772 9.0336 9.35432C9.032 9.35887 9.0288 9.36209 9.0272 9.36664C9.02533 9.37226 9.02613 9.37816 9.02427 9.38378C9.01067 9.42984 9.00133 9.47778 9.0008 9.52813C9.0008 9.53027 9.00027 9.53215 9.00027 9.53429C9.00027 9.53429 9 9.53509 9 9.53563V26.4407C9 26.4415 9.00027 26.4425 9.00027 26.4433C9.00053 26.4782 9.00373 26.5127 9.01067 26.547C9.01307 26.5593 9.01787 26.5706 9.02133 26.5823C9.02747 26.6043 9.0328 26.6265 9.0416 26.6479C9.0512 26.6712 9.06427 26.6927 9.07707 26.7141C9.08213 26.7227 9.0856 26.7318 9.0912 26.7401C9.11093 26.7693 9.1336 26.7963 9.1584 26.8212C9.15893 26.8218 9.15946 26.8226 9.16 26.8231C9.16826 26.8311 9.17786 26.8368 9.1864 26.8443C9.20346 26.8593 9.22053 26.8745 9.23946 26.8871C9.25386 26.8968 9.26933 26.9034 9.28426 26.9115C9.29973 26.9198 9.3144 26.9289 9.33066 26.9359C9.34906 26.9434 9.368 26.9479 9.38693 26.9533C9.40133 26.9573 9.41493 26.9629 9.4296 26.9658C9.46373 26.9725 9.49839 26.976 9.53333 26.976H11.7285C12.0229 26.976 12.2618 26.7361 12.2618 26.4404C12.2618 26.1447 12.0229 25.9048 11.7285 25.9048H10.7066C12.308 23.8343 12.8554 21.4162 12.3338 18.6952C13.5101 18.0037 15.2767 16.3014 15.7559 13.4993C17.502 14.0786 19.2508 14.3697 20.9999 14.3697C22.7484 14.3697 24.4972 14.0783 26.2435 13.499C26.7227 16.3014 28.4897 18.0034 29.6659 18.6949C29.144 21.4159 29.6915 23.834 31.2931 25.9045H30.2712C29.9768 25.9045 29.7379 26.1445 29.7379 26.4401C29.7379 26.7358 29.9768 26.9758 30.2712 26.9758H32.4664C32.5013 26.9758 32.536 26.972 32.5704 26.9653C32.5851 26.9624 32.5984 26.957 32.6125 26.953C32.6315 26.9476 32.6507 26.9431 32.6691 26.9353C32.6856 26.9286 32.7005 26.9192 32.716 26.9109C32.7309 26.9029 32.7461 26.8962 32.7603 26.8868C32.7795 26.874 32.7965 26.8587 32.8139 26.8437C32.8224 26.8365 32.8317 26.8309 32.8397 26.8228C32.8403 26.8223 32.8408 26.8215 32.8413 26.821C32.8653 26.7971 32.8872 26.7709 32.9064 26.7428C32.9155 26.7296 32.9216 26.7154 32.9293 26.7018C32.9392 26.6841 32.9501 26.667 32.9581 26.6479C32.9691 26.622 32.9763 26.5949 32.9829 26.5679C32.9845 26.5612 32.9877 26.5548 32.9891 26.5481C32.996 26.5132 32.9995 26.4782 32.9997 26.4428C32.9997 26.442 33 26.4412 33 26.4404V9.53563C33 9.53509 32.9997 9.53456 32.9997 9.53402C32.9995 9.53215 32.9989 9.53001 32.9989 9.52813ZM10.0667 24.9749V18.5556C10.4483 18.7943 10.856 18.9255 11.2938 18.9507C11.7226 21.2381 11.3192 23.2237 10.0667 24.9749ZM11.5896 17.8805C11.0082 17.9228 10.541 17.6989 10.0667 17.1488V10.579C11.6189 11.6591 13.1749 12.5062 14.7333 13.1244C14.3415 15.8609 12.5749 17.3995 11.5896 17.8805ZM15.5949 12.3297C15.5373 12.2939 15.4727 12.269 15.4026 12.2572C14.0122 11.7256 12.6184 10.9982 11.2178 10.0713H30.7816C29.3814 10.9982 27.9873 11.7256 26.5969 12.2572C26.5267 12.269 26.4622 12.2939 26.4049 12.3297C22.7937 13.6635 19.2063 13.6637 15.5949 12.3297ZM27.2665 13.1241C28.8248 12.506 30.3811 11.6589 31.9331 10.579V17.1488C31.459 17.6989 30.9918 17.9228 30.4104 17.8805C29.4248 17.3998 27.6582 15.8609 27.2665 13.1241ZM30.7056 18.9509C31.1438 18.9258 31.5515 18.7945 31.9331 18.5559V24.9752C30.6806 23.2237 30.2771 21.2384 30.7056 18.9509Z" fill="#00FF94"/>
<path d="M20.9999 28.6188C19.665 28.6188 18.5786 27.528 18.5786 26.1874C18.5786 24.8467 19.6647 23.7559 20.9999 23.7559C22.3348 23.7559 23.421 24.8467 23.421 26.1874C23.421 27.528 22.3348 28.6188 20.9999 28.6188ZM20.9999 24.8271C20.253 24.8271 19.6453 25.4372 19.6453 26.1874C19.6453 26.9375 20.253 27.5476 20.9999 27.5476C21.7468 27.5476 22.3543 26.9375 22.3543 26.1874C22.3543 25.4372 21.7468 24.8271 20.9999 24.8271Z" fill="#00FF94"/>
<path d="M24.1129 33.0005H17.8868C17.5924 33.0005 17.3535 32.7605 17.3535 32.4648C17.3535 30.4455 18.9892 28.8027 20.9999 28.8027C23.0105 28.8027 24.6462 30.4455 24.6462 32.4648C24.6462 32.7605 24.4073 33.0005 24.1129 33.0005ZM18.4756 31.9292H23.5241C23.2777 30.7567 22.2396 29.874 20.9999 29.874C19.7602 29.874 18.722 30.7567 18.4756 31.9292Z" fill="#00FF94"/>
<path d="M15.7489 28.6188C14.414 28.6188 13.3279 27.528 13.3279 26.1874C13.3279 24.8467 14.414 23.7559 15.7489 23.7559C17.0838 23.7559 18.1702 24.8467 18.1702 26.1874C18.1702 27.528 17.0838 28.6188 15.7489 28.6188ZM15.7489 24.8271C15.002 24.8271 14.3945 25.4372 14.3945 26.1874C14.3945 26.9375 15.002 27.5476 15.7489 27.5476C16.4958 27.5476 17.1036 26.9375 17.1036 26.1874C17.1036 25.4372 16.4956 24.8271 15.7489 24.8271Z" fill="#00FF94"/>
<path d="M16.1302 33.0005H12.6359C12.3415 33.0005 12.1025 32.7605 12.1025 32.4648C12.1025 30.4455 13.7383 28.8027 15.7489 28.8027C16.3505 28.8027 16.9468 28.9532 17.4734 29.2374C17.7329 29.3775 17.8299 29.7023 17.6905 29.9629C17.5507 30.2232 17.2273 30.321 16.9681 30.1809C16.5961 29.98 16.1745 29.874 15.7489 29.874C14.5092 29.874 13.4711 30.7567 13.2247 31.9292H16.1302C16.4246 31.9292 16.6636 32.1692 16.6636 32.4648C16.6636 32.7605 16.4249 33.0005 16.1302 33.0005Z" fill="#00FF94"/>
<path d="M26.2506 28.6188C24.9157 28.6188 23.8296 27.528 23.8296 26.1874C23.8296 24.8467 24.9157 23.7559 26.2506 23.7559C27.5855 23.7559 28.6717 24.8467 28.6717 26.1874C28.6717 27.528 27.5855 28.6188 26.2506 28.6188ZM26.2506 24.8271C25.5037 24.8271 24.8962 25.4372 24.8962 26.1874C24.8962 26.9375 25.5037 27.5476 26.2506 27.5476C26.9976 27.5476 27.605 26.9375 27.605 26.1874C27.605 25.4372 26.9976 24.8271 26.2506 24.8271Z" fill="#00FF94"/>
<path d="M29.3638 33.0005H25.8694C25.575 33.0005 25.3361 32.7605 25.3361 32.4648C25.3361 32.1692 25.575 31.9292 25.8694 31.9292H28.775C28.5286 30.7567 27.4905 29.874 26.2507 29.874C25.8249 29.874 25.4033 29.98 25.0315 30.1809C24.7713 30.321 24.4484 30.2232 24.3092 29.9629C24.17 29.7026 24.267 29.3775 24.5262 29.2374C25.0529 28.953 25.6491 28.8027 26.2507 28.8027C28.2614 28.8027 29.8971 30.4455 29.8971 32.4648C29.8971 32.7605 29.6584 33.0005 29.3638 33.0005Z" fill="#00FF94"/>
</svg>
