<svg width="20" height="20" viewBox="0 0 20 20" fill="none" xmlns="http://www.w3.org/2000/svg">
<circle cx="10" cy="10" r="10" fill="black" fill-opacity="1"></circle>
<path d="M10.4265 7.98531H4.22155C4.17899 7.98527 4.13734 7.97299 4.10157 7.94992C4.0658 7.92685 4.03742 7.89398 4.01983 7.85522C4.00223 7.81646 3.99617 7.77346 4.00235 7.73135C4.00854 7.68924 4.02671 7.64979 4.05471 7.61773L7.15717 4.07206C7.1786 4.04931 7.20445 4.03118 7.23314 4.01879C7.26184 4.00639 7.29276 4 7.32402 4C7.35527 4 7.38619 4.00639 7.41489 4.01879C7.44358 4.03118 7.46943 4.04931 7.49086 4.07206L10.5933 7.61773C10.6213 7.64979 10.6395 7.68924 10.6457 7.73135C10.6519 7.77346 10.6458 7.81646 10.6282 7.85522C10.6106 7.89398 10.5822 7.92685 10.5465 7.94992C10.5107 7.97299 10.469 7.98527 10.4265 7.98531ZM7.32402 11.0878C7.4555 11.0878 7.58404 11.0488 7.69337 10.9757C7.80269 10.9027 7.88791 10.7988 7.93822 10.6774C7.98854 10.5559 8.00171 10.4222 7.97605 10.2933C7.9504 10.1643 7.88709 10.0458 7.79411 9.95286C7.70113 9.85989 7.58268 9.79657 7.45371 9.77092C7.32475 9.74526 7.19108 9.75843 7.0696 9.80875C6.94812 9.85907 6.84429 9.94428 6.77124 10.0536C6.69819 10.1629 6.6592 10.2915 6.6592 10.423C6.6594 10.5992 6.7295 10.7682 6.85414 10.8928C6.97877 11.0175 7.14776 11.0876 7.32402 11.0878V11.0878ZM4.88637 15.2983C4.88637 15.357 4.90972 15.4134 4.95127 15.455C4.99283 15.4965 5.0492 15.5199 5.10797 15.5199H6.4376C6.49637 15.5199 6.55274 15.4965 6.5943 15.455C6.63585 15.4134 6.6592 15.357 6.6592 15.2983V14.1902H7.98883V15.2983C7.98883 15.357 8.01218 15.4134 8.05374 15.455C8.09529 15.4965 8.15166 15.5199 8.21043 15.5199H9.54006C9.59883 15.5199 9.6552 15.4965 9.69676 15.455C9.73832 15.4134 9.76166 15.357 9.76166 15.2983V13.3038H4.88637V15.2983ZM4.88637 8.42852H9.76166V12.8606H4.88637V8.42852ZM6.21599 10.423C6.21599 10.6421 6.28098 10.8563 6.40273 11.0385C6.52448 11.2208 6.69753 11.3628 6.89999 11.4466C7.10246 11.5305 7.32525 11.5524 7.54018 11.5097C7.75512 11.4669 7.95255 11.3614 8.10751 11.2064C8.26247 11.0515 8.36799 10.8541 8.41075 10.6391C8.4535 10.4242 8.43156 10.2014 8.34769 9.99893C8.26383 9.79647 8.12181 9.62342 7.9396 9.50167C7.75739 9.37992 7.54316 9.31493 7.32402 9.31493C7.03026 9.31528 6.74863 9.43213 6.54091 9.63985C6.33319 9.84757 6.21634 10.1292 6.21599 10.423V10.423ZM16.1882 14.1902H15.2167C14.8458 14.1905 14.483 14.0818 14.1734 13.8776C13.8638 13.6735 13.6209 13.3828 13.475 13.0419C13.2269 12.4616 12.8137 11.967 12.2868 11.6196C11.76 11.2722 11.1426 11.0873 10.5115 11.0878H10.2049V12.4174H10.5115C10.8824 12.4171 11.2452 12.5258 11.5548 12.73C11.8645 12.9342 12.1073 13.2248 12.2532 13.5658C12.5014 14.146 12.9146 14.6406 13.4414 14.988C13.9683 15.3354 14.5856 15.5204 15.2167 15.5199H16.1882C16.247 15.5199 16.3033 15.4965 16.3449 15.455C16.3864 15.4134 16.4098 15.357 16.4098 15.2983V14.4118C16.4098 14.3531 16.3864 14.2967 16.3449 14.2551C16.3033 14.2136 16.247 14.1902 16.1882 14.1902Z" fill="#E1EE50"></path>
</svg>