<svg width="20" height="20" viewBox="0 0 20 20" fill="none" xmlns="http://www.w3.org/2000/svg">
<circle cx="10" cy="10" r="10" fill="black" fill-opacity="0.6"></circle>
<path fill-rule="evenodd" clip-rule="evenodd" d="M10.4296 5.02074C10.2942 5.00963 10.1583 5 10.02 5C7.56732 5 5.48901 6.80314 5.07979 9.14048C5.70409 9.74467 6.52007 10.1284 7.37715 10.2487C7.37574 10.2167 7.37341 10.185 7.37108 10.1533C7.36736 10.1026 7.36364 10.052 7.36364 10.0004C7.36364 7.89246 8.59715 5.95805 10.4296 5.02074ZM7.95036 10.001C7.95036 7.82569 9.41334 5.85886 11.4864 5.22124C11.998 5.37905 12.4721 5.62001 12.899 5.92372C11.0177 6.67606 9.90189 8.04211 9.7455 9.80861C9.111 10.1312 8.52652 10.29 7.96628 10.2928C7.96453 10.2629 7.96235 10.2331 7.96017 10.2033C7.95527 10.1363 7.95036 10.0692 7.95036 10.001ZM10.986 8.05846C11.6052 7.20352 12.5513 6.66824 13.4274 6.36009C14.3929 7.26912 15 8.57433 15 10.002C15 10.5168 14.9215 11.0135 14.7759 11.4809C14.2385 9.7146 12.7863 8.41265 10.986 8.05846ZM14.2605 11.7774C13.8019 10.0833 12.3946 8.84198 10.6651 8.58701C10.4938 8.94341 10.3813 9.35126 10.335 9.8087C12.0033 10.4727 12.864 12.2071 13.1692 13.8531C13.659 13.4519 14.0704 12.9592 14.3788 12.4015C14.3531 12.1927 14.3166 11.9844 14.2605 11.7774ZM7.94935 10.8797C8.61738 10.8797 9.29757 10.6962 10.0319 10.3195C10.4847 10.4842 10.8731 10.7401 11.2003 11.0619C10.4164 12.0632 9.21956 12.6377 7.94935 12.6377C6.82936 12.6377 6.11151 12.2205 5.70377 11.9835C5.53508 11.8855 5.41947 11.8183 5.35043 11.8243C5.1269 11.2588 5 10.6448 5 10.0007C5 9.97231 5.00195 9.94437 5.0039 9.91644C5.00537 9.8953 5.00685 9.87416 5.00748 9.85281C5.86711 10.5402 6.95434 10.8797 7.94935 10.8797ZM7.95018 13.2225C9.36391 13.2225 10.6933 12.5961 11.5881 11.5067C12.1703 12.2846 12.502 13.2832 12.6404 14.2278C11.8782 14.7018 10.9824 15 10.0206 15C8.27643 15 6.70235 14.0776 5.81239 12.7164C6.465 13.0481 7.20489 13.2225 7.95018 13.2225Z" fill="#58B076"></path>
</svg>