<svg width="247" height="36" viewBox="0 0 247 36" fill="none" xmlns="http://www.w3.org/2000/svg">
<g clip-path="url(#clip0_228_781)">
<rect width="36" height="36" rx="18" fill="#EA6F25"/>
<path d="M16.0886 11.0869L15.4631 11.8345L9.51457 10.6268L9 11.6576L18.0227 16.3912L14.5449 20.6162L11.0982 20.3596L10.699 21.1161L13.4004 22.4079L12.8903 23.4298C12.7395 23.7395 12.7129 23.918 12.8105 23.9651L12.8149 23.9607C12.8652 24.0551 13.0411 24.0167 13.3428 23.8457L14.3364 23.2838L15.7958 25.8896L16.5278 25.4472L16.0531 22.0318L20.0721 18.3068L25.3641 27L26.3622 26.416L24.7875 20.5763L25.5017 19.9039C25.753 19.6709 25.8181 19.4379 25.6968 19.2049L25.0581 18.3024C24.8836 18.152 24.6677 18.1682 24.4104 18.3511L24.233 18.4926L23.3635 15.2587L25.7944 12.8697C26.9655 11.7166 27.2834 10.4867 26.7481 9.18011L26.7437 9.18453C25.4041 8.72736 24.1915 9.11968 23.1063 10.3613L20.8617 12.9272L17.5791 12.2592L17.7077 12.0734C17.8792 11.805 17.8837 11.5897 17.721 11.4275L16.7762 10.848C16.5366 10.7447 16.3075 10.8243 16.0886 11.0869Z" fill="white"/>
<path d="M44.8608 16V7.27273H48.1335C48.804 7.27273 49.3665 7.39773 49.821 7.64773C50.2784 7.89773 50.6236 8.24148 50.8565 8.67898C51.0923 9.11364 51.2102 9.60795 51.2102 10.1619C51.2102 10.7216 51.0923 11.2187 50.8565 11.6534C50.6207 12.0881 50.2727 12.4304 49.8125 12.6804C49.3523 12.9276 48.7855 13.0511 48.1122 13.0511H45.9432V11.7514H47.8991C48.2912 11.7514 48.6122 11.6832 48.8622 11.5469C49.1122 11.4105 49.2969 11.223 49.4162 10.9844C49.5384 10.7457 49.5994 10.4716 49.5994 10.1619C49.5994 9.85227 49.5384 9.57955 49.4162 9.34375C49.2969 9.10795 49.1108 8.92472 48.858 8.79403C48.608 8.66051 48.2855 8.59375 47.8906 8.59375H46.4418V16H44.8608ZM52.5835 16V7.27273H55.8562C56.5266 7.27273 57.0891 7.3892 57.5437 7.62216C58.0011 7.85511 58.3462 8.18182 58.5792 8.60227C58.815 9.01989 58.9329 9.5071 58.9329 10.0639C58.9329 10.6236 58.8136 11.1094 58.5749 11.5213C58.3391 11.9304 57.9911 12.2472 57.5309 12.4716C57.0707 12.6932 56.5053 12.804 55.8349 12.804H53.5039V11.4915H55.6218C56.0138 11.4915 56.3349 11.4375 56.5849 11.3295C56.8349 11.2187 57.0195 11.0582 57.1388 10.848C57.261 10.6349 57.3221 10.3736 57.3221 10.0639C57.3221 9.75426 57.261 9.49006 57.1388 9.27131C57.0167 9.04972 56.8306 8.8821 56.5806 8.76847C56.3306 8.65199 56.0082 8.59375 55.6133 8.59375H54.1644V16H52.5835ZM57.092 12.0455L59.2525 16H57.4883L55.3661 12.0455H57.092ZM61.9691 7.27273V16H60.3881V7.27273H61.9691ZM70.853 7.27273V16H69.4467L65.3345 10.0554H65.2621V16H63.6811V7.27273H65.0959L69.2038 13.2216H69.2805V7.27273H70.853ZM80.0458 10.2173H78.4521C78.4066 9.95597 78.3228 9.72443 78.2006 9.52273C78.0785 9.31818 77.9265 9.14489 77.7447 9.00284C77.5629 8.8608 77.3555 8.75426 77.1225 8.68324C76.8924 8.60938 76.6438 8.57244 76.3768 8.57244C75.9023 8.57244 75.4819 8.69176 75.1154 8.9304C74.7489 9.16619 74.462 9.51278 74.2546 9.97017C74.0472 10.4247 73.9435 10.9801 73.9435 11.6364C73.9435 12.304 74.0472 12.8665 74.2546 13.3239C74.4648 13.7784 74.7518 14.1222 75.1154 14.3551C75.4819 14.5852 75.9009 14.7003 76.3725 14.7003C76.6339 14.7003 76.8782 14.6662 77.1055 14.598C77.3356 14.527 77.5415 14.4233 77.7234 14.2869C77.908 14.1506 78.0629 13.983 78.1879 13.7841C78.3157 13.5852 78.4038 13.358 78.4521 13.1023L80.0458 13.1108C79.9862 13.5256 79.8569 13.9148 79.658 14.2784C79.462 14.642 79.2049 14.9631 78.8867 15.2415C78.5685 15.517 78.1964 15.733 77.7702 15.8892C77.3441 16.0426 76.8711 16.1193 76.3512 16.1193C75.5842 16.1193 74.8995 15.9418 74.2972 15.5866C73.695 15.2315 73.2205 14.7188 72.8739 14.0483C72.5273 13.3778 72.354 12.5739 72.354 11.6364C72.354 10.696 72.5288 9.89205 72.8782 9.22443C73.2276 8.55398 73.7035 8.04119 74.3058 7.68608C74.908 7.33097 75.5898 7.15341 76.3512 7.15341C76.837 7.15341 77.2887 7.22159 77.7063 7.35795C78.1239 7.49432 78.4961 7.6946 78.8228 7.95881C79.1495 8.22017 79.418 8.54119 79.6282 8.92188C79.8413 9.29972 79.9805 9.73153 80.0458 10.2173ZM81.4936 16V7.27273H87.1697V8.59801H83.0746V10.9673H86.8757V12.2926H83.0746V14.6747H87.2038V16H81.4936ZM96.5021 9.67188C96.4624 9.29972 96.2947 9.00994 95.9993 8.80256C95.7067 8.59517 95.326 8.49148 94.8572 8.49148C94.5277 8.49148 94.245 8.54119 94.0092 8.64062C93.7734 8.74006 93.593 8.875 93.468 9.04545C93.343 9.21591 93.2791 9.41051 93.2763 9.62926C93.2763 9.81108 93.3175 9.96875 93.3999 10.1023C93.4851 10.2358 93.6001 10.3494 93.745 10.4432C93.8899 10.5341 94.0504 10.6108 94.2266 10.6733C94.4027 10.7358 94.5803 10.7884 94.7592 10.831L95.5774 11.0355C95.907 11.1122 96.2237 11.2159 96.5277 11.3466C96.8345 11.4773 97.1087 11.642 97.3501 11.8409C97.5945 12.0398 97.7876 12.2798 97.9297 12.5611C98.0717 12.8423 98.1428 13.1719 98.1428 13.5497C98.1428 14.0611 98.0121 14.5114 97.7507 14.9006C97.4893 15.2869 97.1115 15.5895 96.6172 15.8082C96.1257 16.0241 95.5305 16.1321 94.8317 16.1321C94.1527 16.1321 93.5632 16.027 93.0632 15.8168C92.5661 15.6065 92.1768 15.2997 91.8956 14.8963C91.6172 14.4929 91.4666 14.0014 91.4439 13.4219H92.9993C93.022 13.7259 93.1158 13.9787 93.2805 14.1804C93.4453 14.3821 93.6598 14.5327 93.924 14.6321C94.1911 14.7315 94.4893 14.7812 94.8189 14.7812C95.1626 14.7812 95.4638 14.7301 95.7223 14.6278C95.9837 14.5227 96.1882 14.3778 96.3359 14.1932C96.4837 14.0057 96.5589 13.7869 96.5618 13.5369C96.5589 13.3097 96.4922 13.1222 96.3615 12.9744C96.2308 12.8239 96.0476 12.6989 95.8118 12.5994C95.5788 12.4972 95.3061 12.4062 94.9936 12.3267L94.0007 12.071C93.282 11.8864 92.7138 11.6065 92.2962 11.2315C91.8814 10.8537 91.674 10.3523 91.674 9.72727C91.674 9.21307 91.8132 8.76278 92.0916 8.37642C92.3729 7.99006 92.755 7.69034 93.2379 7.47727C93.7209 7.26136 94.2678 7.15341 94.8786 7.15341C95.4979 7.15341 96.0405 7.26136 96.5064 7.47727C96.9751 7.69034 97.343 7.98722 97.6101 8.3679C97.8771 8.74574 98.0149 9.1804 98.0234 9.67188H96.5021ZM105.054 7.27273H106.635V12.9744C106.635 13.5994 106.487 14.1491 106.191 14.6236C105.899 15.098 105.487 15.4687 104.956 15.7358C104.424 16 103.804 16.1321 103.093 16.1321C102.38 16.1321 101.758 16 101.227 15.7358C100.696 15.4687 100.284 15.098 99.9911 14.6236C99.6985 14.1491 99.5522 13.5994 99.5522 12.9744V7.27273H101.133V12.8423C101.133 13.206 101.213 13.5298 101.372 13.8139C101.534 14.098 101.761 14.321 102.054 14.483C102.346 14.642 102.693 14.7216 103.093 14.7216C103.494 14.7216 103.841 14.642 104.133 14.483C104.429 14.321 104.656 14.098 104.815 13.8139C104.974 13.5298 105.054 13.206 105.054 12.8423V7.27273ZM108.353 16V7.27273H109.934V14.6747H113.778V16H108.353ZM113.653 8.59801V7.27273H120.616V8.59801H117.919V16H116.35V8.59801H113.653ZM122.025 16H120.337L123.409 7.27273H125.361L128.438 16H126.75L124.419 9.0625H124.351L122.025 16ZM122.08 12.5781H126.682V13.848H122.08V12.5781ZM136.759 7.27273V16H135.353L131.241 10.0554H131.168V16H129.587V7.27273H131.002L135.11 13.2216H135.187V7.27273H136.759ZM141.458 16V7.27273H144.799C145.43 7.27273 145.954 7.37216 146.372 7.57102C146.792 7.76705 147.106 8.03551 147.314 8.37642C147.524 8.71733 147.629 9.10369 147.629 9.53551C147.629 9.89062 147.561 10.1946 147.424 10.4474C147.288 10.6974 147.105 10.9006 146.875 11.0568C146.645 11.2131 146.387 11.3253 146.103 11.3935V11.4787C146.413 11.4957 146.71 11.5909 146.994 11.7642C147.281 11.9347 147.515 12.1761 147.697 12.4886C147.879 12.8011 147.97 13.179 147.97 13.6222C147.97 14.0739 147.86 14.4801 147.642 14.8409C147.423 15.1989 147.093 15.4815 146.653 15.6889C146.213 15.8963 145.659 16 144.991 16H141.458ZM143.039 14.679H144.74C145.314 14.679 145.727 14.5696 145.98 14.3509C146.235 14.1293 146.363 13.8452 146.363 13.4986C146.363 13.2401 146.299 13.0071 146.172 12.7997C146.044 12.5895 145.862 12.4247 145.626 12.3054C145.39 12.1832 145.109 12.1222 144.782 12.1222H143.039V14.679ZM143.039 10.9844H144.603C144.876 10.9844 145.122 10.9347 145.341 10.8352C145.559 10.733 145.731 10.5895 145.856 10.4048C145.984 10.2173 146.048 9.99574 146.048 9.74006C146.048 9.40199 145.929 9.12358 145.69 8.90483C145.454 8.68608 145.103 8.5767 144.637 8.5767H143.039V10.9844ZM150.926 7.27273V16H149.345V7.27273H150.926ZM159.81 7.27273V16H158.404L154.292 10.0554H154.219V16H152.638V7.27273H154.053L158.161 13.2216H158.238V7.27273H159.81ZM165.63 16H163.942L167.015 7.27273H168.967L172.043 16H170.356L168.025 9.0625H167.957L165.63 16ZM165.685 12.5781H170.288V13.848H165.685V12.5781ZM173.193 16V7.27273H176.534C177.164 7.27273 177.689 7.37216 178.106 7.57102C178.527 7.76705 178.841 8.03551 179.048 8.37642C179.258 8.71733 179.363 9.10369 179.363 9.53551C179.363 9.89062 179.295 10.1946 179.159 10.4474C179.022 10.6974 178.839 10.9006 178.609 11.0568C178.379 11.2131 178.122 11.3253 177.838 11.3935V11.4787C178.147 11.4957 178.444 11.5909 178.728 11.7642C179.015 11.9347 179.25 12.1761 179.431 12.4886C179.613 12.8011 179.704 13.179 179.704 13.6222C179.704 14.0739 179.595 14.4801 179.376 14.8409C179.157 15.1989 178.828 15.4815 178.387 15.6889C177.947 15.8963 177.393 16 176.725 16H173.193ZM174.774 14.679H176.474C177.048 14.679 177.461 14.5696 177.714 14.3509C177.97 14.1293 178.098 13.8452 178.098 13.4986C178.098 13.2401 178.034 13.0071 177.906 12.7997C177.778 12.5895 177.596 12.4247 177.36 12.3054C177.125 12.1832 176.843 12.1222 176.517 12.1222H174.774V14.679ZM174.774 10.9844H176.338C176.61 10.9844 176.856 10.9347 177.075 10.8352C177.294 10.733 177.466 10.5895 177.591 10.4048C177.718 10.2173 177.782 9.99574 177.782 9.74006C177.782 9.40199 177.663 9.12358 177.424 8.90483C177.189 8.68608 176.838 8.5767 176.372 8.5767H174.774V10.9844ZM184.037 16H181.08V7.27273H184.097C184.963 7.27273 185.707 7.44744 186.33 7.79688C186.955 8.14347 187.435 8.64205 187.77 9.29261C188.105 9.94318 188.273 10.7216 188.273 11.6278C188.273 12.5369 188.104 13.3182 187.766 13.9716C187.43 14.625 186.946 15.1264 186.312 15.4759C185.682 15.8253 184.923 16 184.037 16ZM182.661 14.6321H183.96C184.568 14.6321 185.075 14.5213 185.482 14.2997C185.888 14.0753 186.193 13.7415 186.398 13.2983C186.602 12.8523 186.705 12.2955 186.705 11.6278C186.705 10.9602 186.602 10.4062 186.398 9.96591C186.193 9.52273 185.891 9.19176 185.49 8.97301C185.092 8.75142 184.598 8.64062 184.007 8.64062H182.661V14.6321ZM195.276 7.27273H196.857V12.9744C196.857 13.5994 196.71 14.1491 196.414 14.6236C196.121 15.098 195.71 15.4687 195.178 15.7358C194.647 16 194.026 16.1321 193.316 16.1321C192.603 16.1321 191.981 16 191.45 15.7358C190.918 15.4687 190.506 15.098 190.214 14.6236C189.921 14.1491 189.775 13.5994 189.775 12.9744V7.27273H191.356V12.8423C191.356 13.206 191.435 13.5298 191.594 13.8139C191.756 14.098 191.984 14.321 192.276 14.483C192.569 14.642 192.915 14.7216 193.316 14.7216C193.717 14.7216 194.063 14.642 194.356 14.483C194.651 14.321 194.879 14.098 195.038 13.8139C195.197 13.5298 195.276 13.206 195.276 12.8423V7.27273ZM198.576 16V7.27273H200.157V14.6747H204V16H198.576ZM206.821 16H205.134L208.206 7.27273H210.158L213.235 16H211.547L209.216 9.0625H209.148L206.821 16ZM206.877 12.5781H211.479V13.848H206.877V12.5781ZM214.222 16V15.0156L218.697 8.59801H214.197V7.27273H220.657V8.2571L216.187 14.6747H220.683V16H214.222ZM223.793 7.27273V16H222.212V7.27273H223.793ZM225.343 16V15.0156L229.818 8.59801H225.318V7.27273H231.778V8.2571L227.308 14.6747H231.804V16H225.343ZM46.4418 19.2727V28H44.8608V19.2727H46.4418ZM55.3256 19.2727V28H53.9194L49.8072 22.0554H49.7347V28H48.1538V19.2727H49.5685L53.6765 25.2216H53.7532V19.2727H55.3256ZM56.6648 20.598V19.2727H63.6278V20.598H60.9304V28H59.3622V20.598H56.6648ZM64.9702 28V19.2727H70.6463V20.598H66.5511V22.9673H70.3523V24.2926H66.5511V26.6747H70.6804V28H64.9702ZM72.2592 28V19.2727H75.532C76.2024 19.2727 76.7649 19.3892 77.2195 19.6222C77.6768 19.8551 78.022 20.1818 78.255 20.6023C78.4908 21.0199 78.6087 21.5071 78.6087 22.0639C78.6087 22.6236 78.4893 23.1094 78.2507 23.5213C78.0149 23.9304 77.6669 24.2472 77.2067 24.4716C76.7464 24.6932 76.1811 24.804 75.5107 24.804H73.1797V23.4915H75.2976C75.6896 23.4915 76.0107 23.4375 76.2607 23.3295C76.5107 23.2187 76.6953 23.0582 76.8146 22.848C76.9368 22.6349 76.9979 22.3736 76.9979 22.0639C76.9979 21.7543 76.9368 21.4901 76.8146 21.2713C76.6925 21.0497 76.5064 20.8821 76.2564 20.7685C76.0064 20.652 75.6839 20.5938 75.2891 20.5938H73.8402V28H72.2592ZM76.7678 24.0455L78.9283 28H77.1641L75.0419 24.0455H76.7678ZM87.2358 19.2727V28H85.8295L81.7173 22.0554H81.6449V28H80.0639V19.2727H81.4787L85.5866 25.2216H85.6634V19.2727H87.2358ZM90.0792 28H88.3917L91.4641 19.2727H93.4158L96.4925 28H94.805L92.4741 21.0625H92.4059L90.0792 28ZM90.1346 24.5781H94.7369V25.848H90.1346V24.5781ZM96.2038 20.598V19.2727H103.167V20.598H100.469V28H98.9013V20.598H96.2038ZM106.09 19.2727V28H104.509V19.2727H106.09ZM115.6 23.6364C115.6 24.5767 115.424 25.3821 115.072 26.0526C114.723 26.7202 114.245 27.2315 113.64 27.5866C113.038 27.9418 112.355 28.1193 111.591 28.1193C110.826 28.1193 110.142 27.9418 109.537 27.5866C108.934 27.2287 108.457 26.7159 108.105 26.0483C107.755 25.3778 107.581 24.5739 107.581 23.6364C107.581 22.696 107.755 21.892 108.105 21.2244C108.457 20.554 108.934 20.0412 109.537 19.6861C110.142 19.331 110.826 19.1534 111.591 19.1534C112.355 19.1534 113.038 19.331 113.64 19.6861C114.245 20.0412 114.723 20.554 115.072 21.2244C115.424 21.892 115.6 22.696 115.6 23.6364ZM114.011 23.6364C114.011 22.9744 113.907 22.4162 113.7 21.9616C113.495 21.5043 113.211 21.1591 112.848 20.9261C112.484 20.6903 112.065 20.5724 111.591 20.5724C111.116 20.5724 110.697 20.6903 110.333 20.9261C109.97 21.1591 109.684 21.5043 109.477 21.9616C109.272 22.4162 109.17 22.9744 109.17 23.6364C109.17 24.2983 109.272 24.858 109.477 25.3153C109.684 25.7699 109.97 26.1151 110.333 26.3509C110.697 26.5838 111.116 26.7003 111.591 26.7003C112.065 26.7003 112.484 26.5838 112.848 26.3509C113.211 26.1151 113.495 25.7699 113.7 25.3153C113.907 24.858 114.011 24.2983 114.011 23.6364ZM124.267 19.2727V28H122.861L118.749 22.0554H118.676V28H117.095V19.2727H118.51L122.618 25.2216H122.695V19.2727H124.267ZM127.11 28H125.423L128.495 19.2727H130.447L133.524 28H131.836L129.505 21.0625H129.437L127.11 28ZM127.166 24.5781H131.768V25.848H127.166V24.5781ZM134.673 28V19.2727H136.254V26.6747H140.098V28H134.673ZM145.567 28H143.88L146.952 19.2727H148.904L151.981 28H150.293L147.962 21.0625H147.894L145.567 28ZM145.623 24.5781H150.225V25.848H145.623V24.5781ZM154.711 19.2727V28H153.13V19.2727H154.711ZM156.423 28V19.2727H159.696C160.366 19.2727 160.929 19.3892 161.384 19.6222C161.841 19.8551 162.186 20.1818 162.419 20.6023C162.655 21.0199 162.773 21.5071 162.773 22.0639C162.773 22.6236 162.653 23.1094 162.415 23.5213C162.179 23.9304 161.831 24.2472 161.371 24.4716C160.911 24.6932 160.345 24.804 159.675 24.804H157.344V23.4915H159.462C159.854 23.4915 160.175 23.4375 160.425 23.3295C160.675 23.2187 160.859 23.0582 160.979 22.848C161.101 22.6349 161.162 22.3736 161.162 22.0639C161.162 21.7543 161.101 21.4901 160.979 21.2713C160.857 21.0497 160.67 20.8821 160.42 20.7685C160.17 20.652 159.848 20.5938 159.453 20.5938H158.004V28H156.423ZM160.932 24.0455L163.092 28H161.328L159.206 24.0455H160.932ZM164.228 28V19.2727H167.501C168.171 19.2727 168.734 19.3977 169.188 19.6477C169.646 19.8977 169.991 20.2415 170.224 20.679C170.46 21.1136 170.577 21.608 170.577 22.1619C170.577 22.7216 170.46 23.2187 170.224 23.6534C169.988 24.0881 169.64 24.4304 169.18 24.6804C168.719 24.9276 168.153 25.0511 167.479 25.0511H165.31V23.7514H167.266C167.658 23.7514 167.979 23.6832 168.229 23.5469C168.479 23.4105 168.664 23.223 168.783 22.9844C168.906 22.7457 168.967 22.4716 168.967 22.1619C168.967 21.8523 168.906 21.5795 168.783 21.3438C168.664 21.108 168.478 20.9247 168.225 20.794C167.975 20.6605 167.653 20.5938 167.258 20.5938H165.809V28H164.228ZM179.749 23.6364C179.749 24.5767 179.573 25.3821 179.221 26.0526C178.871 26.7202 178.394 27.2315 177.789 27.5866C177.186 27.9418 176.503 28.1193 175.739 28.1193C174.975 28.1193 174.29 27.9418 173.685 27.5866C173.083 27.2287 172.605 26.7159 172.253 26.0483C171.904 25.3778 171.729 24.5739 171.729 23.6364C171.729 22.696 171.904 21.892 172.253 21.2244C172.605 20.554 173.083 20.0412 173.685 19.6861C174.29 19.331 174.975 19.1534 175.739 19.1534C176.503 19.1534 177.186 19.331 177.789 19.6861C178.394 20.0412 178.871 20.554 179.221 21.2244C179.573 21.892 179.749 22.696 179.749 23.6364ZM178.159 23.6364C178.159 22.9744 178.056 22.4162 177.848 21.9616C177.644 21.5043 177.36 21.1591 176.996 20.9261C176.632 20.6903 176.213 20.5724 175.739 20.5724C175.265 20.5724 174.846 20.6903 174.482 20.9261C174.118 21.1591 173.833 21.5043 173.625 21.9616C173.421 22.4162 173.319 22.9744 173.319 23.6364C173.319 24.2983 173.421 24.858 173.625 25.3153C173.833 25.7699 174.118 26.1151 174.482 26.3509C174.846 26.5838 175.265 26.7003 175.739 26.7003C176.213 26.7003 176.632 26.5838 176.996 26.3509C177.36 26.1151 177.644 25.7699 177.848 25.3153C178.056 24.858 178.159 24.2983 178.159 23.6364ZM181.244 28V19.2727H184.516C185.187 19.2727 185.749 19.3892 186.204 19.6222C186.661 19.8551 187.006 20.1818 187.239 20.6023C187.475 21.0199 187.593 21.5071 187.593 22.0639C187.593 22.6236 187.474 23.1094 187.235 23.5213C186.999 23.9304 186.651 24.2472 186.191 24.4716C185.731 24.6932 185.165 24.804 184.495 24.804H182.164V23.4915H184.282C184.674 23.4915 184.995 23.4375 185.245 23.3295C185.495 23.2187 185.68 23.0582 185.799 22.848C185.921 22.6349 185.982 22.3736 185.982 22.0639C185.982 21.7543 185.921 21.4901 185.799 21.2713C185.677 21.0497 185.491 20.8821 185.241 20.7685C184.991 20.652 184.668 20.5938 184.273 20.5938H182.825V28H181.244ZM185.752 24.0455L187.913 28H186.148L184.026 24.0455H185.752ZM188.665 20.598V19.2727H195.628V20.598H192.93V28H191.362V20.598H188.665Z" fill="black"/>
</g>
<defs>
<clipPath id="clip0_228_781">
<rect width="247" height="36" rx="18" fill="white"/>
</clipPath>
</defs>
</svg>
