<svg width="212" height="95" viewBox="0 0 212 95" fill="none" xmlns="http://www.w3.org/2000/svg">
<g filter="url(#filter0_dd_13_1042)">
<rect width="200" height="69" transform="translate(6)" fill="white"/>
<rect width="54" height="69" transform="translate(6)" fill="#EA6F25"/>
<path d="M38.1396 18H43.3514M38.1396 26.1073H43.3514M38.1396 34.2145H43.3514M38.1396 30.1609H40.7455M38.1396 22.0536H40.7455M26.3803 36.0667C26.3803 29.3107 26.413 24.7561 26.413 22.0536C26.413 19.3512 27.716 18 30.3219 18C32.9278 18 34.2307 19.3512 34.2307 22.0536V35.5657C36.9698 36.8669 38.8634 39.6587 38.8634 42.8928C38.8634 47.3703 35.2337 51.0001 30.7562 51.0001C26.2787 51.0001 22.6489 47.3703 22.6489 42.8928C22.6489 40.027 24.1358 37.5085 26.3803 36.0667Z" stroke="white" stroke-width="2" stroke-linecap="round"/>
<circle cx="30.6113" cy="42.3217" r="3.47454" stroke="white" stroke-width="2"/>
<path d="M80.331 17.7173H78.7372C78.6918 17.456 78.608 17.2244 78.4858 17.0227C78.3636 16.8182 78.2116 16.6449 78.0298 16.5028C77.848 16.3608 77.6406 16.2543 77.4077 16.1832C77.1776 16.1094 76.929 16.0724 76.6619 16.0724C76.1875 16.0724 75.767 16.1918 75.4006 16.4304C75.0341 16.6662 74.7472 17.0128 74.5398 17.4702C74.3324 17.9247 74.2287 18.4801 74.2287 19.1364C74.2287 19.804 74.3324 20.3665 74.5398 20.8239C74.75 21.2784 75.0369 21.6222 75.4006 21.8551C75.767 22.0852 76.1861 22.2003 76.6577 22.2003C76.919 22.2003 77.1634 22.1662 77.3906 22.098C77.6207 22.027 77.8267 21.9233 78.0085 21.7869C78.1932 21.6506 78.348 21.483 78.473 21.2841C78.6009 21.0852 78.6889 20.858 78.7372 20.6023L80.331 20.6108C80.2713 21.0256 80.142 21.4148 79.9432 21.7784C79.7472 22.142 79.4901 22.4631 79.1719 22.7415C78.8537 23.017 78.4815 23.233 78.0554 23.3892C77.6293 23.5426 77.1563 23.6193 76.6364 23.6193C75.8693 23.6193 75.1847 23.4418 74.5824 23.0866C73.9801 22.7315 73.5057 22.2188 73.1591 21.5483C72.8125 20.8778 72.6392 20.0739 72.6392 19.1364C72.6392 18.196 72.8139 17.392 73.1634 16.7244C73.5128 16.054 73.9886 15.5412 74.5909 15.1861C75.1932 14.831 75.875 14.6534 76.6364 14.6534C77.1222 14.6534 77.5739 14.7216 77.9915 14.858C78.4091 14.9943 78.7813 15.1946 79.108 15.4588C79.4347 15.7202 79.7031 16.0412 79.9134 16.4219C80.1264 16.7997 80.2656 17.2315 80.331 17.7173ZM89.5771 19.1364C89.5771 20.0767 89.4009 20.8821 89.0487 21.5526C88.6992 22.2202 88.2219 22.7315 87.6168 23.0866C87.0146 23.4418 86.3313 23.6193 85.5671 23.6193C84.8029 23.6193 84.1183 23.4418 83.5131 23.0866C82.9109 22.7287 82.4336 22.2159 82.0813 21.5483C81.7319 20.8778 81.5572 20.0739 81.5572 19.1364C81.5572 18.196 81.7319 17.392 82.0813 16.7244C82.4336 16.054 82.9109 15.5412 83.5131 15.1861C84.1183 14.831 84.8029 14.6534 85.5671 14.6534C86.3313 14.6534 87.0146 14.831 87.6168 15.1861C88.2219 15.5412 88.6992 16.054 89.0487 16.7244C89.4009 17.392 89.5771 18.196 89.5771 19.1364ZM87.9876 19.1364C87.9876 18.4744 87.8839 17.9162 87.6765 17.4616C87.4719 17.0043 87.1879 16.6591 86.8242 16.4261C86.4606 16.1903 86.0415 16.0724 85.5671 16.0724C85.0927 16.0724 84.6737 16.1903 84.31 16.4261C83.9464 16.6591 83.6609 17.0043 83.4535 17.4616C83.2489 17.9162 83.1467 18.4744 83.1467 19.1364C83.1467 19.7983 83.2489 20.358 83.4535 20.8153C83.6609 21.2699 83.9464 21.6151 84.31 21.8509C84.6737 22.0838 85.0927 22.2003 85.5671 22.2003C86.0415 22.2003 86.4606 22.0838 86.8242 21.8509C87.1879 21.6151 87.4719 21.2699 87.6765 20.8153C87.8839 20.358 87.9876 19.7983 87.9876 19.1364ZM98.87 19.1364C98.87 20.0767 98.6939 20.8821 98.3416 21.5526C97.9922 22.2202 97.5149 22.7315 96.9098 23.0866C96.3075 23.4418 95.6243 23.6193 94.8601 23.6193C94.0959 23.6193 93.4112 23.4418 92.8061 23.0866C92.2038 22.7287 91.7266 22.2159 91.3743 21.5483C91.0249 20.8778 90.8501 20.0739 90.8501 19.1364C90.8501 18.196 91.0249 17.392 91.3743 16.7244C91.7266 16.054 92.2038 15.5412 92.8061 15.1861C93.4112 14.831 94.0959 14.6534 94.8601 14.6534C95.6243 14.6534 96.3075 14.831 96.9098 15.1861C97.5149 15.5412 97.9922 16.054 98.3416 16.7244C98.6939 17.392 98.87 18.196 98.87 19.1364ZM97.2805 19.1364C97.2805 18.4744 97.1768 17.9162 96.9695 17.4616C96.7649 17.0043 96.4808 16.6591 96.1172 16.4261C95.7536 16.1903 95.3345 16.0724 94.8601 16.0724C94.3857 16.0724 93.9666 16.1903 93.603 16.4261C93.2393 16.6591 92.9538 17.0043 92.7464 17.4616C92.5419 17.9162 92.4396 18.4744 92.4396 19.1364C92.4396 19.7983 92.5419 20.358 92.7464 20.8153C92.9538 21.2699 93.2393 21.6151 93.603 21.8509C93.9666 22.0838 94.3857 22.2003 94.8601 22.2003C95.3345 22.2003 95.7536 22.0838 96.1172 21.8509C96.4808 21.6151 96.7649 21.2699 96.9695 20.8153C97.1768 20.358 97.2805 19.7983 97.2805 19.1364ZM100.365 23.5V14.7727H101.946V22.1747H105.789V23.5H100.365ZM107.162 23.5V14.7727H112.838V16.098H108.743V18.4673H112.544V19.7926H108.743V22.1747H112.872V23.5H107.162ZM114.451 23.5V14.7727H117.723C118.394 14.7727 118.956 14.8892 119.411 15.1222C119.868 15.3551 120.213 15.6818 120.446 16.1023C120.682 16.5199 120.8 17.0071 120.8 17.5639C120.8 18.1236 120.681 18.6094 120.442 19.0213C120.206 19.4304 119.858 19.7472 119.398 19.9716C118.938 20.1932 118.373 20.304 117.702 20.304H115.371V18.9915H117.489C117.881 18.9915 118.202 18.9375 118.452 18.8295C118.702 18.7187 118.887 18.5582 119.006 18.348C119.128 18.1349 119.189 17.8736 119.189 17.5639C119.189 17.2543 119.128 16.9901 119.006 16.7713C118.884 16.5497 118.698 16.3821 118.448 16.2685C118.198 16.152 117.875 16.0938 117.48 16.0938H116.032V23.5H114.451ZM118.959 19.5455L121.12 23.5H119.355L117.233 19.5455H118.959ZM132.702 17.7173H131.108C131.063 17.456 130.979 17.2244 130.857 17.0227C130.735 16.8182 130.583 16.6449 130.401 16.5028C130.219 16.3608 130.012 16.2543 129.779 16.1832C129.549 16.1094 129.3 16.0724 129.033 16.0724C128.559 16.0724 128.138 16.1918 127.772 16.4304C127.405 16.6662 127.118 17.0128 126.911 17.4702C126.703 17.9247 126.6 18.4801 126.6 19.1364C126.6 19.804 126.703 20.3665 126.911 20.8239C127.121 21.2784 127.408 21.6222 127.772 21.8551C128.138 22.0852 128.557 22.2003 129.029 22.2003C129.29 22.2003 129.534 22.1662 129.762 22.098C129.992 22.027 130.198 21.9233 130.38 21.7869C130.564 21.6506 130.719 21.483 130.844 21.2841C130.972 21.0852 131.06 20.858 131.108 20.6023L132.702 20.6108C132.642 21.0256 132.513 21.4148 132.314 21.7784C132.118 22.142 131.861 22.4631 131.543 22.7415C131.225 23.017 130.853 23.233 130.426 23.3892C130 23.5426 129.527 23.6193 129.007 23.6193C128.24 23.6193 127.556 23.4418 126.953 23.0866C126.351 22.7315 125.877 22.2188 125.53 21.5483C125.184 20.8778 125.01 20.0739 125.01 19.1364C125.01 18.196 125.185 17.392 125.534 16.7244C125.884 16.054 126.36 15.5412 126.962 15.1861C127.564 14.831 128.246 14.6534 129.007 14.6534C129.493 14.6534 129.945 14.7216 130.363 14.858C130.78 14.9943 131.152 15.1946 131.479 15.4588C131.806 15.7202 132.074 16.0412 132.284 16.4219C132.498 16.7997 132.637 17.2315 132.702 17.7173ZM134.15 23.5V14.7727H135.731V22.1747H139.575V23.5H134.15ZM142.528 14.7727V23.5H140.947V14.7727H142.528ZM144.24 14.7727H146.174L148.765 21.0966H148.868L151.458 14.7727H153.393V23.5H151.876V17.5043H151.795L149.383 23.4744H148.25L145.838 17.4915H145.757V23.5H144.24V14.7727ZM156.235 23.5H154.548L157.62 14.7727H159.572L162.649 23.5H160.961L158.63 16.5625H158.562L156.235 23.5ZM156.291 20.0781H160.893V21.348H156.291V20.0781ZM162.36 16.098V14.7727H169.323V16.098H166.626V23.5H165.058V16.098H162.36ZM170.665 23.5V14.7727H176.342V16.098H172.246V18.4673H176.048V19.7926H172.246V22.1747H176.376V23.5H170.665Z" fill="#090C13"/>
<path d="M80.4205 35.1364C80.4205 36.0568 80.2543 36.8523 79.9219 37.5227C79.5895 38.1932 79.1335 38.7102 78.554 39.0739C77.9744 39.4375 77.3125 39.6193 76.5682 39.6193C75.8239 39.6193 75.1619 39.4375 74.5824 39.0739C74.0028 38.7102 73.5469 38.1932 73.2145 37.5227C72.8821 36.8523 72.7159 36.0568 72.7159 35.1364C72.7159 34.2159 72.8821 33.4205 73.2145 32.75C73.5469 32.0795 74.0028 31.5625 74.5824 31.1989C75.1619 30.8352 75.8239 30.6534 76.5682 30.6534C77.3125 30.6534 77.9744 30.8352 78.554 31.1989C79.1335 31.5625 79.5895 32.0795 79.9219 32.75C80.2543 33.4205 80.4205 34.2159 80.4205 35.1364ZM79.3977 35.1364C79.3977 34.3807 79.2713 33.7429 79.0185 33.223C78.7685 32.7031 78.429 32.3097 78 32.0426C77.5739 31.7756 77.0966 31.642 76.5682 31.642C76.0398 31.642 75.5611 31.7756 75.1321 32.0426C74.706 32.3097 74.3665 32.7031 74.1136 33.223C73.8636 33.7429 73.7386 34.3807 73.7386 35.1364C73.7386 35.892 73.8636 36.5298 74.1136 37.0497C74.3665 37.5696 74.706 37.9631 75.1321 38.2301C75.5611 38.4972 76.0398 38.6307 76.5682 38.6307C77.0966 38.6307 77.5739 38.4972 78 38.2301C78.429 37.9631 78.7685 37.5696 79.0185 37.0497C79.2713 36.5298 79.3977 35.892 79.3977 35.1364ZM83.0668 35.5625V39.5H82.0611V32.9545H83.0327V33.9773H83.1179C83.2713 33.6449 83.5043 33.3778 83.8168 33.1761C84.1293 32.9716 84.5327 32.8693 85.027 32.8693C85.4702 32.8693 85.858 32.9602 86.1903 33.142C86.5227 33.321 86.7813 33.5938 86.9659 33.9602C87.1506 34.3239 87.2429 34.7841 87.2429 35.3409V39.5H86.2372V35.4091C86.2372 34.8949 86.1037 34.4943 85.8366 34.2074C85.5696 33.9176 85.2031 33.7727 84.7372 33.7727C84.4162 33.7727 84.1293 33.8423 83.8764 33.9815C83.6264 34.1207 83.429 34.3239 83.2841 34.5909C83.1392 34.858 83.0668 35.1818 83.0668 35.5625ZM94.3817 39.6534C93.967 39.6534 93.5906 39.5753 93.2525 39.419C92.9144 39.2599 92.646 39.0312 92.4471 38.733C92.2482 38.4318 92.1488 38.0682 92.1488 37.642C92.1488 37.267 92.2227 36.9631 92.3704 36.7301C92.5181 36.4943 92.7156 36.3097 92.9627 36.1761C93.2099 36.0426 93.4826 35.9432 93.7809 35.8778C94.082 35.8097 94.3846 35.7557 94.6886 35.7159C95.0863 35.6648 95.4087 35.6264 95.6559 35.6009C95.9059 35.5724 96.0877 35.5256 96.2013 35.4602C96.3178 35.3949 96.3761 35.2812 96.3761 35.1193V35.0852C96.3761 34.6648 96.261 34.3381 96.0309 34.1051C95.8036 33.8722 95.4585 33.7557 94.9954 33.7557C94.5153 33.7557 94.1388 33.8608 93.8661 34.071C93.5934 34.2812 93.4016 34.5057 93.2908 34.7443L92.3363 34.4034C92.5067 34.0057 92.734 33.696 93.0181 33.4744C93.305 33.25 93.6175 33.0937 93.9556 33.0057C94.2965 32.9148 94.6317 32.8693 94.9613 32.8693C95.1715 32.8693 95.413 32.8949 95.6857 32.946C95.9613 32.9943 96.2269 33.0952 96.4826 33.2486C96.7411 33.402 96.9556 33.6335 97.1261 33.9432C97.2965 34.2528 97.3817 34.6676 97.3817 35.1875V39.5H96.3761V38.6136H96.3249C96.2567 38.7557 96.1431 38.9077 95.984 39.0696C95.8249 39.2315 95.6133 39.3693 95.3491 39.483C95.0849 39.5966 94.7624 39.6534 94.3817 39.6534ZM94.5352 38.75C94.9329 38.75 95.2681 38.6719 95.5408 38.5156C95.8164 38.3594 96.0238 38.1577 96.163 37.9105C96.305 37.6634 96.3761 37.4034 96.3761 37.1307V36.2102C96.3335 36.2614 96.2397 36.3082 96.0948 36.3509C95.9528 36.3906 95.788 36.4261 95.6005 36.4574C95.4158 36.4858 95.2354 36.5114 95.0593 36.5341C94.886 36.554 94.7454 36.571 94.6374 36.5852C94.3761 36.6193 94.1317 36.6747 93.9045 36.7514C93.68 36.8253 93.4982 36.9375 93.359 37.0881C93.2227 37.2358 93.1545 37.4375 93.1545 37.6932C93.1545 38.0426 93.2837 38.3068 93.5423 38.4858C93.8036 38.6619 94.1346 38.75 94.5352 38.75ZM104.335 32.9545L101.915 39.5H100.892L98.4716 32.9545H99.5625L101.369 38.1705H101.438L103.244 32.9545H104.335ZM108.173 39.6364C107.542 39.6364 106.998 39.4972 106.54 39.2188C106.086 38.9375 105.735 38.5455 105.488 38.0426C105.244 37.5369 105.121 36.9489 105.121 36.2784C105.121 35.608 105.244 35.017 105.488 34.5057C105.735 33.9915 106.079 33.5909 106.519 33.304C106.962 33.0142 107.479 32.8693 108.07 32.8693C108.411 32.8693 108.748 32.9261 109.08 33.0398C109.413 33.1534 109.715 33.3381 109.988 33.5938C110.261 33.8466 110.478 34.1818 110.64 34.5994C110.802 35.017 110.883 35.5312 110.883 36.142V36.5682H105.837V35.6989H109.86C109.86 35.3295 109.786 35 109.638 34.7102C109.494 34.4205 109.286 34.1918 109.016 34.0241C108.749 33.8565 108.434 33.7727 108.07 33.7727C107.67 33.7727 107.323 33.8722 107.031 34.071C106.741 34.267 106.518 34.5227 106.362 34.8381C106.205 35.1534 106.127 35.4915 106.127 35.8523V36.4318C106.127 36.9261 106.212 37.3452 106.383 37.6889C106.556 38.0298 106.796 38.2898 107.103 38.4688C107.41 38.6449 107.766 38.733 108.173 38.733C108.437 38.733 108.675 38.696 108.888 38.6222C109.104 38.5455 109.29 38.4318 109.447 38.2812C109.603 38.1278 109.724 37.9375 109.809 37.7102L110.781 37.983C110.678 38.3125 110.506 38.6023 110.265 38.8523C110.023 39.0994 109.725 39.2926 109.37 39.4318C109.015 39.5682 108.616 39.6364 108.173 39.6364ZM112.413 39.5V32.9545H113.384V33.9432H113.452C113.572 33.6193 113.788 33.3565 114.1 33.1548C114.413 32.9531 114.765 32.8523 115.157 32.8523C115.231 32.8523 115.323 32.8537 115.434 32.8565C115.545 32.8594 115.629 32.8636 115.685 32.8693V33.892C115.651 33.8835 115.573 33.8707 115.451 33.8537C115.332 33.8338 115.205 33.8239 115.072 33.8239C114.754 33.8239 114.469 33.8906 114.219 34.0241C113.972 34.1548 113.776 34.3366 113.631 34.5696C113.489 34.7997 113.418 35.0625 113.418 35.358V39.5H112.413ZM118.804 39.6534C118.389 39.6534 118.012 39.5753 117.674 39.419C117.336 39.2599 117.068 39.0312 116.869 38.733C116.67 38.4318 116.571 38.0682 116.571 37.642C116.571 37.267 116.645 36.9631 116.792 36.7301C116.94 36.4943 117.137 36.3097 117.385 36.1761C117.632 36.0426 117.904 35.9432 118.203 35.8778C118.504 35.8097 118.806 35.7557 119.11 35.7159C119.508 35.6648 119.831 35.6264 120.078 35.6009C120.328 35.5724 120.51 35.5256 120.623 35.4602C120.74 35.3949 120.798 35.2812 120.798 35.1193V35.0852C120.798 34.6648 120.683 34.3381 120.453 34.1051C120.225 33.8722 119.88 33.7557 119.417 33.7557C118.937 33.7557 118.561 33.8608 118.288 34.071C118.015 34.2812 117.824 34.5057 117.713 34.7443L116.758 34.4034C116.929 34.0057 117.156 33.696 117.44 33.4744C117.727 33.25 118.039 33.0937 118.377 33.0057C118.718 32.9148 119.054 32.8693 119.383 32.8693C119.593 32.8693 119.835 32.8949 120.108 32.946C120.383 32.9943 120.649 33.0952 120.904 33.2486C121.163 33.402 121.377 33.6335 121.548 33.9432C121.718 34.2528 121.804 34.6676 121.804 35.1875V39.5H120.798V38.6136H120.747C120.679 38.7557 120.565 38.9077 120.406 39.0696C120.247 39.2315 120.035 39.3693 119.771 39.483C119.507 39.5966 119.184 39.6534 118.804 39.6534ZM118.957 38.75C119.355 38.75 119.69 38.6719 119.963 38.5156C120.238 38.3594 120.446 38.1577 120.585 37.9105C120.727 37.6634 120.798 37.4034 120.798 37.1307V36.2102C120.755 36.2614 120.662 36.3082 120.517 36.3509C120.375 36.3906 120.21 36.4261 120.022 36.4574C119.838 36.4858 119.657 36.5114 119.481 36.5341C119.308 36.554 119.167 36.571 119.059 36.5852C118.798 36.6193 118.554 36.6747 118.326 36.7514C118.102 36.8253 117.92 36.9375 117.781 37.0881C117.645 37.2358 117.576 37.4375 117.576 37.6932C117.576 38.0426 117.706 38.3068 117.964 38.4858C118.225 38.6619 118.556 38.75 118.957 38.75ZM126.281 42.0909C125.795 42.0909 125.378 42.0284 125.028 41.9034C124.679 41.7812 124.388 41.6193 124.155 41.4176C123.925 41.2188 123.741 41.0057 123.605 40.7784L124.406 40.2159C124.497 40.3352 124.612 40.4716 124.751 40.625C124.891 40.7812 125.081 40.9162 125.322 41.0298C125.567 41.1463 125.886 41.2045 126.281 41.2045C126.81 41.2045 127.246 41.0767 127.589 40.821C127.933 40.5653 128.105 40.1648 128.105 39.6193V38.2898H128.02C127.946 38.4091 127.841 38.5568 127.705 38.733C127.571 38.9062 127.378 39.0611 127.125 39.1974C126.875 39.331 126.537 39.3977 126.111 39.3977C125.582 39.3977 125.108 39.2727 124.688 39.0227C124.27 38.7727 123.939 38.4091 123.695 37.9318C123.453 37.4545 123.332 36.875 123.332 36.1932C123.332 35.5227 123.45 34.9389 123.686 34.4418C123.922 33.9418 124.25 33.5554 124.67 33.2827C125.091 33.0071 125.577 32.8693 126.128 32.8693C126.554 32.8693 126.892 32.9403 127.142 33.0824C127.395 33.2216 127.588 33.3807 127.722 33.5597C127.858 33.7358 127.963 33.8807 128.037 33.9943H128.139V32.9545H129.111V39.6875C129.111 40.25 128.983 40.7074 128.727 41.0597C128.474 41.4148 128.134 41.6747 127.705 41.8395C127.278 42.0071 126.804 42.0909 126.281 42.0909ZM126.247 38.4943C126.651 38.4943 126.991 38.402 127.27 38.2173C127.548 38.0327 127.76 37.767 127.905 37.4205C128.05 37.0739 128.122 36.6591 128.122 36.1761C128.122 35.7045 128.051 35.2884 127.909 34.9276C127.767 34.5668 127.557 34.2841 127.278 34.0795C127 33.875 126.656 33.7727 126.247 33.7727C125.821 33.7727 125.466 33.8807 125.182 34.0966C124.901 34.3125 124.689 34.6023 124.547 34.9659C124.408 35.3295 124.338 35.733 124.338 36.1761C124.338 36.6307 124.409 37.0327 124.551 37.3821C124.696 37.7287 124.909 38.0014 125.19 38.2003C125.474 38.3963 125.827 38.4943 126.247 38.4943ZM133.696 39.6364C133.065 39.6364 132.521 39.4972 132.064 39.2188C131.609 38.9375 131.259 38.5455 131.011 38.0426C130.767 37.5369 130.645 36.9489 130.645 36.2784C130.645 35.608 130.767 35.017 131.011 34.5057C131.259 33.9915 131.602 33.5909 132.043 33.304C132.486 33.0142 133.003 32.8693 133.594 32.8693C133.935 32.8693 134.271 32.9261 134.604 33.0398C134.936 33.1534 135.239 33.3381 135.511 33.5938C135.784 33.8466 136.001 34.1818 136.163 34.5994C136.325 35.017 136.406 35.5312 136.406 36.142V36.5682H131.361V35.6989H135.384C135.384 35.3295 135.31 35 135.162 34.7102C135.017 34.4205 134.81 34.1918 134.54 34.0241C134.273 33.8565 133.957 33.7727 133.594 33.7727C133.193 33.7727 132.847 33.8722 132.554 34.071C132.264 34.267 132.041 34.5227 131.885 34.8381C131.729 35.1534 131.651 35.4915 131.651 35.8523V36.4318C131.651 36.9261 131.736 37.3452 131.906 37.6889C132.08 38.0298 132.32 38.2898 132.626 38.4688C132.933 38.6449 133.29 38.733 133.696 38.733C133.96 38.733 134.199 38.696 134.412 38.6222C134.628 38.5455 134.814 38.4318 134.97 38.2812C135.126 38.1278 135.247 37.9375 135.332 37.7102L136.304 37.983C136.202 38.3125 136.03 38.6023 135.788 38.8523C135.547 39.0994 135.249 39.2926 134.893 39.4318C134.538 39.5682 134.139 39.6364 133.696 39.6364ZM144.158 32.9545V33.8068H140.766V32.9545H144.158ZM141.754 31.3864H142.76V37.625C142.76 37.9091 142.801 38.1222 142.884 38.2642C142.969 38.4034 143.077 38.4972 143.207 38.5455C143.341 38.5909 143.482 38.6136 143.629 38.6136C143.74 38.6136 143.831 38.608 143.902 38.5966C143.973 38.5824 144.03 38.571 144.072 38.5625L144.277 39.4659C144.209 39.4915 144.114 39.517 143.991 39.5426C143.869 39.571 143.714 39.5852 143.527 39.5852C143.243 39.5852 142.964 39.5241 142.692 39.402C142.422 39.2798 142.197 39.0938 142.018 38.8438C141.842 38.5938 141.754 38.2784 141.754 37.8977V31.3864ZM146.817 35.5625V39.5H145.811V30.7727H146.817V33.9773H146.902C147.055 33.6392 147.286 33.3707 147.592 33.1719C147.902 32.9702 148.314 32.8693 148.828 32.8693C149.274 32.8693 149.665 32.9588 150 33.1378C150.335 33.3139 150.595 33.5852 150.78 33.9517C150.967 34.3153 151.061 34.7784 151.061 35.3409V39.5H150.055V35.4091C150.055 34.8892 149.92 34.4872 149.651 34.2031C149.384 33.9162 149.013 33.7727 148.538 33.7727C148.209 33.7727 147.913 33.8423 147.652 33.9815C147.393 34.1207 147.189 34.3239 147.038 34.5909C146.891 34.858 146.817 35.1818 146.817 35.5625ZM154.827 39.6534C154.412 39.6534 154.036 39.5753 153.698 39.419C153.36 39.2599 153.091 39.0312 152.892 38.733C152.694 38.4318 152.594 38.0682 152.594 37.642C152.594 37.267 152.668 36.9631 152.816 36.7301C152.963 36.4943 153.161 36.3097 153.408 36.1761C153.655 36.0426 153.928 35.9432 154.226 35.8778C154.527 35.8097 154.83 35.7557 155.134 35.7159C155.532 35.6648 155.854 35.6264 156.101 35.6009C156.351 35.5724 156.533 35.5256 156.647 35.4602C156.763 35.3949 156.821 35.2812 156.821 35.1193V35.0852C156.821 34.6648 156.706 34.3381 156.476 34.1051C156.249 33.8722 155.904 33.7557 155.441 33.7557C154.961 33.7557 154.584 33.8608 154.311 34.071C154.039 34.2812 153.847 34.5057 153.736 34.7443L152.782 34.4034C152.952 34.0057 153.179 33.696 153.463 33.4744C153.75 33.25 154.063 33.0937 154.401 33.0057C154.742 32.9148 155.077 32.8693 155.407 32.8693C155.617 32.8693 155.858 32.8949 156.131 32.946C156.407 32.9943 156.672 33.0952 156.928 33.2486C157.186 33.402 157.401 33.6335 157.571 33.9432C157.742 34.2528 157.827 34.6676 157.827 35.1875V39.5H156.821V38.6136H156.77C156.702 38.7557 156.588 38.9077 156.429 39.0696C156.27 39.2315 156.059 39.3693 155.794 39.483C155.53 39.5966 155.208 39.6534 154.827 39.6534ZM154.98 38.75C155.378 38.75 155.713 38.6719 155.986 38.5156C156.262 38.3594 156.469 38.1577 156.608 37.9105C156.75 37.6634 156.821 37.4034 156.821 37.1307V36.2102C156.779 36.2614 156.685 36.3082 156.54 36.3509C156.398 36.3906 156.233 36.4261 156.046 36.4574C155.861 36.4858 155.681 36.5114 155.505 36.5341C155.331 36.554 155.191 36.571 155.083 36.5852C154.821 36.6193 154.577 36.6747 154.35 36.7514C154.125 36.8253 153.944 36.9375 153.804 37.0881C153.668 37.2358 153.6 37.4375 153.6 37.6932C153.6 38.0426 153.729 38.3068 153.988 38.4858C154.249 38.6619 154.58 38.75 154.98 38.75ZM160.668 35.5625V39.5H159.663V32.9545H160.634V33.9773H160.719C160.873 33.6449 161.106 33.3778 161.418 33.1761C161.731 32.9716 162.134 32.8693 162.629 32.8693C163.072 32.8693 163.46 32.9602 163.792 33.142C164.124 33.321 164.383 33.5938 164.567 33.9602C164.752 34.3239 164.844 34.7841 164.844 35.3409V39.5H163.839V35.4091C163.839 34.8949 163.705 34.4943 163.438 34.2074C163.171 33.9176 162.805 33.7727 162.339 33.7727C162.018 33.7727 161.731 33.8423 161.478 33.9815C161.228 34.1207 161.031 34.3239 160.886 34.5909C160.741 34.858 160.668 35.1818 160.668 35.5625ZM172.904 32.9545V33.8068H169.512V32.9545H172.904ZM170.5 31.3864H171.506V37.625C171.506 37.9091 171.547 38.1222 171.63 38.2642C171.715 38.4034 171.823 38.4972 171.953 38.5455C172.087 38.5909 172.228 38.6136 172.375 38.6136C172.486 38.6136 172.577 38.608 172.648 38.5966C172.719 38.5824 172.776 38.571 172.819 38.5625L173.023 39.4659C172.955 39.4915 172.86 39.517 172.738 39.5426C172.615 39.571 172.461 39.5852 172.273 39.5852C171.989 39.5852 171.711 39.5241 171.438 39.402C171.168 39.2798 170.944 39.0938 170.765 38.8438C170.588 38.5938 170.5 38.2784 170.5 37.8977V31.3864ZM175.563 35.5625V39.5H174.557V30.7727H175.563V33.9773H175.648C175.801 33.6392 176.032 33.3707 176.338 33.1719C176.648 32.9702 177.06 32.8693 177.574 32.8693C178.02 32.8693 178.411 32.9588 178.746 33.1378C179.081 33.3139 179.341 33.5852 179.526 33.9517C179.713 34.3153 179.807 34.7784 179.807 35.3409V39.5H178.801V35.4091C178.801 34.8892 178.667 34.4872 178.397 34.2031C178.13 33.9162 177.759 33.7727 177.284 33.7727C176.955 33.7727 176.659 33.8423 176.398 33.9815C176.14 34.1207 175.935 34.3239 175.784 34.5909C175.637 34.858 175.563 35.1818 175.563 35.5625ZM184.391 39.6364C183.761 39.6364 183.217 39.4972 182.759 39.2188C182.305 38.9375 181.954 38.5455 181.707 38.0426C181.462 37.5369 181.34 36.9489 181.34 36.2784C181.34 35.608 181.462 35.017 181.707 34.5057C181.954 33.9915 182.298 33.5909 182.738 33.304C183.181 33.0142 183.698 32.8693 184.289 32.8693C184.63 32.8693 184.967 32.9261 185.299 33.0398C185.631 33.1534 185.934 33.3381 186.207 33.5938C186.479 33.8466 186.697 34.1818 186.859 34.5994C187.021 35.017 187.102 35.5312 187.102 36.142V36.5682H182.056V35.6989H186.079C186.079 35.3295 186.005 35 185.857 34.7102C185.712 34.4205 185.505 34.1918 185.235 34.0241C184.968 33.8565 184.653 33.7727 184.289 33.7727C183.888 33.7727 183.542 33.8722 183.249 34.071C182.96 34.267 182.737 34.5227 182.58 34.8381C182.424 35.1534 182.346 35.4915 182.346 35.8523V36.4318C182.346 36.9261 182.431 37.3452 182.602 37.6889C182.775 38.0298 183.015 38.2898 183.322 38.4688C183.629 38.6449 183.985 38.733 184.391 38.733C184.656 38.733 184.894 38.696 185.107 38.6222C185.323 38.5455 185.509 38.4318 185.665 38.2812C185.822 38.1278 185.942 37.9375 186.028 37.7102L186.999 37.983C186.897 38.3125 186.725 38.6023 186.484 38.8523C186.242 39.0994 185.944 39.2926 185.589 39.4318C185.234 39.5682 184.835 39.6364 184.391 39.6364ZM72.9205 53.5V46.9545H73.892V47.9432H73.9602C74.0795 47.6193 74.2955 47.3565 74.608 47.1548C74.9205 46.9531 75.2727 46.8523 75.6648 46.8523C75.7386 46.8523 75.831 46.8537 75.9418 46.8565C76.0526 46.8594 76.1364 46.8636 76.1932 46.8693V47.892C76.1591 47.8835 76.081 47.8707 75.9588 47.8537C75.8395 47.8338 75.7131 47.8239 75.5795 47.8239C75.2614 47.8239 74.9773 47.8906 74.7273 48.0241C74.4801 48.1548 74.2841 48.3366 74.1392 48.5696C73.9972 48.7997 73.9261 49.0625 73.9261 49.358V53.5H72.9205ZM79.9304 53.6364C79.2997 53.6364 78.7557 53.4972 78.2983 53.2188C77.8438 52.9375 77.4929 52.5455 77.2457 52.0426C77.0014 51.5369 76.8793 50.9489 76.8793 50.2784C76.8793 49.608 77.0014 49.017 77.2457 48.5057C77.4929 47.9915 77.8366 47.5909 78.277 47.304C78.7202 47.0142 79.2372 46.8693 79.8281 46.8693C80.169 46.8693 80.5057 46.9261 80.8381 47.0398C81.1705 47.1534 81.473 47.3381 81.7457 47.5938C82.0185 47.8466 82.2358 48.1818 82.3977 48.5994C82.5597 49.017 82.6406 49.5312 82.6406 50.142V50.5682H77.5952V49.6989H81.6179C81.6179 49.3295 81.544 49 81.3963 48.7102C81.2514 48.4205 81.044 48.1918 80.7741 48.0241C80.5071 47.8565 80.1918 47.7727 79.8281 47.7727C79.4276 47.7727 79.081 47.8722 78.7884 48.071C78.4986 48.267 78.2756 48.5227 78.1193 48.8381C77.9631 49.1534 77.8849 49.4915 77.8849 49.8523V50.4318C77.8849 50.9261 77.9702 51.3452 78.1406 51.6889C78.3139 52.0298 78.554 52.2898 78.8608 52.4688C79.1676 52.6449 79.5241 52.733 79.9304 52.733C80.1946 52.733 80.4332 52.696 80.6463 52.6222C80.8622 52.5455 81.0483 52.4318 81.2045 52.2812C81.3608 52.1278 81.4815 51.9375 81.5668 51.7102L82.5384 51.983C82.4361 52.3125 82.2642 52.6023 82.0227 52.8523C81.7813 53.0994 81.483 53.2926 81.1278 53.4318C80.7727 53.5682 80.3736 53.6364 79.9304 53.6364ZM88.8068 48.4205L87.9034 48.6761C87.8466 48.5256 87.7628 48.3793 87.652 48.2372C87.544 48.0923 87.3963 47.973 87.2088 47.8793C87.0213 47.7855 86.7812 47.7386 86.4886 47.7386C86.0881 47.7386 85.7543 47.831 85.4872 48.0156C85.223 48.1974 85.0909 48.429 85.0909 48.7102C85.0909 48.9602 85.1818 49.1577 85.3636 49.3026C85.5455 49.4474 85.8295 49.5682 86.2159 49.6648L87.1875 49.9034C87.7727 50.0455 88.2088 50.2628 88.4957 50.5554C88.7827 50.8452 88.9261 51.2187 88.9261 51.6761C88.9261 52.0511 88.8182 52.3864 88.6023 52.6818C88.3892 52.9773 88.0909 53.2102 87.7074 53.3807C87.3239 53.5511 86.8778 53.6364 86.3693 53.6364C85.7017 53.6364 85.1491 53.4915 84.7116 53.2017C84.2741 52.9119 83.9972 52.4886 83.8807 51.9318L84.8352 51.6932C84.9261 52.0455 85.098 52.3097 85.3509 52.4858C85.6065 52.6619 85.9403 52.75 86.3523 52.75C86.821 52.75 87.1932 52.6506 87.4688 52.4517C87.7472 52.25 87.8864 52.0085 87.8864 51.7273C87.8864 51.5 87.8068 51.3097 87.6477 51.1562C87.4886 51 87.2443 50.8835 86.9148 50.8068L85.8239 50.5511C85.2244 50.4091 84.7841 50.1889 84.5028 49.8906C84.2244 49.5895 84.0852 49.2131 84.0852 48.7614C84.0852 48.392 84.1889 48.0653 84.3963 47.7812C84.6065 47.4972 84.892 47.2741 85.2528 47.1122C85.6165 46.9503 86.0284 46.8693 86.4886 46.8693C87.1364 46.8693 87.6449 47.0114 88.0142 47.2955C88.3864 47.5795 88.6506 47.9545 88.8068 48.4205ZM93.2866 46.9545V47.8068H89.8945V46.9545H93.2866ZM90.8832 45.3864H91.8888V51.625C91.8888 51.9091 91.93 52.1222 92.0124 52.2642C92.0977 52.4034 92.2056 52.4972 92.3363 52.5455C92.4698 52.5909 92.6104 52.6136 92.7582 52.6136C92.869 52.6136 92.9599 52.608 93.0309 52.5966C93.1019 52.5824 93.1587 52.571 93.2013 52.5625L93.4059 53.4659C93.3377 53.4915 93.2425 53.517 93.1204 53.5426C92.9982 53.571 92.8434 53.5852 92.6559 53.5852C92.3718 53.5852 92.0934 53.5241 91.8207 53.402C91.5508 53.2798 91.3263 53.0938 91.1474 52.8438C90.9712 52.5938 90.8832 52.2784 90.8832 51.8977V45.3864ZM100.833 53.6364C100.243 53.6364 99.7241 53.4957 99.2781 53.2145C98.8349 52.9332 98.4883 52.5398 98.2383 52.0341C97.9911 51.5284 97.8675 50.9375 97.8675 50.2614C97.8675 49.5795 97.9911 48.9844 98.2383 48.4759C98.4883 47.9673 98.8349 47.5724 99.2781 47.2912C99.7241 47.0099 100.243 46.8693 100.833 46.8693C101.424 46.8693 101.941 47.0099 102.385 47.2912C102.831 47.5724 103.177 47.9673 103.424 48.4759C103.674 48.9844 103.799 49.5795 103.799 50.2614C103.799 50.9375 103.674 51.5284 103.424 52.0341C103.177 52.5398 102.831 52.9332 102.385 53.2145C101.941 53.4957 101.424 53.6364 100.833 53.6364ZM100.833 52.733C101.282 52.733 101.652 52.6179 101.941 52.3878C102.231 52.1577 102.446 51.8551 102.585 51.4801C102.724 51.1051 102.794 50.6989 102.794 50.2614C102.794 49.8239 102.724 49.4162 102.585 49.0384C102.446 48.6605 102.231 48.3551 101.941 48.1222C101.652 47.8892 101.282 47.7727 100.833 47.7727C100.385 47.7727 100.015 47.8892 99.7255 48.1222C99.4357 48.3551 99.2212 48.6605 99.082 49.0384C98.9428 49.4162 98.8732 49.8239 98.8732 50.2614C98.8732 50.6989 98.9428 51.1051 99.082 51.4801C99.2212 51.8551 99.4357 52.1577 99.7255 52.3878C100.015 52.6179 100.385 52.733 100.833 52.733ZM108.249 46.9545V47.8068H104.721V46.9545H108.249ZM105.778 53.5V46.0511C105.778 45.6761 105.866 45.3636 106.042 45.1136C106.218 44.8636 106.447 44.6761 106.728 44.5511C107.009 44.4261 107.306 44.3636 107.619 44.3636C107.866 44.3636 108.067 44.3835 108.224 44.4233C108.38 44.4631 108.496 44.5 108.573 44.5341L108.283 45.4034C108.232 45.3864 108.161 45.3651 108.07 45.3395C107.982 45.3139 107.866 45.3011 107.721 45.3011C107.388 45.3011 107.148 45.3849 107.001 45.5526C106.856 45.7202 106.783 45.9659 106.783 46.2898V53.5H105.778ZM115.88 46.9545V47.8068H112.488V46.9545H115.88ZM113.477 45.3864H114.483V51.625C114.483 51.9091 114.524 52.1222 114.606 52.2642C114.691 52.4034 114.799 52.4972 114.93 52.5455C115.064 52.5909 115.204 52.6136 115.352 52.6136C115.463 52.6136 115.554 52.608 115.625 52.5966C115.696 52.5824 115.752 52.571 115.795 52.5625L116 53.4659C115.931 53.4915 115.836 53.517 115.714 53.5426C115.592 53.571 115.437 53.5852 115.25 53.5852C114.966 53.5852 114.687 53.5241 114.414 53.402C114.145 53.2798 113.92 53.0938 113.741 52.8438C113.565 52.5938 113.477 52.2784 113.477 51.8977V45.3864ZM118.539 49.5625V53.5H117.534V44.7727H118.539V47.9773H118.625C118.778 47.6392 119.008 47.3707 119.315 47.1719C119.625 46.9702 120.037 46.8693 120.551 46.8693C120.997 46.8693 121.387 46.9588 121.723 47.1378C122.058 47.3139 122.318 47.5852 122.502 47.9517C122.69 48.3153 122.784 48.7784 122.784 49.3409V53.5H121.778V49.4091C121.778 48.8892 121.643 48.4872 121.373 48.2031C121.106 47.9162 120.735 47.7727 120.261 47.7727C119.931 47.7727 119.636 47.8423 119.375 47.9815C119.116 48.1207 118.912 48.3239 118.761 48.5909C118.613 48.858 118.539 49.1818 118.539 49.5625ZM127.368 53.6364C126.737 53.6364 126.193 53.4972 125.736 53.2188C125.281 52.9375 124.93 52.5455 124.683 52.0426C124.439 51.5369 124.317 50.9489 124.317 50.2784C124.317 49.608 124.439 49.017 124.683 48.5057C124.93 47.9915 125.274 47.5909 125.714 47.304C126.158 47.0142 126.675 46.8693 127.266 46.8693C127.607 46.8693 127.943 46.9261 128.276 47.0398C128.608 47.1534 128.911 47.3381 129.183 47.5938C129.456 47.8466 129.673 48.1818 129.835 48.5994C129.997 49.017 130.078 49.5312 130.078 50.142V50.5682H125.033V49.6989H129.055C129.055 49.3295 128.982 49 128.834 48.7102C128.689 48.4205 128.482 48.1918 128.212 48.0241C127.945 47.8565 127.629 47.7727 127.266 47.7727C126.865 47.7727 126.518 47.8722 126.226 48.071C125.936 48.267 125.713 48.5227 125.557 48.8381C125.401 49.1534 125.322 49.4915 125.322 49.8523V50.4318C125.322 50.9261 125.408 51.3452 125.578 51.6889C125.751 52.0298 125.991 52.2898 126.298 52.4688C126.605 52.6449 126.962 52.733 127.368 52.733C127.632 52.733 127.871 52.696 128.084 52.6222C128.3 52.5455 128.486 52.4318 128.642 52.2812C128.798 52.1278 128.919 51.9375 129.004 51.7102L129.976 51.983C129.874 52.3125 129.702 52.6023 129.46 52.8523C129.219 53.0994 128.92 53.2926 128.565 53.4318C128.21 53.5682 127.811 53.6364 127.368 53.6364ZM134.983 53.5V46.9545H135.955V47.9432H136.023C136.142 47.6193 136.358 47.3565 136.67 47.1548C136.983 46.9531 137.335 46.8523 137.727 46.8523C137.801 46.8523 137.893 46.8537 138.004 46.8565C138.115 46.8594 138.199 46.8636 138.256 46.8693V47.892C138.222 47.8835 138.143 47.8707 138.021 47.8537C137.902 47.8338 137.776 47.8239 137.642 47.8239C137.324 47.8239 137.04 47.8906 136.79 48.0241C136.543 48.1548 136.347 48.3366 136.202 48.5696C136.06 48.7997 135.989 49.0625 135.989 49.358V53.5H134.983ZM141.993 53.6364C141.362 53.6364 140.818 53.4972 140.361 53.2188C139.906 52.9375 139.555 52.5455 139.308 52.0426C139.064 51.5369 138.942 50.9489 138.942 50.2784C138.942 49.608 139.064 49.017 139.308 48.5057C139.555 47.9915 139.899 47.5909 140.339 47.304C140.783 47.0142 141.3 46.8693 141.891 46.8693C142.232 46.8693 142.568 46.9261 142.901 47.0398C143.233 47.1534 143.536 47.3381 143.808 47.5938C144.081 47.8466 144.298 48.1818 144.46 48.5994C144.622 49.017 144.703 49.5312 144.703 50.142V50.5682H139.658V49.6989H143.68C143.68 49.3295 143.607 49 143.459 48.7102C143.314 48.4205 143.107 48.1918 142.837 48.0241C142.57 47.8565 142.254 47.7727 141.891 47.7727C141.49 47.7727 141.143 47.8722 140.851 48.071C140.561 48.267 140.338 48.5227 140.182 48.8381C140.026 49.1534 139.947 49.4915 139.947 49.8523V50.4318C139.947 50.9261 140.033 51.3452 140.203 51.6889C140.376 52.0298 140.616 52.2898 140.923 52.4688C141.23 52.6449 141.587 52.733 141.993 52.733C142.257 52.733 142.496 52.696 142.709 52.6222C142.925 52.5455 143.111 52.4318 143.267 52.2812C143.423 52.1278 143.544 51.9375 143.629 51.7102L144.601 51.983C144.499 52.3125 144.327 52.6023 144.085 52.8523C143.844 53.0994 143.545 53.2926 143.19 53.4318C142.835 53.5682 142.436 53.6364 141.993 53.6364ZM148.875 56.0909C148.389 56.0909 147.972 56.0284 147.622 55.9034C147.273 55.7812 146.982 55.6193 146.749 55.4176C146.518 55.2188 146.335 55.0057 146.199 54.7784L147 54.2159C147.091 54.3352 147.206 54.4716 147.345 54.625C147.484 54.7812 147.675 54.9162 147.916 55.0298C148.161 55.1463 148.48 55.2045 148.875 55.2045C149.403 55.2045 149.839 55.0767 150.183 54.821C150.527 54.5653 150.699 54.1648 150.699 53.6193V52.2898H150.614C150.54 52.4091 150.435 52.5568 150.298 52.733C150.165 52.9062 149.972 53.0611 149.719 53.1974C149.469 53.331 149.131 53.3977 148.705 53.3977C148.176 53.3977 147.702 53.2727 147.281 53.0227C146.864 52.7727 146.533 52.4091 146.288 51.9318C146.047 51.4545 145.926 50.875 145.926 50.1932C145.926 49.5227 146.044 48.9389 146.28 48.4418C146.516 47.9418 146.844 47.5554 147.264 47.2827C147.685 47.0071 148.17 46.8693 148.722 46.8693C149.148 46.8693 149.486 46.9403 149.736 47.0824C149.989 47.2216 150.182 47.3807 150.315 47.5597C150.452 47.7358 150.557 47.8807 150.631 47.9943H150.733V46.9545H151.705V53.6875C151.705 54.25 151.577 54.7074 151.321 55.0597C151.068 55.4148 150.727 55.6747 150.298 55.8395C149.872 56.0071 149.398 56.0909 148.875 56.0909ZM148.841 52.4943C149.244 52.4943 149.585 52.402 149.864 52.2173C150.142 52.0327 150.354 51.767 150.499 51.4205C150.643 51.0739 150.716 50.6591 150.716 50.1761C150.716 49.7045 150.645 49.2884 150.503 48.9276C150.361 48.5668 150.151 48.2841 149.872 48.0795C149.594 47.875 149.25 47.7727 148.841 47.7727C148.415 47.7727 148.06 47.8807 147.776 48.0966C147.494 48.3125 147.283 48.6023 147.141 48.9659C147.001 49.3295 146.932 49.733 146.932 50.1761C146.932 50.6307 147.003 51.0327 147.145 51.3821C147.29 51.7287 147.503 52.0014 147.784 52.2003C148.068 52.3963 148.42 52.4943 148.841 52.4943ZM153.545 53.5V46.9545H154.551V53.5H153.545ZM154.057 45.8636C153.861 45.8636 153.692 45.7969 153.55 45.6634C153.411 45.5298 153.341 45.3693 153.341 45.1818C153.341 44.9943 153.411 44.8338 153.55 44.7003C153.692 44.5668 153.861 44.5 154.057 44.5C154.253 44.5 154.42 44.5668 154.56 44.7003C154.702 44.8338 154.773 44.9943 154.773 45.1818C154.773 45.3693 154.702 45.5298 154.56 45.6634C154.42 45.7969 154.253 45.8636 154.057 45.8636ZM159.052 53.6364C158.461 53.6364 157.943 53.4957 157.497 53.2145C157.054 52.9332 156.707 52.5398 156.457 52.0341C156.21 51.5284 156.086 50.9375 156.086 50.2614C156.086 49.5795 156.21 48.9844 156.457 48.4759C156.707 47.9673 157.054 47.5724 157.497 47.2912C157.943 47.0099 158.461 46.8693 159.052 46.8693C159.643 46.8693 160.16 47.0099 160.603 47.2912C161.049 47.5724 161.396 47.9673 161.643 48.4759C161.893 48.9844 162.018 49.5795 162.018 50.2614C162.018 50.9375 161.893 51.5284 161.643 52.0341C161.396 52.5398 161.049 52.9332 160.603 53.2145C160.16 53.4957 159.643 53.6364 159.052 53.6364ZM159.052 52.733C159.501 52.733 159.87 52.6179 160.16 52.3878C160.45 52.1577 160.664 51.8551 160.804 51.4801C160.943 51.1051 161.012 50.6989 161.012 50.2614C161.012 49.8239 160.943 49.4162 160.804 49.0384C160.664 48.6605 160.45 48.3551 160.16 48.1222C159.87 47.8892 159.501 47.7727 159.052 47.7727C158.603 47.7727 158.234 47.8892 157.944 48.1222C157.654 48.3551 157.44 48.6605 157.301 49.0384C157.162 49.4162 157.092 49.8239 157.092 50.2614C157.092 50.6989 157.162 51.1051 157.301 51.4801C157.44 51.8551 157.654 52.1577 157.944 52.3878C158.234 52.6179 158.603 52.733 159.052 52.733ZM164.559 49.5625V53.5H163.553V46.9545H164.525V47.9773H164.61C164.763 47.6449 164.996 47.3778 165.309 47.1761C165.621 46.9716 166.025 46.8693 166.519 46.8693C166.962 46.8693 167.35 46.9602 167.683 47.142C168.015 47.321 168.273 47.5938 168.458 47.9602C168.643 48.3239 168.735 48.7841 168.735 49.3409V53.5H167.729V49.4091C167.729 48.8949 167.596 48.4943 167.329 48.2074C167.062 47.9176 166.695 47.7727 166.229 47.7727C165.908 47.7727 165.621 47.8423 165.369 47.9815C165.119 48.1207 164.921 48.3239 164.776 48.5909C164.631 48.858 164.559 49.1818 164.559 49.5625Z" fill="#4D4E4F"/>
</g>
<defs>
<filter id="filter0_dd_13_1042" x="0" y="0" width="212" height="95" filterUnits="userSpaceOnUse" color-interpolation-filters="sRGB">
<feFlood flood-opacity="0" result="BackgroundImageFix"/>
<feColorMatrix in="SourceAlpha" type="matrix" values="0 0 0 0 0 0 0 0 0 0 0 0 0 0 0 0 0 0 127 0" result="hardAlpha"/>
<feMorphology radius="12" operator="erode" in="SourceAlpha" result="effect1_dropShadow_13_1042"/>
<feOffset dy="20"/>
<feGaussianBlur stdDeviation="9"/>
<feComposite in2="hardAlpha" operator="out"/>
<feColorMatrix type="matrix" values="0 0 0 0 0.0352941 0 0 0 0 0.0470588 0 0 0 0 0.0745098 0 0 0 0.5 0"/>
<feBlend mode="normal" in2="BackgroundImageFix" result="effect1_dropShadow_13_1042"/>
<feColorMatrix in="SourceAlpha" type="matrix" values="0 0 0 0 0 0 0 0 0 0 0 0 0 0 0 0 0 0 127 0" result="hardAlpha"/>
<feMorphology radius="24" operator="erode" in="SourceAlpha" result="effect2_dropShadow_13_1042"/>
<feOffset dy="24"/>
<feGaussianBlur stdDeviation="6"/>
<feComposite in2="hardAlpha" operator="out"/>
<feColorMatrix type="matrix" values="0 0 0 0 0.0352941 0 0 0 0 0.0470588 0 0 0 0 0.0745098 0 0 0 1 0"/>
<feBlend mode="normal" in2="effect1_dropShadow_13_1042" result="effect2_dropShadow_13_1042"/>
<feBlend mode="normal" in="SourceGraphic" in2="effect2_dropShadow_13_1042" result="shape"/>
</filter>
</defs>
</svg>
