<svg width="120" height="36" viewBox="0 0 120 36" fill="none" xmlns="http://www.w3.org/2000/svg">
<g clip-path="url(#clip0_228_837)">
<rect width="36" height="36" rx="18" fill="#EA6F25"/>
<path d="M16.0886 11.0869L15.4631 11.8345L9.51457 10.6268L9 11.6576L18.0227 16.3912L14.5449 20.6162L11.0982 20.3596L10.699 21.1161L13.4004 22.4079L12.8903 23.4298C12.7395 23.7395 12.7129 23.918 12.8105 23.9651L12.8149 23.9607C12.8652 24.0551 13.0411 24.0167 13.3428 23.8457L14.3364 23.2838L15.7958 25.8896L16.5278 25.4472L16.0531 22.0318L20.0721 18.3068L25.3641 27L26.3622 26.416L24.7875 20.5763L25.5017 19.9039C25.753 19.6709 25.8181 19.4379 25.6968 19.2049L25.0581 18.3024C24.8836 18.152 24.6677 18.1682 24.4104 18.3511L24.233 18.4926L23.3635 15.2587L25.7944 12.8697C26.9655 11.7166 27.2834 10.4867 26.7481 9.18011L26.7437 9.18453C25.4041 8.72736 24.1915 9.11968 23.1063 10.3613L20.8617 12.9272L17.5791 12.2592L17.7077 12.0734C17.8792 11.805 17.8837 11.5897 17.721 11.4275L16.7762 10.848C16.5366 10.7447 16.3075 10.8243 16.0886 11.0869Z" fill="white"/>
<path d="M52.0327 7.27273V16H50.6264L46.5142 10.0554H46.4418V16H44.8608V7.27273H46.2756L50.3835 13.2216H50.4602V7.27273H52.0327ZM53.7553 16V7.27273H59.4315V8.59801H55.3363V10.9673H59.1374V12.2926H55.3363V14.6747H59.4656V16H53.7553ZM68.8427 11.6364C68.8427 12.5767 68.6665 13.3821 68.3143 14.0526C67.9648 14.7202 67.4876 15.2315 66.8825 15.5866C66.2802 15.9418 65.5969 16.1193 64.8327 16.1193C64.0685 16.1193 63.3839 15.9418 62.7788 15.5866C62.1765 15.2287 61.6992 14.7159 61.3469 14.0483C60.9975 13.3778 60.8228 12.5739 60.8228 11.6364C60.8228 10.696 60.9975 9.89205 61.3469 9.22443C61.6992 8.55398 62.1765 8.04119 62.7788 7.68608C63.3839 7.33097 64.0685 7.15341 64.8327 7.15341C65.5969 7.15341 66.2802 7.33097 66.8825 7.68608C67.4876 8.04119 67.9648 8.55398 68.3143 9.22443C68.6665 9.89205 68.8427 10.696 68.8427 11.6364ZM67.2532 11.6364C67.2532 10.9744 67.1495 10.4162 66.9421 9.96165C66.7376 9.50426 66.4535 9.15909 66.0898 8.92614C65.7262 8.69034 65.3072 8.57244 64.8327 8.57244C64.3583 8.57244 63.9393 8.69034 63.5756 8.92614C63.212 9.15909 62.9265 9.50426 62.7191 9.96165C62.5146 10.4162 62.4123 10.9744 62.4123 11.6364C62.4123 12.2983 62.5146 12.858 62.7191 13.3153C62.9265 13.7699 63.212 14.1151 63.5756 14.3509C63.9393 14.5838 64.3583 14.7003 64.8327 14.7003C65.3072 14.7003 65.7262 14.5838 66.0898 14.3509C66.4535 14.1151 66.7376 13.7699 66.9421 13.3153C67.1495 12.858 67.2532 12.2983 67.2532 11.6364ZM70.3374 7.27273H72.272L74.8629 13.5966H74.9652L77.5561 7.27273H79.4908V16H77.9737V10.0043H77.8928L75.4808 15.9744H74.3473L71.9354 9.99148H71.8544V16H70.3374V7.27273ZM84.1889 16V7.27273H87.5298C88.1605 7.27273 88.6847 7.37216 89.1023 7.57102C89.5227 7.76705 89.8366 8.03551 90.044 8.37642C90.2543 8.71733 90.3594 9.10369 90.3594 9.53551C90.3594 9.89062 90.2912 10.1946 90.1548 10.4474C90.0185 10.6974 89.8352 10.9006 89.6051 11.0568C89.375 11.2131 89.1179 11.3253 88.8338 11.3935V11.4787C89.1435 11.4957 89.4403 11.5909 89.7244 11.7642C90.0114 11.9347 90.2457 12.1761 90.4276 12.4886C90.6094 12.8011 90.7003 13.179 90.7003 13.6222C90.7003 14.0739 90.5909 14.4801 90.3722 14.8409C90.1534 15.1989 89.8239 15.4815 89.3835 15.6889C88.9432 15.8963 88.3892 16 87.7216 16H84.1889ZM85.7699 14.679H87.4702C88.044 14.679 88.4574 14.5696 88.7102 14.3509C88.9659 14.1293 89.0938 13.8452 89.0938 13.4986C89.0938 13.2401 89.0298 13.0071 88.902 12.7997C88.7741 12.5895 88.5923 12.4247 88.3565 12.3054C88.1207 12.1832 87.8395 12.1222 87.5128 12.1222H85.7699V14.679ZM85.7699 10.9844H87.3338C87.6065 10.9844 87.8523 10.9347 88.071 10.8352C88.2898 10.733 88.4616 10.5895 88.5866 10.4048C88.7145 10.2173 88.7784 9.99574 88.7784 9.74006C88.7784 9.40199 88.6591 9.12358 88.4205 8.90483C88.1847 8.68608 87.8338 8.5767 87.3679 8.5767H85.7699V10.9844ZM93.1964 16H91.5089L94.5813 7.27273H96.533L99.6097 16H97.9222L95.5913 9.0625H95.5231L93.1964 16ZM93.2518 12.5781H97.854V13.848H93.2518V12.5781ZM99.272 7.27273H101.058L103.192 11.1335H103.278L105.413 7.27273H107.198L104.023 12.7443V16H102.447V12.7443L99.272 7.27273ZM45.9815 28H44.294L47.3665 19.2727H49.3182L52.3949 28H50.7074L48.3764 21.0625H48.3082L45.9815 28ZM46.0369 24.5781H50.6392V25.848H46.0369V24.5781ZM55.1254 19.2727V28H53.5444V19.2727H55.1254ZM56.8374 28V19.2727H60.1101C60.7805 19.2727 61.343 19.3892 61.7976 19.6222C62.255 19.8551 62.6001 20.1818 62.8331 20.6023C63.0689 21.0199 63.1868 21.5071 63.1868 22.0639C63.1868 22.6236 63.0675 23.1094 62.8288 23.5213C62.593 23.9304 62.245 24.2472 61.7848 24.4716C61.3246 24.6932 60.7592 24.804 60.0888 24.804H57.7578V23.4915H59.8757C60.2678 23.4915 60.5888 23.4375 60.8388 23.3295C61.0888 23.2187 61.2734 23.0582 61.3928 22.848C61.5149 22.6349 61.576 22.3736 61.576 22.0639C61.576 21.7543 61.5149 21.4901 61.3928 21.2713C61.2706 21.0497 61.0845 20.8821 60.8345 20.7685C60.5845 20.652 60.2621 20.5938 59.8672 20.5938H58.4183V28H56.8374ZM61.3459 24.0455L63.5064 28H61.7422L59.62 24.0455H61.3459ZM64.642 28V19.2727H67.9148C68.5852 19.2727 69.1477 19.3977 69.6023 19.6477C70.0597 19.8977 70.4048 20.2415 70.6378 20.679C70.8736 21.1136 70.9915 21.608 70.9915 22.1619C70.9915 22.7216 70.8736 23.2187 70.6378 23.6534C70.402 24.0881 70.054 24.4304 69.5938 24.6804C69.1335 24.9276 68.5668 25.0511 67.8935 25.0511H65.7244V23.7514H67.6804C68.0724 23.7514 68.3935 23.6832 68.6435 23.5469C68.8935 23.4105 69.0781 23.223 69.1974 22.9844C69.3196 22.7457 69.3807 22.4716 69.3807 22.1619C69.3807 21.8523 69.3196 21.5795 69.1974 21.3438C69.0781 21.108 68.892 20.9247 68.6392 20.794C68.3892 20.6605 68.0668 20.5938 67.6719 20.5938H66.223V28H64.642ZM80.163 23.6364C80.163 24.5767 79.9869 25.3821 79.6346 26.0526C79.2852 26.7202 78.8079 27.2315 78.2028 27.5866C77.6005 27.9418 76.9173 28.1193 76.1531 28.1193C75.3888 28.1193 74.7042 27.9418 74.0991 27.5866C73.4968 27.2287 73.0195 26.7159 72.6673 26.0483C72.3178 25.3778 72.1431 24.5739 72.1431 23.6364C72.1431 22.696 72.3178 21.892 72.6673 21.2244C73.0195 20.554 73.4968 20.0412 74.0991 19.6861C74.7042 19.331 75.3888 19.1534 76.1531 19.1534C76.9173 19.1534 77.6005 19.331 78.2028 19.6861C78.8079 20.0412 79.2852 20.554 79.6346 21.2244C79.9869 21.892 80.163 22.696 80.163 23.6364ZM78.5735 23.6364C78.5735 22.9744 78.4698 22.4162 78.2624 21.9616C78.0579 21.5043 77.7738 21.1591 77.4102 20.9261C77.0465 20.6903 76.6275 20.5724 76.1531 20.5724C75.6786 20.5724 75.2596 20.6903 74.896 20.9261C74.5323 21.1591 74.2468 21.5043 74.0394 21.9616C73.8349 22.4162 73.7326 22.9744 73.7326 23.6364C73.7326 24.2983 73.8349 24.858 74.0394 25.3153C74.2468 25.7699 74.5323 26.1151 74.896 26.3509C75.2596 26.5838 75.6786 26.7003 76.1531 26.7003C76.6275 26.7003 77.0465 26.5838 77.4102 26.3509C77.7738 26.1151 78.0579 25.7699 78.2624 25.3153C78.4698 24.858 78.5735 24.2983 78.5735 23.6364ZM81.6577 28V19.2727H84.9304C85.6009 19.2727 86.1634 19.3892 86.6179 19.6222C87.0753 19.8551 87.4205 20.1818 87.6534 20.6023C87.8892 21.0199 88.0071 21.5071 88.0071 22.0639C88.0071 22.6236 87.8878 23.1094 87.6491 23.5213C87.4134 23.9304 87.0653 24.2472 86.6051 24.4716C86.1449 24.6932 85.5795 24.804 84.9091 24.804H82.5781V23.4915H84.696C85.0881 23.4915 85.4091 23.4375 85.6591 23.3295C85.9091 23.2187 86.0938 23.0582 86.2131 22.848C86.3352 22.6349 86.3963 22.3736 86.3963 22.0639C86.3963 21.7543 86.3352 21.4901 86.2131 21.2713C86.0909 21.0497 85.9048 20.8821 85.6548 20.7685C85.4048 20.652 85.0824 20.5938 84.6875 20.5938H83.2386V28H81.6577ZM86.1662 24.0455L88.3267 28H86.5625L84.4403 24.0455H86.1662ZM89.0788 20.598V19.2727H96.0419V20.598H93.3445V28H91.7763V20.598H89.0788Z" fill="black"/>
</g>
<defs>
<clipPath id="clip0_228_837">
<rect width="120" height="36" rx="18" fill="white"/>
</clipPath>
</defs>
</svg>
