<svg width="67" height="27" viewBox="0 0 67 27" fill="none" xmlns="http://www.w3.org/2000/svg">
<rect width="66" height="24" transform="translate(1) rotate(2.24449)" fill="#090C13"/>
<path d="M7.44011 8.85699L7.49201 7.53272L14.4497 7.80542L14.3978 9.12969L11.7025 9.02405L11.4126 16.4204L9.84559 16.3589L10.1355 8.96263L7.44011 8.85699ZM15.4492 16.5786L15.791 7.85799L17.3708 7.91991L17.2261 11.6117L21.267 11.7701L21.4117 8.07829L22.9957 8.14037L22.6539 16.8609L21.0699 16.7989L21.2151 13.0943L17.1742 12.9359L17.029 16.6405L15.4492 16.5786ZM24.3721 16.9283L24.7139 8.20771L30.3857 8.43001L30.3338 9.75428L26.2417 9.5939L26.1489 11.9614L29.9472 12.1103L29.8953 13.4345L26.097 13.2857L26.0037 15.6659L30.1298 15.8277L30.0779 17.1519L24.3721 16.9283ZM34.6298 17.3303L34.9716 8.60975L36.5514 8.67167L36.2615 16.068L40.1023 16.2185L40.0504 17.5428L34.6298 17.3303ZM43.343 8.93786L43.0012 17.6584L41.4215 17.5965L41.7633 8.87594L43.343 8.93786ZM52.2201 9.28579L51.8783 18.0064L50.4731 17.9513L46.5969 11.8502L46.5245 11.8474L46.2917 17.7874L44.7119 17.7255L45.0537 9.00491L46.4674 9.06032L50.3392 15.1655L50.4159 15.1685L50.6489 9.2242L52.2201 9.28579ZM53.5996 18.0738L53.9414 9.35325L59.6132 9.57555L59.5613 10.8998L55.4693 10.7394L55.3765 13.1069L59.1747 13.2558L59.1228 14.5801L55.3246 14.4312L55.2313 16.8115L59.3574 16.9732L59.3055 18.2975L53.5996 18.0738Z" fill="white"/>
</svg>
