<svg width="182" height="80" viewBox="0 0 182 80" fill="none" xmlns="http://www.w3.org/2000/svg">
<g filter="url(#filter0_dd_13_955)">
<rect width="170" height="54" transform="translate(6)" fill="white"/>
<path d="M76.2393 23.1193C75.6712 23.1193 75.1626 23.0128 74.7138 22.7997C74.2649 22.5838 73.9084 22.2884 73.6442 21.9134C73.3828 21.5384 73.2436 21.1094 73.2266 20.6264H74.7607C74.7891 20.9844 74.9439 21.277 75.2251 21.5043C75.5064 21.7287 75.8445 21.8409 76.2393 21.8409C76.549 21.8409 76.8246 21.7699 77.0661 21.6278C77.3075 21.4858 77.4979 21.2884 77.6371 21.0355C77.7763 20.7827 77.8445 20.4943 77.8416 20.1705C77.8445 19.8409 77.7749 19.5483 77.6328 19.2926C77.4908 19.0369 77.2962 18.8366 77.049 18.6918C76.8018 18.544 76.5178 18.4702 76.1967 18.4702C75.9354 18.4673 75.6783 18.5156 75.4254 18.6151C75.1726 18.7145 74.9723 18.8452 74.8246 19.0071L73.397 18.7727L73.853 14.2727H78.9155V15.5938H75.1612L74.9098 17.9077H74.9609C75.1229 17.7173 75.3516 17.5597 75.647 17.4347C75.9425 17.3068 76.2663 17.2429 76.6186 17.2429C77.147 17.2429 77.6186 17.3679 78.0334 17.6179C78.4482 17.8651 78.7749 18.206 79.0135 18.6406C79.2521 19.0753 79.3714 19.5724 79.3714 20.1321C79.3714 20.7088 79.2379 21.223 78.9709 21.6747C78.7067 22.1236 78.3388 22.4773 77.8672 22.7358C77.3984 22.9915 76.8558 23.1193 76.2393 23.1193ZM84.0249 23.1662C83.3232 23.1662 82.7209 22.9886 82.218 22.6335C81.718 22.2756 81.3331 21.7599 81.0632 21.0866C80.7962 20.4105 80.6626 19.5966 80.6626 18.6449C80.6655 17.6932 80.8004 16.8835 81.0675 16.2159C81.3374 15.5455 81.7223 15.0341 82.2223 14.6818C82.7251 14.3295 83.326 14.1534 84.0249 14.1534C84.7237 14.1534 85.3246 14.3295 85.8274 14.6818C86.3303 15.0341 86.7152 15.5455 86.9822 16.2159C87.2521 16.8864 87.3871 17.696 87.3871 18.6449C87.3871 19.5994 87.2521 20.4148 86.9822 21.0909C86.7152 21.7642 86.3303 22.2784 85.8274 22.6335C85.3274 22.9886 84.7266 23.1662 84.0249 23.1662ZM84.0249 21.8324C84.5703 21.8324 85.0007 21.5639 85.3161 21.027C85.6342 20.4872 85.7933 19.6932 85.7933 18.6449C85.7933 17.9517 85.7209 17.3693 85.576 16.8977C85.4311 16.4261 85.2266 16.071 84.9624 15.8324C84.6982 15.5909 84.3857 15.4702 84.0249 15.4702C83.4822 15.4702 83.0533 15.7401 82.7379 16.2798C82.4226 16.8168 82.2635 17.6051 82.2607 18.6449C82.2578 19.3409 82.3274 19.9261 82.4695 20.4006C82.6143 20.875 82.8189 21.233 83.0831 21.4744C83.3473 21.7131 83.6612 21.8324 84.0249 21.8324ZM91.8647 23V14.2727H93.4457V18.2827H93.5522L96.957 14.2727H98.8874L95.5124 18.1889L98.9173 23H97.0167L94.413 19.2585L93.4457 20.4006V23H91.8647ZM99.9858 14.2727H101.92L104.511 20.5966H104.614L107.205 14.2727H109.139V23H107.622V17.0043H107.541L105.129 22.9744H103.996L101.584 16.9915H101.503V23H99.9858V14.2727Z" fill="#090C13"/>
<path d="M19.0568 39V30.2727H24.2898V31.2102H20.1136V34.1591H23.8977V35.0966H20.1136V39H19.0568ZM25.8931 39V32.4545H26.8647V33.4432H26.9329C27.0522 33.1193 27.2681 32.8565 27.5806 32.6548C27.8931 32.4531 28.2454 32.3523 28.6374 32.3523C28.7113 32.3523 28.8036 32.3537 28.9144 32.3565C29.0252 32.3594 29.109 32.3636 29.1658 32.3693V33.392C29.1317 33.3835 29.0536 33.3707 28.9315 33.3537C28.8121 33.3338 28.6857 33.3239 28.5522 33.3239C28.234 33.3239 27.9499 33.3906 27.6999 33.5241C27.4528 33.6548 27.2567 33.8366 27.1119 34.0696C26.9698 34.2997 26.8988 34.5625 26.8988 34.858V39H25.8931ZM32.8178 39.1364C32.2269 39.1364 31.7085 38.9957 31.2624 38.7145C30.8192 38.4332 30.4727 38.0398 30.2227 37.5341C29.9755 37.0284 29.8519 36.4375 29.8519 35.7614C29.8519 35.0795 29.9755 34.4844 30.2227 33.9759C30.4727 33.4673 30.8192 33.0724 31.2624 32.7912C31.7085 32.5099 32.2269 32.3693 32.8178 32.3693C33.4087 32.3693 33.9258 32.5099 34.369 32.7912C34.815 33.0724 35.1616 33.4673 35.4087 33.9759C35.6587 34.4844 35.7837 35.0795 35.7837 35.7614C35.7837 36.4375 35.6587 37.0284 35.4087 37.5341C35.1616 38.0398 34.815 38.4332 34.369 38.7145C33.9258 38.9957 33.4087 39.1364 32.8178 39.1364ZM32.8178 38.233C33.2667 38.233 33.636 38.1179 33.9258 37.8878C34.2156 37.6577 34.43 37.3551 34.5692 36.9801C34.7085 36.6051 34.7781 36.1989 34.7781 35.7614C34.7781 35.3239 34.7085 34.9162 34.5692 34.5384C34.43 34.1605 34.2156 33.8551 33.9258 33.6222C33.636 33.3892 33.2667 33.2727 32.8178 33.2727C32.369 33.2727 31.9996 33.3892 31.7099 33.6222C31.4201 33.8551 31.2056 34.1605 31.0664 34.5384C30.9272 34.9162 30.8576 35.3239 30.8576 35.7614C30.8576 36.1989 30.9272 36.6051 31.0664 36.9801C31.2056 37.3551 31.4201 37.6577 31.7099 37.8878C31.9996 38.1179 32.369 38.233 32.8178 38.233ZM37.3189 39V32.4545H38.2905V33.4773H38.3757C38.5121 33.1278 38.7322 32.8565 39.0362 32.6634C39.3402 32.4673 39.7053 32.3693 40.1314 32.3693C40.5632 32.3693 40.9226 32.4673 41.2095 32.6634C41.4993 32.8565 41.7251 33.1278 41.8871 33.4773H41.9553C42.1229 33.1392 42.3743 32.8707 42.7095 32.6719C43.0447 32.4702 43.4467 32.3693 43.9155 32.3693C44.5007 32.3693 44.9794 32.5526 45.3516 32.919C45.7237 33.2827 45.9098 33.8494 45.9098 34.6193V39H44.9041V34.6193C44.9041 34.1364 44.772 33.7912 44.5078 33.5838C44.2436 33.3764 43.9325 33.2727 43.5746 33.2727C43.1143 33.2727 42.7578 33.4119 42.505 33.6903C42.2521 33.9659 42.1257 34.3153 42.1257 34.7386V39H41.103V34.517C41.103 34.1449 40.9822 33.8452 40.7408 33.6179C40.4993 33.3878 40.1882 33.2727 39.8075 33.2727C39.5462 33.2727 39.3018 33.3423 39.0746 33.4815C38.8501 33.6207 38.6683 33.8139 38.5291 34.0611C38.3928 34.3054 38.3246 34.5881 38.3246 34.9091V39H37.3189ZM53.9702 32.4545V33.3068H50.5781V32.4545H53.9702ZM51.5668 30.8864H52.5724V37.125C52.5724 37.4091 52.6136 37.6222 52.696 37.7642C52.7813 37.9034 52.8892 37.9972 53.0199 38.0455C53.1534 38.0909 53.294 38.1136 53.4418 38.1136C53.5526 38.1136 53.6435 38.108 53.7145 38.0966C53.7855 38.0824 53.8423 38.071 53.8849 38.0625L54.0895 38.9659C54.0213 38.9915 53.9261 39.017 53.804 39.0426C53.6818 39.071 53.527 39.0852 53.3395 39.0852C53.0554 39.0852 52.777 39.0241 52.5043 38.902C52.2344 38.7798 52.0099 38.5938 51.831 38.3438C51.6548 38.0938 51.5668 37.7784 51.5668 37.3977V30.8864ZM56.6293 35.0625V39H55.6236V30.2727H56.6293V33.4773H56.7145C56.8679 33.1392 57.098 32.8707 57.4048 32.6719C57.7145 32.4702 58.1264 32.3693 58.6406 32.3693C59.0866 32.3693 59.4773 32.4588 59.8125 32.6378C60.1477 32.8139 60.4077 33.0852 60.5923 33.4517C60.7798 33.8153 60.8736 34.2784 60.8736 34.8409V39H59.8679V34.9091C59.8679 34.3892 59.733 33.9872 59.4631 33.7031C59.196 33.4162 58.8253 33.2727 58.3509 33.2727C58.0213 33.2727 57.7259 33.3423 57.4645 33.4815C57.206 33.6207 57.0014 33.8239 56.8509 34.0909C56.7031 34.358 56.6293 34.6818 56.6293 35.0625ZM65.4577 39.1364C64.8271 39.1364 64.283 38.9972 63.8256 38.7188C63.3711 38.4375 63.0202 38.0455 62.7731 37.5426C62.5288 37.0369 62.4066 36.4489 62.4066 35.7784C62.4066 35.108 62.5288 34.517 62.7731 34.0057C63.0202 33.4915 63.364 33.0909 63.8043 32.804C64.2475 32.5142 64.7646 32.3693 65.3555 32.3693C65.6964 32.3693 66.033 32.4261 66.3654 32.5398C66.6978 32.6534 67.0004 32.8381 67.2731 33.0938C67.5458 33.3466 67.7631 33.6818 67.9251 34.0994C68.087 34.517 68.168 35.0312 68.168 35.642V36.0682H63.1225V35.1989H67.1452C67.1452 34.8295 67.0714 34.5 66.9237 34.2102C66.7788 33.9205 66.5714 33.6918 66.3015 33.5241C66.0344 33.3565 65.7191 33.2727 65.3555 33.2727C64.9549 33.2727 64.6083 33.3722 64.3157 33.571C64.0259 33.767 63.8029 34.0227 63.6467 34.3381C63.4904 34.6534 63.4123 34.9915 63.4123 35.3523V35.9318C63.4123 36.4261 63.4975 36.8452 63.668 37.1889C63.8413 37.5298 64.0813 37.7898 64.3881 37.9688C64.695 38.1449 65.0515 38.233 65.4577 38.233C65.7219 38.233 65.9606 38.196 66.1737 38.1222C66.3896 38.0455 66.5756 37.9318 66.7319 37.7812C66.8881 37.6278 67.0089 37.4375 67.0941 37.2102L68.0657 37.483C67.9634 37.8125 67.7915 38.1023 67.5501 38.3523C67.3086 38.5994 67.0103 38.7926 66.6552 38.9318C66.3001 39.0682 65.9009 39.1364 65.4577 39.1364ZM75.7319 39.1364C75.1183 39.1364 74.5898 38.9915 74.1467 38.7017C73.7035 38.4119 73.3626 38.0128 73.1239 37.5043C72.8853 36.9957 72.766 36.4148 72.766 35.7614C72.766 35.0966 72.8881 34.5099 73.1325 34.0014C73.3796 33.4901 73.7234 33.0909 74.1637 32.804C74.6069 32.5142 75.1239 32.3693 75.7148 32.3693C76.1751 32.3693 76.5898 32.4545 76.9592 32.625C77.3285 32.7955 77.631 33.0341 77.8668 33.3409C78.1026 33.6477 78.2489 34.0057 78.3058 34.4148H77.3001C77.2234 34.1165 77.0529 33.8523 76.7887 33.6222C76.5273 33.3892 76.1751 33.2727 75.7319 33.2727C75.3398 33.2727 74.9961 33.375 74.7006 33.5795C74.408 33.7812 74.1793 34.0668 74.0146 34.4361C73.8526 34.8026 73.7717 35.233 73.7717 35.7273C73.7717 36.233 73.8512 36.6733 74.0103 37.0483C74.1722 37.4233 74.3995 37.7145 74.6921 37.9219C74.9876 38.1293 75.3342 38.233 75.7319 38.233C75.9933 38.233 76.2305 38.1875 76.4435 38.0966C76.6566 38.0057 76.837 37.875 76.9847 37.7045C77.1325 37.5341 77.2376 37.3295 77.3001 37.0909H78.3058C78.2489 37.4773 78.1083 37.8253 77.8839 38.1349C77.6623 38.4418 77.3683 38.6861 77.0018 38.8679C76.6381 39.0469 76.2148 39.1364 75.7319 39.1364ZM82.435 39.1364C81.8441 39.1364 81.3256 38.9957 80.8796 38.7145C80.4364 38.4332 80.0898 38.0398 79.8398 37.5341C79.5927 37.0284 79.4691 36.4375 79.4691 35.7614C79.4691 35.0795 79.5927 34.4844 79.8398 33.9759C80.0898 33.4673 80.4364 33.0724 80.8796 32.7912C81.3256 32.5099 81.8441 32.3693 82.435 32.3693C83.0259 32.3693 83.543 32.5099 83.9862 32.7912C84.4322 33.0724 84.7788 33.4673 85.0259 33.9759C85.2759 34.4844 85.4009 35.0795 85.4009 35.7614C85.4009 36.4375 85.2759 37.0284 85.0259 37.5341C84.7788 38.0398 84.4322 38.4332 83.9862 38.7145C83.543 38.9957 83.0259 39.1364 82.435 39.1364ZM82.435 38.233C82.8839 38.233 83.2532 38.1179 83.543 37.8878C83.8327 37.6577 84.0472 37.3551 84.1864 36.9801C84.3256 36.6051 84.3952 36.1989 84.3952 35.7614C84.3952 35.3239 84.3256 34.9162 84.1864 34.5384C84.0472 34.1605 83.8327 33.8551 83.543 33.6222C83.2532 33.3892 82.8839 33.2727 82.435 33.2727C81.9862 33.2727 81.6168 33.3892 81.3271 33.6222C81.0373 33.8551 80.8228 34.1605 80.6836 34.5384C80.5444 34.9162 80.4748 35.3239 80.4748 35.7614C80.4748 36.1989 80.5444 36.6051 80.6836 36.9801C80.8228 37.3551 81.0373 37.6577 81.3271 37.8878C81.6168 38.1179 81.9862 38.233 82.435 38.233ZM88.8622 39.1534C88.4474 39.1534 88.071 39.0753 87.733 38.919C87.3949 38.7599 87.1264 38.5312 86.9276 38.233C86.7287 37.9318 86.6293 37.5682 86.6293 37.142C86.6293 36.767 86.7031 36.4631 86.8509 36.2301C86.9986 35.9943 87.196 35.8097 87.4432 35.6761C87.6903 35.5426 87.9631 35.4432 88.2614 35.3778C88.5625 35.3097 88.8651 35.2557 89.169 35.2159C89.5668 35.1648 89.8892 35.1264 90.1364 35.1009C90.3864 35.0724 90.5682 35.0256 90.6818 34.9602C90.7983 34.8949 90.8565 34.7812 90.8565 34.6193V34.5852C90.8565 34.1648 90.7415 33.8381 90.5114 33.6051C90.2841 33.3722 89.9389 33.2557 89.4759 33.2557C88.9957 33.2557 88.6193 33.3608 88.3466 33.571C88.0739 33.7812 87.8821 34.0057 87.7713 34.2443L86.8168 33.9034C86.9872 33.5057 87.2145 33.196 87.4986 32.9744C87.7855 32.75 88.098 32.5937 88.4361 32.5057C88.777 32.4148 89.1122 32.3693 89.4418 32.3693C89.652 32.3693 89.8935 32.3949 90.1662 32.446C90.4418 32.4943 90.7074 32.5952 90.9631 32.7486C91.2216 32.902 91.4361 33.1335 91.6065 33.4432C91.777 33.7528 91.8622 34.1676 91.8622 34.6875V39H90.8565V38.1136H90.8054C90.7372 38.2557 90.6236 38.4077 90.4645 38.5696C90.3054 38.7315 90.0938 38.8693 89.8295 38.983C89.5653 39.0966 89.2429 39.1534 88.8622 39.1534ZM89.0156 38.25C89.4134 38.25 89.7486 38.1719 90.0213 38.0156C90.2969 37.8594 90.5043 37.6577 90.6435 37.4105C90.7855 37.1634 90.8565 36.9034 90.8565 36.6307V35.7102C90.8139 35.7614 90.7202 35.8082 90.5753 35.8509C90.4332 35.8906 90.2685 35.9261 90.081 35.9574C89.8963 35.9858 89.7159 36.0114 89.5398 36.0341C89.3665 36.054 89.2259 36.071 89.1179 36.0852C88.8565 36.1193 88.6122 36.1747 88.3849 36.2514C88.1605 36.3253 87.9787 36.4375 87.8395 36.5881C87.7031 36.7358 87.6349 36.9375 87.6349 37.1932C87.6349 37.5426 87.7642 37.8068 88.0227 37.9858C88.2841 38.1619 88.6151 38.25 89.0156 38.25ZM98.3342 33.9205L97.4308 34.1761C97.3739 34.0256 97.2901 33.8793 97.1793 33.7372C97.0714 33.5923 96.9237 33.473 96.7362 33.3793C96.5487 33.2855 96.3086 33.2386 96.016 33.2386C95.6154 33.2386 95.2816 33.331 95.0146 33.5156C94.7504 33.6974 94.6183 33.929 94.6183 34.2102C94.6183 34.4602 94.7092 34.6577 94.891 34.8026C95.0728 34.9474 95.3569 35.0682 95.7433 35.1648L96.7148 35.4034C97.3001 35.5455 97.7362 35.7628 98.0231 36.0554C98.31 36.3452 98.4535 36.7187 98.4535 37.1761C98.4535 37.5511 98.3455 37.8864 98.1296 38.1818C97.9165 38.4773 97.6183 38.7102 97.2347 38.8807C96.8512 39.0511 96.4052 39.1364 95.8967 39.1364C95.229 39.1364 94.6765 38.9915 94.239 38.7017C93.8015 38.4119 93.5245 37.9886 93.408 37.4318L94.3626 37.1932C94.4535 37.5455 94.6254 37.8097 94.8782 37.9858C95.1339 38.1619 95.4677 38.25 95.8796 38.25C96.3484 38.25 96.7205 38.1506 96.9961 37.9517C97.2745 37.75 97.4137 37.5085 97.4137 37.2273C97.4137 37 97.3342 36.8097 97.1751 36.6562C97.016 36.5 96.7717 36.3835 96.4421 36.3068L95.3512 36.0511C94.7518 35.9091 94.3114 35.6889 94.0302 35.3906C93.7518 35.0895 93.6126 34.7131 93.6126 34.2614C93.6126 33.892 93.7163 33.5653 93.9237 33.2812C94.1339 32.9972 94.4194 32.7741 94.7802 32.6122C95.1438 32.4503 95.5558 32.3693 96.016 32.3693C96.6637 32.3693 97.1722 32.5114 97.5415 32.7955C97.9137 33.0795 98.1779 33.4545 98.3342 33.9205ZM102.814 32.4545V33.3068H99.4219V32.4545H102.814ZM100.411 30.8864H101.416V37.125C101.416 37.4091 101.457 37.6222 101.54 37.7642C101.625 37.9034 101.733 37.9972 101.864 38.0455C101.997 38.0909 102.138 38.1136 102.286 38.1136C102.396 38.1136 102.487 38.108 102.558 38.0966C102.629 38.0824 102.686 38.071 102.729 38.0625L102.933 38.9659C102.865 38.9915 102.77 39.017 102.648 39.0426C102.526 39.071 102.371 39.0852 102.183 39.0852C101.899 39.0852 101.621 39.0241 101.348 38.902C101.078 38.7798 100.854 38.5938 100.675 38.3438C100.499 38.0938 100.411 37.7784 100.411 37.3977V30.8864Z" fill="#4D4E4F"/>
<rect width="54" height="54" transform="translate(122)" fill="#EA6F25"/>
<path fill-rule="evenodd" clip-rule="evenodd" d="M140.421 13.9868C136.178 13.9868 132.421 16.6849 132.421 21.8359C132.421 22.9151 132.987 24.4931 133.269 25.1472L140.421 39.9868V25.1655C140.388 25.1664 140.354 25.1669 140.321 25.1669C138.333 25.1669 136.721 23.5372 136.721 21.5269C136.721 19.5165 138.333 17.8868 140.321 17.8868C140.354 17.8868 140.388 17.8873 140.421 17.8882V13.9868ZM140.421 25.1655C142.363 25.1119 143.921 23.5034 143.921 21.5269C143.921 19.5504 142.363 17.9418 140.421 17.8882V13.9868C144.663 13.9868 148.421 16.6849 148.421 21.8359C148.421 22.9151 147.855 24.4931 147.572 25.1472L140.421 39.9868V25.1655Z" fill="white"/>
<path fill-rule="evenodd" clip-rule="evenodd" d="M159.983 22C157.016 22 154.387 23.8666 154.387 27.43C154.387 28.1766 154.783 29.2683 154.981 29.7208L159.983 39.9869V29.7332C159.96 29.7338 159.937 29.7341 159.913 29.7341C158.522 29.7341 157.395 28.6067 157.395 27.2159C157.395 25.8252 158.522 24.6978 159.913 24.6978C159.937 24.6978 159.96 24.6981 159.983 24.6987V22ZM159.983 29.7332C161.342 29.6961 162.431 28.5833 162.431 27.2159C162.431 25.8486 161.342 24.7358 159.983 24.6987V22C162.951 22 165.579 23.8666 165.579 27.43C165.579 28.1766 165.183 29.2683 164.986 29.7208L159.983 39.9869V29.7332Z" fill="white"/>
<line x1="140.32" y1="39.5132" x2="160.32" y2="39.4992" stroke="white" stroke-dasharray="1 1"/>
</g>
<defs>
<filter id="filter0_dd_13_955" x="0" y="0" width="182" height="80" filterUnits="userSpaceOnUse" color-interpolation-filters="sRGB">
<feFlood flood-opacity="0" result="BackgroundImageFix"/>
<feColorMatrix in="SourceAlpha" type="matrix" values="0 0 0 0 0 0 0 0 0 0 0 0 0 0 0 0 0 0 127 0" result="hardAlpha"/>
<feMorphology radius="12" operator="erode" in="SourceAlpha" result="effect1_dropShadow_13_955"/>
<feOffset dy="20"/>
<feGaussianBlur stdDeviation="9"/>
<feComposite in2="hardAlpha" operator="out"/>
<feColorMatrix type="matrix" values="0 0 0 0 0.0352941 0 0 0 0 0.0470588 0 0 0 0 0.0745098 0 0 0 0.5 0"/>
<feBlend mode="normal" in2="BackgroundImageFix" result="effect1_dropShadow_13_955"/>
<feColorMatrix in="SourceAlpha" type="matrix" values="0 0 0 0 0 0 0 0 0 0 0 0 0 0 0 0 0 0 127 0" result="hardAlpha"/>
<feMorphology radius="24" operator="erode" in="SourceAlpha" result="effect2_dropShadow_13_955"/>
<feOffset dy="24"/>
<feGaussianBlur stdDeviation="6"/>
<feComposite in2="hardAlpha" operator="out"/>
<feColorMatrix type="matrix" values="0 0 0 0 0.0352941 0 0 0 0 0.0470588 0 0 0 0 0.0745098 0 0 0 1 0"/>
<feBlend mode="normal" in2="effect1_dropShadow_13_955" result="effect2_dropShadow_13_955"/>
<feBlend mode="normal" in="SourceGraphic" in2="effect2_dropShadow_13_955" result="shape"/>
</filter>
</defs>
</svg>
