<svg width="80" height="70" viewBox="0 0 80 70" fill="none" xmlns="http://www.w3.org/2000/svg">
<rect width="80" height="70" fill="#090C13"/>
<path d="M71.618 48.5L58.8285 30.7368L46.0391 48.5H71.618Z" fill="url(#paint0_linear_208_947)"/>
<path d="M48.1708 28.6053L42.4866 21.5L38.934 25.0526C33.2498 30.7368 34.6708 26.4737 31.8287 29.3158L12.6445 48.5H65.934L50.3024 27.1842L48.1708 28.6053Z" fill="url(#paint1_linear_208_947)"/>
<path d="M26.1445 25.7632L8.38135 48.5H50.3024C42.4866 41.3948 41.7761 39.2632 38.934 39.2632C36.6603 39.2632 35.1445 38.7895 34.6708 38.5527L26.1445 25.7632Z" fill="url(#paint2_linear_208_947)"/>
<defs>
<linearGradient id="paint0_linear_208_947" x1="54.9064" y1="42.8906" x2="72.765" y2="48.045" gradientUnits="userSpaceOnUse">
<stop stop-color="#8F2F23"/>
<stop offset="1" stop-color="#C65D36"/>
</linearGradient>
<linearGradient id="paint1_linear_208_947" x1="31.1182" y1="39.9737" x2="65.9689" y2="53.7605" gradientUnits="userSpaceOnUse">
<stop stop-color="#8F2F23"/>
<stop offset="1" stop-color="#C65D36"/>
</linearGradient>
<linearGradient id="paint2_linear_208_947" x1="25.434" y1="26.4737" x2="35.3813" y2="49.9211" gradientUnits="userSpaceOnUse">
<stop stop-color="#A53B22"/>
<stop offset="1" stop-color="#C65D36"/>
</linearGradient>
</defs>
</svg>
