<svg width="20" height="20" viewBox="0 0 20 20" fill="none" xmlns="http://www.w3.org/2000/svg">
<circle cx="10" cy="10" r="10" fill="black" fill-opacity="1"></circle>
<path fill-rule="evenodd" clip-rule="evenodd" d="M4.65449 6.55722C4.65449 5.70376 5.09361 4.94827 5.7678 4.48566C5.76722 4.46901 5.76693 4.45228 5.76693 4.43549C5.76693 3.61465 6.46355 2.94922 7.32287 2.94922C8.18219 2.94922 8.87881 3.61465 8.87881 4.43549C8.87881 4.45228 8.87852 4.46901 8.87794 4.48566C9.55213 4.94827 9.99125 5.70376 9.99125 6.55722C9.99125 6.67862 9.98237 6.79803 9.96519 6.9149C10.4301 7.46862 10.7082 8.17162 10.7082 8.93667C10.7082 10.6143 9.37088 11.9935 7.65899 12.1547V16.0695C7.65899 16.3092 7.46949 16.4922 7.23574 16.4922C7.00883 16.4922 6.8125 16.3029 6.8125 16.0695V12.1339C5.18496 11.8989 3.9375 10.5569 3.9375 8.93667C3.9375 8.17162 4.21562 7.46862 4.68055 6.9149C4.66337 6.79803 4.65449 6.67862 4.65449 6.55722ZM13.5887 16.0695C13.5887 16.3092 13.3992 16.4922 13.1654 16.4922C12.9385 16.4922 12.7422 16.3029 12.7422 16.0695V14.0654C11.5407 13.8733 10.625 12.8753 10.625 11.673C10.625 11.0991 10.8336 10.5718 11.1824 10.1564C11.1695 10.0687 11.1628 9.97917 11.1628 9.8881C11.1628 9.2479 11.4922 8.68119 11.998 8.33417C11.9975 8.32168 11.9973 8.30913 11.9973 8.29653C11.9973 7.6808 12.5199 7.18164 13.1645 7.18164C13.8091 7.18164 14.3316 7.6808 14.3316 8.29653C14.3316 8.30913 14.3314 8.32168 14.331 8.33417C14.8367 8.68119 15.1661 9.2479 15.1661 9.8881C15.1661 9.97917 15.1594 10.0687 15.1465 10.1564C15.4953 10.5718 15.7039 11.0991 15.7039 11.673C15.7039 12.8746 14.7892 13.8722 13.5887 14.0651V16.0695Z" fill="#9FEE6F"></path>
</svg>