<svg width="20" height="20" viewBox="0 0 20 20" fill="none" xmlns="http://www.w3.org/2000/svg">
<circle cx="10" cy="10" r="10" fill="black" fill-opacity="0.6"></circle>
<path fill-rule="evenodd" clip-rule="evenodd" d="M16.4128 7.12688C16.3491 7.0653 16.2483 7.04291 16.1513 7.06888L14.5678 7.49319C14.4124 7.54706 14.3107 7.6169 14.2028 7.69172C13.9612 7.8591 13.5951 8.11275 12.4228 8.42686L9.79507 9.13096L7.16674 9.83522C5.9943 10.1494 5.55056 10.1127 5.25792 10.0885C5.12736 10.0774 5.00409 10.068 4.84182 10.0993L3.25934 10.5233C3.16284 10.5491 3.08639 10.619 3.06158 10.7043C3.03594 10.7889 3.06655 10.8759 3.14069 10.9278C3.93994 11.4949 4.99308 11.6576 6.27559 11.4174L6.37628 11.7932C6.14184 12.0223 6.03172 12.365 6.12236 12.7033C6.25638 13.2035 6.77011 13.4996 7.26865 13.366C7.76793 13.2322 8.06523 12.7188 7.93121 12.2186C7.84057 11.8803 7.57342 11.6388 7.25595 11.5575L7.16113 11.2036L10.1366 10.4057L13.1124 9.60896L13.2071 9.96222C12.9725 10.1913 12.8618 10.5344 12.9526 10.8731C13.0865 11.3729 13.6005 11.6694 14.0996 11.5356C14.5991 11.4018 14.8959 10.888 14.762 10.3883C14.6714 10.05 14.4041 9.80848 14.0869 9.72711L13.9862 9.35131C15.217 8.91809 16.0475 8.25052 16.4558 7.36006C16.4937 7.27808 16.4772 7.18733 16.4128 7.12688ZM7.11848 12.8061C6.92769 12.8572 6.73276 12.7441 6.68172 12.5536C6.63084 12.3637 6.74283 12.1673 6.93361 12.1162C7.12381 12.0652 7.32075 12.1788 7.37164 12.3687C7.42283 12.5592 7.30882 12.7551 7.11848 12.8061ZM13.9496 10.9757C13.7587 11.0269 13.5631 10.9139 13.5121 10.7234C13.4612 10.5335 13.5738 10.337 13.7647 10.2858C13.9554 10.2347 14.1514 10.3485 14.2023 10.5384C14.2534 10.7289 14.1402 10.9246 13.9496 10.9757Z" fill="#FFA95A"></path>
<path fill-rule="evenodd" clip-rule="evenodd" d="M7.11848 12.8061C6.92769 12.8572 6.73276 12.7441 6.68172 12.5536C6.63084 12.3637 6.74283 12.1673 6.93361 12.1162C7.12381 12.0652 7.32075 12.1788 7.37164 12.3687C7.42283 12.5592 7.30882 12.7551 7.11848 12.8061Z" fill="#FFA95A"></path>
<path fill-rule="evenodd" clip-rule="evenodd" d="M13.9496 10.9757C13.7587 11.0269 13.5631 10.9139 13.5121 10.7234C13.4612 10.5335 13.5738 10.337 13.7647 10.2858C13.9554 10.2347 14.1514 10.3485 14.2023 10.5384C14.2534 10.7289 14.1402 10.9246 13.9496 10.9757Z" fill="#FFA95A"></path>
</svg>