<svg width="37" height="37" viewBox="0 0 37 37" fill="none" xmlns="http://www.w3.org/2000/svg">
<circle cx="18.5" cy="18.5" r="18.5" width="37" height="37" fill="black"></circle>
<path fill-rule="evenodd" clip-rule="evenodd" d="M25.4506 17.6269H27.5579C27.8751 17.6269 28.1327 17.3693 28.1327 17.0514C28.1327 16.7337 27.8751 16.476 27.5579 16.476H26.0889L24.8502 14.385C24.6649 14.0654 24.3013 13.8543 23.9181 13.8543C23.6179 13.8543 23.3433 13.9758 23.1519 14.174L20.7889 16.5335C20.7074 16.6151 20.6389 16.7065 20.5865 16.8081C20.5453 16.8882 20.5143 16.9746 20.4944 17.0675C20.4781 17.143 20.4698 17.2229 20.4698 17.3072C20.4698 17.71 20.6805 18.0489 21.0126 18.2471L23.1519 19.5451V22.1668C23.1519 22.4847 23.409 22.7423 23.7264 22.7423C24.0437 22.7423 24.3013 22.4847 24.3013 22.1668V18.586L22.8643 17.531L24.3457 16.0283L25.4506 17.6269ZM26.2167 14.3019C26.8555 14.3019 27.366 13.7904 27.366 13.151C27.366 12.5115 26.8555 12 26.2167 12C25.5784 12 25.0675 12.5115 25.0675 13.151C25.0675 13.7904 25.5784 14.3019 26.2167 14.3019ZM19.1926 24.3408C18.6002 24.3408 18.0318 24.1049 17.6125 23.6853C17.1933 23.2656 16.9579 22.6965 16.9579 22.1028C16.9579 21.5093 17.1933 20.94 17.6125 20.5203C18.0318 20.1006 18.6002 19.8649 19.1926 19.8649C19.371 19.8649 19.547 19.8862 19.7175 19.9274C19.8921 19.9696 20.0612 20.0328 20.2206 20.1153C20.4225 20.2202 20.6092 20.3561 20.7732 20.5203C21.1924 20.94 21.4277 21.5093 21.4277 22.1028C21.4277 22.6965 21.1924 23.2656 20.7732 23.6853C20.354 24.1049 19.7856 24.3408 19.1926 24.3408ZM19.1926 18.9057C18.3458 18.9057 17.5338 19.2426 16.9352 19.8421C16.3362 20.4416 16 21.2548 16 22.1028C16 22.9508 16.3362 23.7639 16.9352 24.3635C17.5338 24.9631 18.3458 25.2998 19.1926 25.2998C20.0395 25.2998 20.8515 24.9631 21.4505 24.3635C22.0489 23.7639 22.3857 22.9508 22.3857 22.1028C22.3857 21.2548 22.0489 20.4416 21.4505 19.8421C20.8515 19.2426 20.0395 18.9057 19.1926 18.9057ZM28.1327 24.3408C27.5397 24.3408 26.9714 24.1049 26.5521 23.6853C26.3024 23.4353 26.1181 23.1323 26.0096 22.8028C25.936 22.579 25.8976 22.3429 25.8976 22.1028C25.8976 21.5093 26.1329 20.94 26.5521 20.5203C26.9714 20.1006 27.5397 19.8649 28.1327 19.8649C28.7252 19.8649 29.2936 20.1006 29.7129 20.5203C30.132 20.94 30.3674 21.5093 30.3674 22.1028C30.3674 22.6965 30.132 23.2656 29.7129 23.6853C29.2936 24.1049 28.7252 24.3408 28.1327 24.3408ZM28.1327 18.9057C27.2859 18.9057 26.4738 19.2426 25.8748 19.8421C25.2764 20.4416 24.9396 21.2548 24.9396 22.1028C24.9396 22.9508 25.2764 23.7639 25.8748 24.3635C26.4738 24.9631 27.2859 25.2998 28.1327 25.2998C28.5519 25.2998 28.967 25.2172 29.3542 25.0566C29.742 24.8958 30.0936 24.6604 30.3901 24.3635C30.5411 24.2122 30.6764 24.0464 30.794 23.8688C30.8663 23.7598 30.9316 23.6466 30.9899 23.5295C31.0229 23.4629 31.0534 23.3953 31.0821 23.3263C31.2429 22.9384 31.3254 22.5227 31.3254 22.1028C31.3254 21.683 31.2429 21.2673 31.0821 20.8793C30.9219 20.4914 30.6865 20.139 30.3901 19.8421C30.0936 19.5452 29.742 19.3097 29.3542 19.1492C28.967 18.9884 28.5519 18.9057 28.1327 18.9057Z" fill="#FFDF6C"/>
<path fill-rule="evenodd" clip-rule="evenodd" d="M11.1639 12.9299C11.2674 13.5419 10.9099 14.1256 10.3655 14.2336C9.82101 14.3415 9.2957 13.933 9.19229 13.321C9.08879 12.709 9.44636 12.1253 9.99083 12.0173C10.5353 11.9093 11.0605 12.3179 11.1639 12.9299ZM9.36951 20.5086L10.3232 22.2286L10.6776 24.7506C10.7637 25.1246 11.0914 25.3527 11.4419 25.2544C11.7746 25.1613 11.9662 24.8258 11.8724 24.3581L11.4731 21.5065L10.0409 19.0206C10.0409 19.0206 9.92689 18.8653 9.97356 18.6228L10.2528 16.6539C10.2528 16.6539 10.666 17.5845 10.8455 17.7015L11.7565 18.4531C11.9373 18.6553 12.3002 18.7853 12.4898 18.5932C12.7104 18.3697 12.6815 18.0017 12.4565 17.7391L11.4077 16.8719L10.4791 14.8618C10.4791 14.8618 9.75526 14.0271 8.6437 14.4897L6.73216 15.9739C6.73216 15.9739 6.52087 16.1081 6.46385 16.5116L6.00202 18.5726C5.9752 18.8739 6.21911 19.1597 6.51663 19.1569C6.81389 19.1542 6.9875 18.8955 7.04367 18.5483L7.40246 16.889L8.27587 16.0676L7.92456 18.2538C7.92456 18.2538 7.84538 18.5396 7.96182 19.0206C7.96182 19.0206 8.08547 19.3662 8.05046 19.5809L7.45906 21.9171L6.10209 24.3538C5.93709 24.7375 6.18494 25.1671 6.54275 25.2747C6.90055 25.3831 7.15349 25.1315 7.36972 24.7332L8.69818 22.542L9.36951 20.5086Z" fill="#FFDF6C"/>
</svg>
