<svg width="20" height="20" viewBox="0 0 20 20" fill="none" xmlns="http://www.w3.org/2000/svg">
<circle cx="10" cy="10" r="10" fill="black" fill-opacity="0.7"></circle>
<path d="M13.8647 14.8569L13.1034 15.6406L10.8739 13.3856C10.5929 13.1015 10.2416 12.9068 9.82002 12.8015C9.39876 12.6959 8.7531 12.6431 7.88304 12.6431C7.35737 12.6431 6.84077 12.524 6.33324 12.2856C5.8257 12.0473 5.35442 11.7081 4.91938 11.2681C4.09464 10.434 3.62788 9.51271 3.51912 8.50437C3.41037 7.49604 3.68679 6.66646 4.3484 6.01562C5.00095 5.35563 5.8257 5.08063 6.82265 5.19063C7.8196 5.30062 8.72591 5.76812 9.5416 6.59312C9.97663 7.03312 10.312 7.50979 10.5476 8.02312C10.7832 8.53646 10.9011 9.05896 10.9011 9.59062C10.9011 10.4798 10.9509 11.1306 11.0506 11.5431C11.1503 11.9556 11.3452 12.3085 11.6352 12.6019L13.8647 14.8569ZM15.4961 6.84062C15.4961 7.44563 15.2831 7.96354 14.8571 8.39437C14.4312 8.82521 13.9191 9.04062 13.3209 9.04062C12.7228 9.04062 12.2107 8.82521 11.7847 8.39437C11.3588 7.96354 11.1458 7.44563 11.1458 6.84062C11.1458 6.23562 11.3588 5.71771 11.7847 5.28687C12.2107 4.85604 12.7228 4.64062 13.3209 4.64062C13.9191 4.64062 14.4312 4.85604 14.8571 5.28687C15.2831 5.71771 15.4961 6.23562 15.4961 6.84062Z" fill="#E8B500"></path>
</svg>