<svg width="24" height="25" viewBox="0 0 24 25" fill="none" xmlns="http://www.w3.org/2000/svg">
<path fill-rule="evenodd" clip-rule="evenodd" d="M7.75005 7.5C7.33584 7.5 7.00005 7.83579 7.00005 8.25V11.5H11.0001V7.5H7.75005ZM11.5001 6.5H15.2501C16.2166 6.5 17.0001 7.2835 17.0001 8.25V12V15.75C17.0001 16.7165 16.2166 17.5 15.2501 17.5H15.1514L16.7774 18.584C17.0072 18.7372 17.0693 19.0476 16.9161 19.2774C16.7629 19.5071 16.4525 19.5692 16.2227 19.416L13.3487 17.5H9.65144L6.7774 19.416C6.54764 19.5692 6.2372 19.5071 6.08403 19.2774C5.93085 19.0476 5.99294 18.7372 6.2227 18.584L7.84867 17.5H7.75005C6.78355 17.5 6.00005 16.7165 6.00005 15.75V12V8.25C6.00005 7.2835 6.78355 6.5 7.75005 6.5H11.5001ZM13.5078 16.5C13.5029 16.4999 13.4981 16.4999 13.4932 16.5H9.50689H9.49229H7.75005C7.33584 16.5 7.00005 16.1642 7.00005 15.75V12.5H11.5001H16.0001V15.75C16.0001 16.1642 15.6643 16.5 15.2501 16.5H13.5078ZM12.0001 7.5V11.5H16.0001V8.25C16.0001 7.83579 15.6643 7.5 15.2501 7.5H12.0001Z" fill="#4C4C4C"/>
</svg>
