<svg width="92" height="95" viewBox="0 0 92 95" fill="none" xmlns="http://www.w3.org/2000/svg">
<g filter="url(#filter0_d_7_151)">
<rect width="80" height="70" transform="translate(6)" fill="#090C13"/>
<path d="M13.521 27.4545L17.0366 38.5057H17.1715L20.6942 27.4545H24.1033L19.0891 42H15.1261L10.1048 27.4545H13.521ZM25.854 42V27.4545H31.5927C32.6912 27.4545 33.6287 27.651 34.4052 28.044C35.1864 28.4323 35.7807 28.9839 36.1879 29.6989C36.5998 30.4091 36.8058 31.2448 36.8058 32.206C36.8058 33.1719 36.5974 34.0028 36.1808 34.6989C35.7641 35.3902 35.1604 35.9205 34.3697 36.2898C33.5837 36.6591 32.632 36.8438 31.5146 36.8438H27.6722V34.3722H31.0174C31.6045 34.3722 32.0922 34.2917 32.4805 34.1307C32.8687 33.9697 33.1576 33.7282 33.3469 33.4062C33.5411 33.0843 33.6381 32.6842 33.6381 32.206C33.6381 31.723 33.5411 31.3158 33.3469 30.9844C33.1576 30.6529 32.8664 30.402 32.4734 30.2315C32.0851 30.0563 31.5951 29.9688 31.0032 29.9688H28.9293V42H25.854ZM33.7092 35.3807L37.3242 42H33.9293L30.3924 35.3807H33.7092ZM48.8991 42.1989C47.8385 42.1989 46.8939 42.0166 46.0653 41.652C45.2415 41.2827 44.5904 40.776 44.1122 40.1321C43.6387 39.4834 43.3949 38.7353 43.3807 37.8878H46.4773C46.4962 38.2429 46.6122 38.5554 46.8253 38.8253C47.0431 39.0904 47.3319 39.2964 47.6918 39.4432C48.0516 39.59 48.4564 39.6634 48.9062 39.6634C49.375 39.6634 49.7893 39.5805 50.1491 39.4148C50.509 39.2491 50.7907 39.0194 50.9943 38.7259C51.1979 38.4323 51.2997 38.0937 51.2997 37.7102C51.2997 37.322 51.1908 36.9787 50.973 36.6804C50.7599 36.3774 50.4522 36.1406 50.0497 35.9702C49.652 35.7997 49.1785 35.7145 48.6293 35.7145H47.2727V33.456H48.6293C49.0933 33.456 49.5028 33.3755 49.858 33.2145C50.2178 33.0535 50.4972 32.831 50.696 32.5469C50.8949 32.258 50.9943 31.9219 50.9943 31.5384C50.9943 31.1738 50.9067 30.8542 50.7315 30.5795C50.5611 30.3002 50.3196 30.0824 50.0071 29.9261C49.6993 29.7699 49.3395 29.6918 48.9276 29.6918C48.5109 29.6918 48.1297 29.7675 47.7841 29.919C47.4384 30.0658 47.1615 30.2765 46.9531 30.5511C46.7448 30.8258 46.6335 31.1477 46.6193 31.517H43.6719C43.6861 30.679 43.9252 29.9403 44.3892 29.3011C44.8532 28.6619 45.4782 28.1624 46.2642 27.8026C47.0549 27.438 47.9474 27.2557 48.9418 27.2557C49.9455 27.2557 50.8239 27.438 51.5767 27.8026C52.3295 28.1671 52.9143 28.6596 53.331 29.2798C53.7524 29.8954 53.9607 30.5866 53.956 31.3537C53.9607 32.1681 53.7074 32.8475 53.196 33.392C52.6894 33.9366 52.0289 34.2822 51.2145 34.429V34.5426C52.2846 34.6799 53.099 35.0516 53.6577 35.6577C54.2211 36.259 54.5005 37.0118 54.4957 37.9162C54.5005 38.7448 54.2614 39.4811 53.7784 40.125C53.3002 40.7689 52.6397 41.2756 51.7969 41.6449C50.9541 42.0142 49.9882 42.1989 48.8991 42.1989ZM62.2887 42.1989C61.5406 42.1941 60.8185 42.0687 60.1225 41.8224C59.4312 41.5762 58.811 41.1761 58.2617 40.6222C57.7125 40.0682 57.2769 39.3343 56.9549 38.4205C56.6377 37.5066 56.479 36.3845 56.479 35.054C56.4838 33.8324 56.6235 32.741 56.8981 31.7798C57.1774 30.8139 57.5752 29.9948 58.0913 29.3224C58.6121 28.6501 59.2347 28.1387 59.9592 27.7884C60.6836 27.4332 61.4956 27.2557 62.3952 27.2557C63.3659 27.2557 64.2229 27.4451 64.9663 27.8239C65.7096 28.1979 66.3062 28.7069 66.756 29.3509C67.2106 29.9948 67.4852 30.7169 67.5799 31.517H64.5472C64.4289 31.0104 64.1803 30.6127 63.8015 30.3239C63.4227 30.035 62.954 29.8906 62.3952 29.8906C61.4483 29.8906 60.7286 30.3026 60.2362 31.1264C59.7485 31.9503 59.4999 33.0701 59.4904 34.4858H59.5898C59.8076 34.0549 60.1012 33.688 60.4705 33.3849C60.8446 33.0772 61.2683 32.8428 61.7418 32.6818C62.2201 32.5161 62.7243 32.4332 63.2546 32.4332C64.1164 32.4332 64.8834 32.6368 65.5558 33.044C66.2281 33.4465 66.7584 34.0005 67.1467 34.706C67.5349 35.4115 67.729 36.2187 67.729 37.1278C67.729 38.1127 67.4994 38.9886 67.0401 39.7557C66.5856 40.5227 65.9487 41.1241 65.1296 41.5597C64.3152 41.9905 63.3683 42.2036 62.2887 42.1989ZM62.2745 39.7841C62.748 39.7841 63.1718 39.6705 63.5458 39.4432C63.9199 39.2159 64.2134 38.9081 64.4265 38.5199C64.6396 38.1316 64.7461 37.696 64.7461 37.2131C64.7461 36.7301 64.6396 36.2969 64.4265 35.9134C64.2182 35.5298 63.9293 35.2244 63.56 34.9972C63.1907 34.7699 62.7693 34.6562 62.2958 34.6562C61.9407 34.6562 61.6116 34.7225 61.3086 34.8551C61.0103 34.9877 60.7475 35.1723 60.5202 35.4091C60.2977 35.6458 60.1225 35.9205 59.9947 36.233C59.8668 36.5407 59.8029 36.8698 59.8029 37.2202C59.8029 37.6889 59.9094 38.1174 60.1225 38.5057C60.3403 38.8939 60.6339 39.2041 61.0032 39.4361C61.3772 39.6681 61.801 39.7841 62.2745 39.7841ZM75.6126 42.3196C74.391 42.3149 73.3398 42.0142 72.4592 41.4176C71.5832 40.821 70.9085 39.9569 70.435 38.8253C69.9663 37.6937 69.7343 36.3324 69.739 34.7415C69.739 33.1553 69.9734 31.8035 70.4421 30.6861C70.9156 29.5687 71.5903 28.7187 72.4663 28.1364C73.3469 27.5492 74.3957 27.2557 75.6126 27.2557C76.8294 27.2557 77.8758 27.5492 78.7518 28.1364C79.6325 28.7235 80.3095 29.5758 80.783 30.6932C81.2565 31.8059 81.4909 33.1553 81.4862 34.7415C81.4862 36.3371 81.2494 37.7008 80.7759 38.8324C80.3072 39.964 79.6348 40.8281 78.7589 41.4247C77.8829 42.0213 76.8342 42.3196 75.6126 42.3196ZM75.6126 39.7699C76.4459 39.7699 77.1112 39.3509 77.6083 38.5128C78.1055 37.6747 78.3517 36.4176 78.3469 34.7415C78.3469 33.6383 78.2333 32.7197 78.006 31.9858C77.7835 31.2519 77.4663 30.7003 77.0543 30.331C76.6471 29.9616 76.1665 29.777 75.6126 29.777C74.784 29.777 74.1211 30.1913 73.6239 31.0199C73.1268 31.8485 72.8758 33.089 72.8711 34.7415C72.8711 35.8589 72.9824 36.7917 73.2049 37.5398C73.4322 38.2831 73.7518 38.8419 74.1637 39.2159C74.5756 39.5852 75.0586 39.7699 75.6126 39.7699Z" fill="white"/>
<path d="M52 70H40L46 76L52 70Z" fill="#090C13"/>
</g>
<defs>
<filter id="filter0_d_7_151" x="0" y="0" width="92" height="95" filterUnits="userSpaceOnUse" color-interpolation-filters="sRGB">
<feFlood flood-opacity="0" result="BackgroundImageFix"/>
<feColorMatrix in="SourceAlpha" type="matrix" values="0 0 0 0 0 0 0 0 0 0 0 0 0 0 0 0 0 0 127 0" result="hardAlpha"/>
<feMorphology radius="12" operator="erode" in="SourceAlpha" result="effect1_dropShadow_7_151"/>
<feOffset dy="13"/>
<feGaussianBlur stdDeviation="9"/>
<feComposite in2="hardAlpha" operator="out"/>
<feColorMatrix type="matrix" values="0 0 0 0 0.0352941 0 0 0 0 0.0470588 0 0 0 0 0.0745098 0 0 0 0.5 0"/>
<feBlend mode="normal" in2="BackgroundImageFix" result="effect1_dropShadow_7_151"/>
<feBlend mode="normal" in="SourceGraphic" in2="effect1_dropShadow_7_151" result="shape"/>
</filter>
</defs>
</svg>
