<svg width="24" height="25" viewBox="0 0 24 25" fill="none" xmlns="http://www.w3.org/2000/svg">
<path fill-rule="evenodd" clip-rule="evenodd" d="M7.75598 6.7148C7.84942 6.58025 8.00285 6.5 8.16667 6.5H14.8333C14.9972 6.5 15.1506 6.58025 15.244 6.7148L16.9107 9.1148C16.9688 9.19854 17 9.29805 17 9.4V10V17.8C17 18.239 16.8389 18.667 16.5414 18.9882C16.2428 19.3108 15.8291 19.5 15.3889 19.5H7.61111C7.17086 19.5 6.7572 19.3108 6.45856 18.9882C6.16111 18.667 6 18.239 6 17.8V10V9.4C6 9.29805 6.03116 9.19854 6.08932 9.1148L7.75598 6.7148ZM14.5718 7.5L15.9607 9.5H7.03929L8.42818 7.5H14.5718ZM16 10.5H7V17.8C7 17.9975 7.07302 18.18 7.19232 18.3088C7.31042 18.4364 7.46199 18.5 7.61111 18.5H15.3889C15.538 18.5 15.6896 18.4364 15.8077 18.3088C15.927 18.18 16 17.9975 16 17.8V10.5ZM9 12C9 11.7239 8.77614 11.5 8.5 11.5C8.22386 11.5 8 11.7239 8 12C8 12.7434 8.44265 13.3911 9.10133 13.8302C9.75973 14.2692 10.6234 14.5 11.5 14.5C12.3766 14.5 13.2403 14.2692 13.8987 13.8302C14.5573 13.3911 15 12.7434 15 12C15 11.7239 14.7761 11.5 14.5 11.5C14.2239 11.5 14 11.7239 14 12C14 12.3174 13.8105 12.6872 13.344 12.9982C12.8772 13.3094 12.2147 13.5 11.5 13.5C10.7853 13.5 10.1228 13.3094 9.65603 12.9982C9.18949 12.6872 9 12.3174 9 12Z"/>
</svg>
