<svg width="24" height="25" viewBox="0 0 24 25" fill="none" xmlns="http://www.w3.org/2000/svg">
<path fill-rule="evenodd" clip-rule="evenodd" d="M5 10.3333C5 9.90503 5.38268 9.5 5.92857 9.5H13.0714C13.6173 9.5 14 9.90503 14 10.3333V13V15.6667C14 16.095 13.6173 16.5 13.0714 16.5H5.92857C5.38268 16.5 5 16.095 5 15.6667V10.3333ZM15 12V10.3333C15 9.28888 14.1035 8.5 13.0714 8.5H5.92857C4.8965 8.5 4 9.28888 4 10.3333V15.6667C4 16.7111 4.8965 17.5 5.92857 17.5H13.0714C14.1035 17.5 15 16.7111 15 15.6667V14L18.2 16.4C18.3515 16.5136 18.5542 16.5319 18.7236 16.4472C18.893 16.3625 19 16.1894 19 16V10C19 9.81061 18.893 9.63748 18.7236 9.55279C18.5542 9.46809 18.3515 9.48637 18.2 9.6L15 12ZM18 15L15.3333 13L18 11V15Z" fill="#4C4C4C"/>
</svg>
