<svg width="24" height="25" viewBox="0 0 24 25" fill="none" xmlns="http://www.w3.org/2000/svg">
<path fill-rule="evenodd" clip-rule="evenodd" d="M11.7305 7.55605C11.586 7.48099 11.414 7.48099 11.2695 7.55605L4.26951 11.1924C4.10391 11.2784 4 11.4495 4 11.6361C4 11.8227 4.10391 11.9938 4.26951 12.0798L7 13.4983C7 13.4988 7 13.4993 7 13.4998V16.448C7 16.5777 7.05038 16.7023 7.14051 16.7955C8.25452 17.948 9.89587 18.4998 11.5 18.4998C13.1041 18.4998 14.7455 17.948 15.8595 16.7955C15.9496 16.7023 16 16.5777 16 16.448V13.4998C16 13.4993 16 13.4988 16 13.4983L18 12.4593V15.9998C18 16.2759 18.2239 16.4998 18.5 16.4998C18.7761 16.4998 19 16.2759 19 15.9998V11.6361C19 11.5109 18.954 11.3965 18.878 11.3088C18.8345 11.2587 18.7812 11.2172 18.7211 11.1875L11.7305 7.55605ZM15 14.0177L11.7305 15.7162C11.586 15.7912 11.414 15.7912 11.2695 15.7162L8 14.0177V16.2386C8.88545 17.0655 10.176 17.4998 11.5 17.4998C12.824 17.4998 14.1146 17.0655 15 16.2386V14.0177ZM11.5 8.5632L17.4154 11.6361L11.5 14.709L5.58462 11.6361L11.5 8.5632Z" fill="#4C4C4C"/>
</svg>
