<svg width="24" height="25" viewBox="0 0 24 25" fill="none" xmlns="http://www.w3.org/2000/svg">
<path fill-rule="evenodd" clip-rule="evenodd" d="M7.75 8.5C7.56188 8.5 7.3744 8.57942 7.23089 8.73249C7.08635 8.88667 7 9.10228 7 9.33333V11.5H16V9.33333C16 9.10228 15.9137 8.88667 15.7691 8.73249C15.6256 8.57942 15.4381 8.5 15.25 8.5H7.75ZM6 9.33333V11.6508C5.81482 11.7345 5.64438 11.8515 5.49792 11.9979C5.17911 12.3167 5 12.7491 5 13.2V17V18C5 18.2761 5.22386 18.5 5.5 18.5C5.77614 18.5 6 18.2761 6 18V17.5H17V18C17 18.2761 17.2239 18.5 17.5 18.5C17.7761 18.5 18 18.2761 18 18V17V13.2C18 12.7491 17.8209 12.3167 17.5021 11.9979C17.3556 11.8515 17.1852 11.7345 17 11.6508V9.33333C17 8.85714 16.823 8.39448 16.4987 8.04855C16.1733 7.70154 15.7249 7.5 15.25 7.5H7.75C7.27508 7.5 6.82668 7.70154 6.50135 8.04855C6.17704 8.39448 6 8.85714 6 9.33333ZM17 16.5V13.2C17 13.0143 16.9263 12.8363 16.795 12.705C16.6637 12.5737 16.4857 12.5 16.3 12.5H6.7C6.51435 12.5 6.3363 12.5738 6.20503 12.705C6.07375 12.8363 6 13.0143 6 13.2V16.5H17Z" fill="#4C4C4C"/>
</svg>
